<svg xmlns='http://www.w3.org/2000/svg' viewBox='0 0 1200 360' width='1200' height='360'>
  <defs>
    <filter id="sd"><feDropShadow dx="0" dy="2" stdDeviation="3" flood-color="#000" flood-opacity="0.3"/></filter>
    <marker id="aR" viewBox="0 0 10 7" refX="9" refY="3.5" markerWidth="8" markerHeight="6" orient="auto"><polygon points="0 0,10 3.5,0 7" fill="#e63946"/></marker>
    <marker id="aB" viewBox="0 0 10 7" refX="9" refY="3.5" markerWidth="8" markerHeight="6" orient="auto"><polygon points="0 0,10 3.5,0 7" fill="#54a0ff"/></marker>
    <marker id="aO" viewBox="0 0 10 7" refX="9" refY="3.5" markerWidth="8" markerHeight="6" orient="auto"><polygon points="0 0,10 3.5,0 7" fill="#ff9f43"/></marker>
    <marker id="aG" viewBox="0 0 10 7" refX="9" refY="3.5" markerWidth="8" markerHeight="6" orient="auto"><polygon points="0 0,10 3.5,0 7" fill="#44d7b6"/></marker>
    <marker id="aP" viewBox="0 0 10 7" refX="9" refY="3.5" markerWidth="8" markerHeight="6" orient="auto"><polygon points="0 0,10 3.5,0 7" fill="#a55eea"/></marker>
    
  </defs>
  <rect width='1200' height='360' fill='#0a0e14' rx='10'/>
  <text x="40" y="36" text-anchor="start" font-family='system-ui,-apple-system,Inter,sans-serif' font-weight="600" fill="#e6ecf3" font-size="20px">Chaine d'Attaque Complete — Module 4</text>
    <line x1="40" y1="48" x2="280" y2="48" stroke="#e63946" stroke-width="2"/>
    <line x1="183.75" y1="162.0" x2="213.75" y2="162.0" stroke="#e63946" stroke-width="1.8" marker-end="url(#aR)" />
    <line x1="317.5" y1="162.0" x2="347.5" y2="162.0" stroke="#e63946" stroke-width="1.8" marker-end="url(#aB)" />
    <line x1="451.25" y1="162.0" x2="481.25" y2="162.0" stroke="#e63946" stroke-width="1.8" marker-end="url(#aO)" />
    <line x1="585.0" y1="162.0" x2="615.0" y2="162.0" stroke="#e63946" stroke-width="1.8" marker-end="url(#aG)" />
    <line x1="718.75" y1="162.0" x2="748.75" y2="162.0" stroke="#e63946" stroke-width="1.8" marker-end="url(#aP)" />
    <line x1="852.5" y1="162.0" x2="882.5" y2="162.0" stroke="#e63946" stroke-width="1.8" marker-end="url(#aR)" />
    <line x1="986.25" y1="162.0" x2="1016.25" y2="162.0" stroke="#e63946" stroke-width="1.8" marker-end="url(#aB)" />
    <rect x="80.0" y="122.0" width="103.75" height="78" rx="6" fill="#e63946" fill-opacity="0.12" stroke="#e63946" stroke-width="1.5" filter="url(#sd)"/>
    <g transform="translate(118.675,126.8) scale(0.55)"><circle cx="24" cy="24" r="20" fill="none" stroke="#e63946" stroke-width="1.2"/><ellipse cx="24" cy="24" rx="6" ry="20" fill="none" stroke="#e63946" stroke-width="0.8"/><line x1="4" y1="24" x2="44" y2="24" stroke="#e63946" stroke-width="0.8"/></g>
    <text x="131.875" y="172.0" text-anchor="middle" font-family='system-ui,-apple-system,Inter,sans-serif' fill="#e6ecf3" font-size="11px">Recon</text>
    <text x="131.875" y="188.5" text-anchor="middle" font-family='system-ui,-apple-system,Inter,sans-serif' fill="#e6ecf3" font-size="11px">Passive + Scan</text>
    <rect x="109.875" y="208.0" width="44" height="18" rx="4" fill="#131820" stroke="#e63946" stroke-width="0.8"/>
    <text x="131.875" y="221.0" text-anchor="middle" font-family='monospace' fill="#e63946" font-size="9px">T1592</text>
    <rect x="213.75" y="122.0" width="103.75" height="78" rx="6" fill="#54a0ff" fill-opacity="0.12" stroke="#54a0ff" stroke-width="1.5" filter="url(#sd)"/>
    <g transform="translate(252.425,126.8) scale(0.55)"><path d="M24 4 L28 16 L38 14 L32 22 L42 28 L30 32 L26 44 L22 32 L12 34 L18 24 L8 20 L20 18 Z" fill="none" stroke="#54a0ff" stroke-width="1.2"/></g>
    <text x="265.625" y="172.0" text-anchor="middle" font-family='system-ui,-apple-system,Inter,sans-serif' fill="#e6ecf3" font-size="11px">XSS</text>
    <text x="265.625" y="188.5" text-anchor="middle" font-family='system-ui,-apple-system,Inter,sans-serif' fill="#e6ecf3" font-size="11px">Vol Session</text>
    <rect x="243.625" y="208.0" width="44" height="18" rx="4" fill="#131820" stroke="#54a0ff" stroke-width="0.8"/>
    <text x="265.625" y="221.0" text-anchor="middle" font-family='monospace' fill="#54a0ff" font-size="9px">T1189</text>
    <rect x="347.5" y="122.0" width="103.75" height="78" rx="6" fill="#a55eea" fill-opacity="0.12" stroke="#a55eea" stroke-width="1.5" filter="url(#sd)"/>
    <g transform="translate(386.175,126.8) scale(0.55)"><circle cx="24" cy="12" r="8" fill="none" stroke="#a55eea" stroke-width="1.2"/><path d="M8 38 Q8 22 24 22 Q40 22 40 38" fill="none" stroke="#a55eea" stroke-width="1.2"/></g>
    <text x="399.375" y="172.0" text-anchor="middle" font-family='system-ui,-apple-system,Inter,sans-serif' fill="#e6ecf3" font-size="11px">CSRF</text>
    <text x="399.375" y="188.5" text-anchor="middle" font-family='system-ui,-apple-system,Inter,sans-serif' fill="#e6ecf3" font-size="11px">ATO Password</text>
    <rect x="377.375" y="208.0" width="44" height="18" rx="4" fill="#131820" stroke="#a55eea" stroke-width="0.8"/>
    <text x="399.375" y="221.0" text-anchor="middle" font-family='monospace' fill="#a55eea" font-size="9px">T1190</text>
    <rect x="481.25" y="122.0" width="103.75" height="78" rx="6" fill="#44d7b6" fill-opacity="0.12" stroke="#44d7b6" stroke-width="1.5" filter="url(#sd)"/>
    <g transform="translate(519.925,126.8) scale(0.55)"><rect x="4" y="4" width="40" height="40" rx="4" fill="none" stroke="#44d7b6" stroke-width="1.2"/><text x="10" y="20" fill="#44d7b6" font-size="10" font-family="monospace">&gt;_</text><text x="10" y="34" fill="#44d7b6" font-size="8" font-family="monospace">~$</text></g>
    <text x="533.125" y="172.0" text-anchor="middle" font-family='system-ui,-apple-system,Inter,sans-serif' fill="#e6ecf3" font-size="11px">Web Shell</text>
    <text x="533.125" y="188.5" text-anchor="middle" font-family='system-ui,-apple-system,Inter,sans-serif' fill="#e6ecf3" font-size="11px">PHP Upload</text>
    <rect x="497.625" y="208.0" width="71" height="18" rx="4" fill="#131820" stroke="#44d7b6" stroke-width="0.8"/>
    <text x="533.125" y="221.0" text-anchor="middle" font-family='monospace' fill="#44d7b6" font-size="9px">T1505.003</text>
    <rect x="615.0" y="122.0" width="103.75" height="78" rx="6" fill="#ff9f43" fill-opacity="0.12" stroke="#ff9f43" stroke-width="1.5" filter="url(#sd)"/>
    <g transform="translate(653.675,126.8) scale(0.55)"><rect x="4" y="4" width="40" height="10" rx="1.5" fill="none" stroke="#ff9f43" stroke-width="1.2"/><rect x="4" y="18" width="40" height="10" rx="1.5" fill="none" stroke="#ff9f43" stroke-width="1.2"/><rect x="4" y="32" width="40" height="10" rx="1.5" fill="none" stroke="#ff9f43" stroke-width="1.2"/><circle cx="14" cy="9" r="2" fill="#44d7b6"/><circle cx="14" cy="23" r="2" fill="#44d7b6"/><circle cx="14" cy="37" r="2" fill="#44d7b6"/></g>
    <text x="666.875" y="172.0" text-anchor="middle" font-family='system-ui,-apple-system,Inter,sans-serif' fill="#e6ecf3" font-size="11px">Reverse Shell</text>
    <text x="666.875" y="188.5" text-anchor="middle" font-family='system-ui,-apple-system,Inter,sans-serif' fill="#e6ecf3" font-size="11px">Stabilise</text>
    <rect x="631.375" y="208.0" width="71" height="18" rx="4" fill="#131820" stroke="#ff9f43" stroke-width="0.8"/>
    <text x="666.875" y="221.0" text-anchor="middle" font-family='monospace' fill="#ff9f43" font-size="9px">T1059.003</text>
    <rect x="748.75" y="122.0" width="103.75" height="78" rx="6" fill="#ff6b6b" fill-opacity="0.12" stroke="#ff6b6b" stroke-width="1.5" filter="url(#sd)"/>
    <g transform="translate(787.425,126.8) scale(0.55)"><path d="M10 18 Q24 8 38 18" fill="none" stroke="#ff6b6b" stroke-width="1.5"/><path d="M14 24 Q24 18 34 24" fill="none" stroke="#ff6b6b" stroke-width="1.5"/><circle cx="24" cy="30" r="3" fill="#ff6b6b"/></g>
    <text x="800.625" y="172.0" text-anchor="middle" font-family='system-ui,-apple-system,Inter,sans-serif' fill="#e6ecf3" font-size="11px">Recon Interne</text>
    <text x="800.625" y="188.5" text-anchor="middle" font-family='system-ui,-apple-system,Inter,sans-serif' fill="#e6ecf3" font-size="11px">ip a/arp/scan</text>
    <rect x="778.625" y="208.0" width="44" height="18" rx="4" fill="#131820" stroke="#ff6b6b" stroke-width="0.8"/>
    <text x="800.625" y="221.0" text-anchor="middle" font-family='monospace' fill="#ff6b6b" font-size="9px">T1592</text>
    <rect x="882.5" y="122.0" width="103.75" height="78" rx="6" fill="#54a0ff" fill-opacity="0.12" stroke="#54a0ff" stroke-width="1.5" filter="url(#sd)"/>
    <g transform="translate(921.175,126.8) scale(0.55)"><rect x="4" y="4" width="40" height="40" rx="2" fill="none" stroke="#54a0ff" stroke-width="1.2"/><rect x="8" y="10" width="6" height="4" rx="1" fill="#44d7b6"/><rect x="18" y="10" width="6" height="4" rx="1" fill="#44d7b6"/><rect x="28" y="10" width="6" height="4" rx="1" fill="#44d7b6"/><rect x="8" y="18" width="6" height="4" rx="1" fill="#44d7b6"/><rect x="18" y="18" width="6" height="4" rx="1" fill="#54a0ff"/><rect x="28" y="18" width="6" height="4" rx="1" fill="{c.7}"/></g>
    <text x="934.375" y="172.0" text-anchor="middle" font-family='system-ui,-apple-system,Inter,sans-serif' fill="#e6ecf3" font-size="11px">Pivoting</text>
    <text x="934.375" y="188.5" text-anchor="middle" font-family='system-ui,-apple-system,Inter,sans-serif' fill="#e6ecf3" font-size="11px">Chisel SOCKS5</text>
    <rect x="898.875" y="208.0" width="71" height="18" rx="4" fill="#131820" stroke="#54a0ff" stroke-width="0.8"/>
    <text x="934.375" y="221.0" text-anchor="middle" font-family='monospace' fill="#54a0ff" font-size="9px">T1021.001</text>
    <rect x="1016.25" y="122.0" width="103.75" height="78" rx="6" fill="#44d7b6" fill-opacity="0.12" stroke="#44d7b6" stroke-width="1.5" filter="url(#sd)"/>
    <g transform="translate(1054.925,126.8) scale(0.55)"><ellipse cx="24" cy="8" rx="20" ry="6" fill="none" stroke="#44d7b6" stroke-width="1.2"/><path d="M4 8 L4 36" stroke="#44d7b6" stroke-width="1.2"/><path d="M44 8 L44 36" stroke="#44d7b6" stroke-width="1.2"/><ellipse cx="24" cy="36" rx="20" ry="6" fill="none" stroke="#44d7b6" stroke-width="1.2"/><ellipse cx="24" cy="22" rx="20" ry="6" fill="none" stroke="#44d7b6" stroke-width="1.2" stroke-dasharray="2 2"/></g>
    <text x="1068.125" y="172.0" text-anchor="middle" font-family='system-ui,-apple-system,Inter,sans-serif' fill="#e6ecf3" font-size="11px">Exfil</text>
    <text x="1068.125" y="188.5" text-anchor="middle" font-family='system-ui,-apple-system,Inter,sans-serif' fill="#e6ecf3" font-size="11px">Donnees Internes</text>
    <rect x="1046.125" y="208.0" width="44" height="18" rx="4" fill="#131820" stroke="#44d7b6" stroke-width="0.8"/>
    <text x="1068.125" y="221.0" text-anchor="middle" font-family='monospace' fill="#44d7b6" font-size="9px">T1041</text>
</svg>