<svg xmlns='http://www.w3.org/2000/svg' viewBox='0 0 960 500' width='960' height='500'>
  <defs>
    <filter id="sd"><feDropShadow dx="0" dy="2" stdDeviation="3" flood-color="#000" flood-opacity="0.3"/></filter>
    <marker id="aR" viewBox="0 0 10 7" refX="9" refY="3.5" markerWidth="8" markerHeight="6" orient="auto"><polygon points="0 0,10 3.5,0 7" fill="#e63946"/></marker>
    <marker id="aB" viewBox="0 0 10 7" refX="9" refY="3.5" markerWidth="8" markerHeight="6" orient="auto"><polygon points="0 0,10 3.5,0 7" fill="#54a0ff"/></marker>
    <marker id="aO" viewBox="0 0 10 7" refX="9" refY="3.5" markerWidth="8" markerHeight="6" orient="auto"><polygon points="0 0,10 3.5,0 7" fill="#ff9f43"/></marker>
    <marker id="aG" viewBox="0 0 10 7" refX="9" refY="3.5" markerWidth="8" markerHeight="6" orient="auto"><polygon points="0 0,10 3.5,0 7" fill="#44d7b6"/></marker>
    <marker id="aP" viewBox="0 0 10 7" refX="9" refY="3.5" markerWidth="8" markerHeight="6" orient="auto"><polygon points="0 0,10 3.5,0 7" fill="#a55eea"/></marker>
    
  </defs>
  <rect width='960' height='500' fill='#0a0e14' rx='10'/>
  <text x="40" y="36" text-anchor="start" font-family='system-ui,-apple-system,Inter,sans-serif' font-weight="600" fill="#e6ecf3" font-size="20px">Pivoting — Architecture Reseau</text>
    <line x1="40" y1="48" x2="280" y2="48" stroke="#e63946" stroke-width="2"/>
    <rect x="30" y="102" width="250" height="420" rx="10" fill="#131820" fill-opacity="0.5" stroke="#1e2d3d" stroke-width="1.2"/>
    <rect x="30" y="102" width="250" height="24" rx="10" fill="#131820"/>
    <rect x="30" y="102+24" width="250" height="420-24" rx="0" fill="none"/>
    <text x="40" y="119" text-anchor="start" font-family='system-ui,-apple-system,Inter,sans-serif' fill="#6b7a8d" font-size="11px">Internet / Attaquant   </text>
    <rect x="340" y="102" width="280" height="420" rx="10" fill="#131820" fill-opacity="0.5" stroke="#1e2d3d" stroke-width="1.2"/>
    <rect x="340" y="102" width="280" height="24" rx="10" fill="#131820"/>
    <rect x="340" y="102+24" width="280" height="420-24" rx="0" fill="none"/>
    <text x="350" y="119" text-anchor="start" font-family='system-ui,-apple-system,Inter,sans-serif' fill="#6b7a8d" font-size="11px">DMZ (172.17.0.0/24)   </text>
    <rect x="680" y="102" width="250" height="420" rx="10" fill="#131820" fill-opacity="0.5" stroke="#1e2d3d" stroke-width="1.2"/>
    <rect x="680" y="102" width="250" height="24" rx="10" fill="#131820"/>
    <rect x="680" y="102+24" width="250" height="420-24" rx="0" fill="none"/>
    <text x="690" y="119" text-anchor="start" font-family='system-ui,-apple-system,Inter,sans-serif' fill="#6b7a8d" font-size="11px">Reseau Interne (10.0.0.0/24)   </text>
    <rect x="113" y="182" width="84" height="60" rx="6" fill="#e63946" fill-opacity="0.12" stroke="#e63946" stroke-width="1.5" filter="url(#sd)"/>
    <g transform="translate(139.4,182.4) scale(0.65)"><rect x="6" y="6" width="36" height="22" rx="2" fill="none" stroke="#e63946" stroke-width="1.2"/><path d="M2 40 L12 28 L36 28 L46 40 Z" fill="none" stroke="#e63946" stroke-width="1.2"/></g>
    <text x="155" y="228.0" text-anchor="middle" font-family='system-ui,-apple-system,Inter,sans-serif' fill="#e6ecf3" font-size="10px">Attaquant</text>
    <text x="155" y="243.0" text-anchor="middle" font-family='system-ui,-apple-system,Inter,sans-serif' fill="#e6ecf3" font-size="10px">Kali Linux</text>
    <rect x="438" y="182" width="84" height="60" rx="6" fill="#54a0ff" fill-opacity="0.12" stroke="#54a0ff" stroke-width="1.5" filter="url(#sd)"/>
    <g transform="translate(464.4,182.4) scale(0.65)"><rect x="4" y="4" width="40" height="10" rx="1.5" fill="none" stroke="#54a0ff" stroke-width="1.2"/><rect x="4" y="18" width="40" height="10" rx="1.5" fill="none" stroke="#54a0ff" stroke-width="1.2"/><rect x="4" y="32" width="40" height="10" rx="1.5" fill="none" stroke="#54a0ff" stroke-width="1.2"/><circle cx="14" cy="9" r="2" fill="#44d7b6"/><circle cx="14" cy="23" r="2" fill="#44d7b6"/><circle cx="14" cy="37" r="2" fill="#44d7b6"/></g>
    <text x="480" y="220.5" text-anchor="middle" font-family='system-ui,-apple-system,Inter,sans-serif' fill="#e6ecf3" font-size="10px">Serveur Web</text>
    <text x="480" y="235.5" text-anchor="middle" font-family='system-ui,-apple-system,Inter,sans-serif' fill="#e6ecf3" font-size="10px">172.17.0.2</text>
    <text x="480" y="250.5" text-anchor="middle" font-family='system-ui,-apple-system,Inter,sans-serif' fill="#e6ecf3" font-size="10px">Flask + Nginx</text>
    <rect x="438" y="342" width="84" height="60" rx="6" fill="#ff9f43" fill-opacity="0.12" stroke="#ff9f43" stroke-width="1.5" filter="url(#sd)"/>
    <g transform="translate(464.4,342.4) scale(0.65)"><rect x="4" y="4" width="40" height="40" rx="4" fill="none" stroke="#ff9f43" stroke-width="1.2"/><text x="10" y="20" fill="#44d7b6" font-size="10" font-family="monospace">&gt;_</text><text x="10" y="34" fill="#ff9f43" font-size="8" font-family="monospace">~$</text></g>
    <text x="480" y="388.0" text-anchor="middle" font-family='system-ui,-apple-system,Inter,sans-serif' fill="#e6ecf3" font-size="10px">Web Shell PHP</text>
    <text x="480" y="403.0" text-anchor="middle" font-family='system-ui,-apple-system,Inter,sans-serif' fill="#e6ecf3" font-size="10px">Reverse Shell</text>
    <rect x="763" y="182" width="84" height="60" rx="6" fill="#44d7b6" fill-opacity="0.12" stroke="#44d7b6" stroke-width="1.5" filter="url(#sd)"/>
    <g transform="translate(789.4,182.4) scale(0.65)"><rect x="4" y="4" width="40" height="10" rx="1.5" fill="none" stroke="#44d7b6" stroke-width="1.2"/><rect x="4" y="18" width="40" height="10" rx="1.5" fill="none" stroke="#44d7b6" stroke-width="1.2"/><rect x="4" y="32" width="40" height="10" rx="1.5" fill="none" stroke="#44d7b6" stroke-width="1.2"/><circle cx="14" cy="9" r="2" fill="#44d7b6"/><circle cx="14" cy="23" r="2" fill="#44d7b6"/><circle cx="14" cy="37" r="2" fill="#44d7b6"/></g>
    <text x="805" y="220.5" text-anchor="middle" font-family='system-ui,-apple-system,Inter,sans-serif' fill="#e6ecf3" font-size="10px">Serveur Interne</text>
    <text x="805" y="235.5" text-anchor="middle" font-family='system-ui,-apple-system,Inter,sans-serif' fill="#e6ecf3" font-size="10px">10.0.0.10</text>
    <text x="805" y="250.5" text-anchor="middle" font-family='system-ui,-apple-system,Inter,sans-serif' fill="#e6ecf3" font-size="10px">SSH/SMTP/API</text>
    <rect x="763" y="342" width="84" height="60" rx="6" fill="#a55eea" fill-opacity="0.12" stroke="#a55eea" stroke-width="1.5" filter="url(#sd)"/>
    <g transform="translate(789.4,342.4) scale(0.65)"><ellipse cx="24" cy="8" rx="20" ry="6" fill="none" stroke="#a55eea" stroke-width="1.2"/><path d="M4 8 L4 36" stroke="#a55eea" stroke-width="1.2"/><path d="M44 8 L44 36" stroke="#a55eea" stroke-width="1.2"/><ellipse cx="24" cy="36" rx="20" ry="6" fill="none" stroke="#a55eea" stroke-width="1.2"/><ellipse cx="24" cy="22" rx="20" ry="6" fill="none" stroke="#a55eea" stroke-width="1.2" stroke-dasharray="2 2"/></g>
    <text x="805" y="380.5" text-anchor="middle" font-family='system-ui,-apple-system,Inter,sans-serif' fill="#e6ecf3" font-size="10px">Base de Donnees</text>
    <text x="805" y="395.5" text-anchor="middle" font-family='system-ui,-apple-system,Inter,sans-serif' fill="#e6ecf3" font-size="10px">Interne</text>
    <text x="805" y="410.5" text-anchor="middle" font-family='system-ui,-apple-system,Inter,sans-serif' fill="#e6ecf3" font-size="10px">Donnees sensibles</text>
    <path d="M155,212 Q155,192.0 480,212" fill="none" stroke="#e63946" stroke-width="1.8" marker-end="url(#aR)"/>
    <rect x="277.5" y="182.0" width="80" height="18" rx="4" fill="#0a0e14" stroke="#1e2d3d" stroke-width="0.8"/>
    <text x="317.5" y="195.0" text-anchor="middle" font-family='monospace' fill="#6b7a8d" font-size="9px">XSS → CSRF</text>
    <path d="M480,212 Q480,272.0 480,372" fill="none" stroke="#e63946" stroke-width="1.8" marker-end="url(#aR)"/>
    <rect x="454.0" y="262.0" width="52" height="18" rx="4" fill="#0a0e14" stroke="#1e2d3d" stroke-width="0.8"/>
    <text x="480.0" y="275.0" text-anchor="middle" font-family='monospace' fill="#6b7a8d" font-size="9px">Upload</text>
    <path d="M480,372 Q480,272.0 155,212" fill="none" stroke="#ff9f43" stroke-width="1.8" marker-end="url(#aO)"/>
    <rect x="267.0" y="262.0" width="101" height="18" rx="4" fill="#0a0e14" stroke="#1e2d3d" stroke-width="0.8"/>
    <text x="317.5" y="275.0" text-anchor="middle" font-family='monospace' fill="#6b7a8d" font-size="9px">Reverse Shell</text>
    <path d="M480,372 Q480,272.0 805,212" fill="none" stroke="#ff9f43" stroke-width="1.8" marker-end="url(#aO)"/>
    <rect x="595.5" y="262.0" width="94" height="18" rx="4" fill="#0a0e14" stroke="#1e2d3d" stroke-width="0.8"/>
    <text x="642.5" y="275.0" text-anchor="middle" font-family='monospace' fill="#6b7a8d" font-size="9px">Pivot SOCKS5</text>
    <path d="M805,212 Q805,272.0 805,372" fill="none" stroke="#e63946" stroke-width="1.8" marker-end="url(#aR)"/>
    <rect x="782.5" y="262.0" width="45" height="18" rx="4" fill="#0a0e14" stroke="#1e2d3d" stroke-width="0.8"/>
    <text x="805.0" y="275.0" text-anchor="middle" font-family='monospace' fill="#6b7a8d" font-size="9px">Exfil</text>
</svg>