<svg xmlns='http://www.w3.org/2000/svg' viewBox='0 0 1100 380' width='1100' height='380'>
  <defs>
    <filter id="sd"><feDropShadow dx="0" dy="2" stdDeviation="3" flood-color="#000" flood-opacity="0.3"/></filter>
    <marker id="aR" viewBox="0 0 10 7" refX="9" refY="3.5" markerWidth="8" markerHeight="6" orient="auto"><polygon points="0 0,10 3.5,0 7" fill="#e63946"/></marker>
    <marker id="aB" viewBox="0 0 10 7" refX="9" refY="3.5" markerWidth="8" markerHeight="6" orient="auto"><polygon points="0 0,10 3.5,0 7" fill="#54a0ff"/></marker>
    <marker id="aO" viewBox="0 0 10 7" refX="9" refY="3.5" markerWidth="8" markerHeight="6" orient="auto"><polygon points="0 0,10 3.5,0 7" fill="#ff9f43"/></marker>
    <marker id="aG" viewBox="0 0 10 7" refX="9" refY="3.5" markerWidth="8" markerHeight="6" orient="auto"><polygon points="0 0,10 3.5,0 7" fill="#44d7b6"/></marker>
    <marker id="aP" viewBox="0 0 10 7" refX="9" refY="3.5" markerWidth="8" markerHeight="6" orient="auto"><polygon points="0 0,10 3.5,0 7" fill="#a55eea"/></marker>
    
  </defs>
  <rect width='1100' height='380' fill='#0a0e14' rx='10'/>
  <text x="40" y="36" text-anchor="start" font-family='system-ui,-apple-system,Inter,sans-serif' font-weight="600" fill="#e6ecf3" font-size="20px">Kill Chain ATT&amp;CK — Internet → DMZ → Interne</text>
    <line x1="40" y1="48" x2="280" y2="48" stroke="#e63946" stroke-width="2"/>
    <line x1="171.25" y1="172.0" x2="201.25" y2="172.0" stroke="#e63946" stroke-width="1.8" marker-end="url(#aR)" />
    <line x1="292.5" y1="172.0" x2="322.5" y2="172.0" stroke="#e63946" stroke-width="1.8" marker-end="url(#aB)" />
    <line x1="413.75" y1="172.0" x2="443.75" y2="172.0" stroke="#e63946" stroke-width="1.8" marker-end="url(#aO)" />
    <line x1="535.0" y1="172.0" x2="565.0" y2="172.0" stroke="#e63946" stroke-width="1.8" marker-end="url(#aG)" />
    <line x1="656.25" y1="172.0" x2="686.25" y2="172.0" stroke="#e63946" stroke-width="1.8" marker-end="url(#aP)" />
    <line x1="777.5" y1="172.0" x2="807.5" y2="172.0" stroke="#e63946" stroke-width="1.8" marker-end="url(#aR)" />
    <line x1="898.75" y1="172.0" x2="928.75" y2="172.0" stroke="#e63946" stroke-width="1.8" marker-end="url(#aB)" />
    <rect x="80.0" y="132.0" width="91.25" height="78" rx="6" fill="#e63946" fill-opacity="0.12" stroke="#e63946" stroke-width="1.5" filter="url(#sd)"/>
    <g transform="translate(112.425,136.8) scale(0.55)"><circle cx="24" cy="24" r="20" fill="none" stroke="#e63946" stroke-width="1.2"/><ellipse cx="24" cy="24" rx="6" ry="20" fill="none" stroke="#e63946" stroke-width="0.8"/><line x1="4" y1="24" x2="44" y2="24" stroke="#e63946" stroke-width="0.8"/></g>
    <text x="125.625" y="182.0" text-anchor="middle" font-family='system-ui,-apple-system,Inter,sans-serif' fill="#e6ecf3" font-size="11px">Reconnaissance</text>
    <text x="125.625" y="198.5" text-anchor="middle" font-family='system-ui,-apple-system,Inter,sans-serif' fill="#e6ecf3" font-size="11px">Gather Host Info</text>
    <rect x="103.625" y="218.0" width="44" height="18" rx="4" fill="#131820" stroke="#e63946" stroke-width="0.8"/>
    <text x="125.625" y="231.0" text-anchor="middle" font-family='monospace' fill="#e63946" font-size="9px">T1592</text>
    <rect x="201.25" y="132.0" width="91.25" height="78" rx="6" fill="#54a0ff" fill-opacity="0.12" stroke="#54a0ff" stroke-width="1.5" filter="url(#sd)"/>
    <g transform="translate(233.675,136.8) scale(0.55)"><path d="M24 4 L28 16 L38 14 L32 22 L42 28 L30 32 L26 44 L22 32 L12 34 L18 24 L8 20 L20 18 Z" fill="none" stroke="#54a0ff" stroke-width="1.2"/></g>
    <text x="246.875" y="182.0" text-anchor="middle" font-family='system-ui,-apple-system,Inter,sans-serif' fill="#e6ecf3" font-size="11px">XSS Drive-by</text>
    <text x="246.875" y="198.5" text-anchor="middle" font-family='system-ui,-apple-system,Inter,sans-serif' fill="#e6ecf3" font-size="11px">Steal Session</text>
    <rect x="224.875" y="218.0" width="44" height="18" rx="4" fill="#131820" stroke="#54a0ff" stroke-width="0.8"/>
    <text x="246.875" y="231.0" text-anchor="middle" font-family='monospace' fill="#54a0ff" font-size="9px">T1189</text>
    <rect x="322.5" y="132.0" width="91.25" height="78" rx="6" fill="#a55eea" fill-opacity="0.12" stroke="#a55eea" stroke-width="1.5" filter="url(#sd)"/>
    <g transform="translate(354.925,136.8) scale(0.55)"><circle cx="12" cy="24" r="8" fill="none" stroke="#a55eea" stroke-width="1.2"/><line x1="20" y1="24" x2="44" y2="24" stroke="#a55eea" stroke-width="1.2"/><line x1="28" y1="20" x2="28" y2="28" stroke="#a55eea" stroke-width="1.2"/></g>
    <text x="368.125" y="182.0" text-anchor="middle" font-family='system-ui,-apple-system,Inter,sans-serif' fill="#e6ecf3" font-size="11px">Cookie Theft</text>
    <text x="368.125" y="198.5" text-anchor="middle" font-family='system-ui,-apple-system,Inter,sans-serif' fill="#e6ecf3" font-size="11px">Session Hijack</text>
    <rect x="346.125" y="218.0" width="44" height="18" rx="4" fill="#131820" stroke="#a55eea" stroke-width="0.8"/>
    <text x="368.125" y="231.0" text-anchor="middle" font-family='monospace' fill="#a55eea" font-size="9px">T1539</text>
    <rect x="443.75" y="132.0" width="91.25" height="78" rx="6" fill="#44d7b6" fill-opacity="0.12" stroke="#44d7b6" stroke-width="1.5" filter="url(#sd)"/>
    <g transform="translate(476.175,136.8) scale(0.55)"><circle cx="24" cy="12" r="8" fill="none" stroke="#44d7b6" stroke-width="1.2"/><path d="M8 38 Q8 22 24 22 Q40 22 40 38" fill="none" stroke="#44d7b6" stroke-width="1.2"/></g>
    <text x="489.375" y="182.0" text-anchor="middle" font-family='system-ui,-apple-system,Inter,sans-serif' fill="#e6ecf3" font-size="11px">CSRF → ATO</text>
    <text x="489.375" y="198.5" text-anchor="middle" font-family='system-ui,-apple-system,Inter,sans-serif' fill="#e6ecf3" font-size="11px">Change Password</text>
    <rect x="467.375" y="218.0" width="44" height="18" rx="4" fill="#131820" stroke="#44d7b6" stroke-width="0.8"/>
    <text x="489.375" y="231.0" text-anchor="middle" font-family='monospace' fill="#44d7b6" font-size="9px">T1190</text>
    <rect x="565.0" y="132.0" width="91.25" height="78" rx="6" fill="#ff9f43" fill-opacity="0.12" stroke="#ff9f43" stroke-width="1.5" filter="url(#sd)"/>
    <g transform="translate(597.425,136.8) scale(0.55)"><rect x="4" y="4" width="40" height="40" rx="4" fill="none" stroke="#ff9f43" stroke-width="1.2"/><text x="10" y="20" fill="#44d7b6" font-size="10" font-family="monospace">&gt;_</text><text x="10" y="34" fill="#ff9f43" font-size="8" font-family="monospace">~$</text></g>
    <text x="610.625" y="182.0" text-anchor="middle" font-family='system-ui,-apple-system,Inter,sans-serif' fill="#e6ecf3" font-size="11px">Web Shell</text>
    <text x="610.625" y="198.5" text-anchor="middle" font-family='system-ui,-apple-system,Inter,sans-serif' fill="#e6ecf3" font-size="11px">PHP Upload</text>
    <rect x="575.125" y="218.0" width="71" height="18" rx="4" fill="#131820" stroke="#ff9f43" stroke-width="0.8"/>
    <text x="610.625" y="231.0" text-anchor="middle" font-family='monospace' fill="#ff9f43" font-size="9px">T1505.003</text>
    <rect x="686.25" y="132.0" width="91.25" height="78" rx="6" fill="#ff6b6b" fill-opacity="0.12" stroke="#ff6b6b" stroke-width="1.5" filter="url(#sd)"/>
    <g transform="translate(718.675,136.8) scale(0.55)"><rect x="4" y="4" width="40" height="10" rx="1.5" fill="none" stroke="#ff6b6b" stroke-width="1.2"/><rect x="4" y="18" width="40" height="10" rx="1.5" fill="none" stroke="#ff6b6b" stroke-width="1.2"/><rect x="4" y="32" width="40" height="10" rx="1.5" fill="none" stroke="#ff6b6b" stroke-width="1.2"/><circle cx="14" cy="9" r="2" fill="#44d7b6"/><circle cx="14" cy="23" r="2" fill="#44d7b6"/><circle cx="14" cy="37" r="2" fill="#44d7b6"/></g>
    <text x="731.875" y="182.0" text-anchor="middle" font-family='system-ui,-apple-system,Inter,sans-serif' fill="#e6ecf3" font-size="11px">Reverse Shell</text>
    <text x="731.875" y="198.5" text-anchor="middle" font-family='system-ui,-apple-system,Inter,sans-serif' fill="#e6ecf3" font-size="11px">TCP Connect-Back</text>
    <rect x="696.375" y="218.0" width="71" height="18" rx="4" fill="#131820" stroke="#ff6b6b" stroke-width="0.8"/>
    <text x="731.875" y="231.0" text-anchor="middle" font-family='monospace' fill="#ff6b6b" font-size="9px">T1059.003</text>
    <rect x="807.5" y="132.0" width="91.25" height="78" rx="6" fill="#54a0ff" fill-opacity="0.12" stroke="#54a0ff" stroke-width="1.5" filter="url(#sd)"/>
    <g transform="translate(839.925,136.8) scale(0.55)"><rect x="4" y="4" width="40" height="40" rx="2" fill="none" stroke="#54a0ff" stroke-width="1.2"/><rect x="8" y="10" width="6" height="4" rx="1" fill="#44d7b6"/><rect x="18" y="10" width="6" height="4" rx="1" fill="#44d7b6"/><rect x="28" y="10" width="6" height="4" rx="1" fill="#44d7b6"/><rect x="8" y="18" width="6" height="4" rx="1" fill="#44d7b6"/><rect x="18" y="18" width="6" height="4" rx="1" fill="#54a0ff"/><rect x="28" y="18" width="6" height="4" rx="1" fill="{c.7}"/></g>
    <text x="853.125" y="182.0" text-anchor="middle" font-family='system-ui,-apple-system,Inter,sans-serif' fill="#e6ecf3" font-size="11px">Pivoting</text>
    <text x="853.125" y="198.5" text-anchor="middle" font-family='system-ui,-apple-system,Inter,sans-serif' fill="#e6ecf3" font-size="11px">SOCKS Tunnel</text>
    <rect x="817.625" y="218.0" width="71" height="18" rx="4" fill="#131820" stroke="#54a0ff" stroke-width="0.8"/>
    <text x="853.125" y="231.0" text-anchor="middle" font-family='monospace' fill="#54a0ff" font-size="9px">T1021.001</text>
    <rect x="928.75" y="132.0" width="91.25" height="78" rx="6" fill="#44d7b6" fill-opacity="0.12" stroke="#44d7b6" stroke-width="1.5" filter="url(#sd)"/>
    <g transform="translate(961.175,136.8) scale(0.55)"><ellipse cx="24" cy="8" rx="20" ry="6" fill="none" stroke="#44d7b6" stroke-width="1.2"/><path d="M4 8 L4 36" stroke="#44d7b6" stroke-width="1.2"/><path d="M44 8 L44 36" stroke="#44d7b6" stroke-width="1.2"/><ellipse cx="24" cy="36" rx="20" ry="6" fill="none" stroke="#44d7b6" stroke-width="1.2"/><ellipse cx="24" cy="22" rx="20" ry="6" fill="none" stroke="#44d7b6" stroke-width="1.2" stroke-dasharray="2 2"/></g>
    <text x="974.375" y="182.0" text-anchor="middle" font-family='system-ui,-apple-system,Inter,sans-serif' fill="#e6ecf3" font-size="11px">Exfiltration</text>
    <text x="974.375" y="198.5" text-anchor="middle" font-family='system-ui,-apple-system,Inter,sans-serif' fill="#e6ecf3" font-size="11px">Over C2 Channel</text>
    <rect x="952.375" y="218.0" width="44" height="18" rx="4" fill="#131820" stroke="#44d7b6" stroke-width="0.8"/>
    <text x="974.375" y="231.0" text-anchor="middle" font-family='monospace' fill="#44d7b6" font-size="9px">T1041</text>
</svg>