<svg xmlns='http://www.w3.org/2000/svg' viewBox='0 0 800 340' width='800' height='340'>
  <defs>
    <filter id="sd"><feDropShadow dx="0" dy="2" stdDeviation="3" flood-color="#000" flood-opacity="0.3"/></filter>
    <marker id="aR" viewBox="0 0 10 7" refX="9" refY="3.5" markerWidth="8" markerHeight="6" orient="auto"><polygon points="0 0,10 3.5,0 7" fill="#e63946"/></marker>
    <marker id="aB" viewBox="0 0 10 7" refX="9" refY="3.5" markerWidth="8" markerHeight="6" orient="auto"><polygon points="0 0,10 3.5,0 7" fill="#54a0ff"/></marker>
    <marker id="aO" viewBox="0 0 10 7" refX="9" refY="3.5" markerWidth="8" markerHeight="6" orient="auto"><polygon points="0 0,10 3.5,0 7" fill="#ff9f43"/></marker>
    <marker id="aG" viewBox="0 0 10 7" refX="9" refY="3.5" markerWidth="8" markerHeight="6" orient="auto"><polygon points="0 0,10 3.5,0 7" fill="#44d7b6"/></marker>
    <marker id="aP" viewBox="0 0 10 7" refX="9" refY="3.5" markerWidth="8" markerHeight="6" orient="auto"><polygon points="0 0,10 3.5,0 7" fill="#a55eea"/></marker>
    
  </defs>
  <rect width='800' height='340' fill='#0a0e14' rx='10'/>
  <text x="40" y="36" text-anchor="start" font-family='system-ui,-apple-system,Inter,sans-serif' font-weight="600" fill="#e6ecf3" font-size="20px">Burp Intruder — Mode Sniper</text>
    <line x1="40" y1="48" x2="280" y2="48" stroke="#e63946" stroke-width="2"/>
    <line x1="184.0" y1="152.0" x2="214.0" y2="152.0" stroke="#e63946" stroke-width="1.8" marker-end="url(#aR)" />
    <line x1="318.0" y1="152.0" x2="348.0" y2="152.0" stroke="#e63946" stroke-width="1.8" marker-end="url(#aB)" />
    <line x1="452.0" y1="152.0" x2="482.0" y2="152.0" stroke="#e63946" stroke-width="1.8" marker-end="url(#aO)" />
    <line x1="586.0" y1="152.0" x2="616.0" y2="152.0" stroke="#e63946" stroke-width="1.8" marker-end="url(#aG)" />
    <rect x="80.0" y="112.0" width="104.0" height="78" rx="6" fill="#e63946" fill-opacity="0.12" stroke="#e63946" stroke-width="1.5" filter="url(#sd)"/>
    <g transform="translate(118.8,116.8) scale(0.55)"><circle cx="24" cy="24" r="20" fill="none" stroke="#e63946" stroke-width="1.2"/><ellipse cx="24" cy="24" rx="6" ry="20" fill="none" stroke="#e63946" stroke-width="0.8"/><line x1="4" y1="24" x2="44" y2="24" stroke="#e63946" stroke-width="0.8"/></g>
    <text x="132.0" y="162.0" text-anchor="middle" font-family='system-ui,-apple-system,Inter,sans-serif' fill="#e6ecf3" font-size="11px">Request Capturee</text>
    <text x="132.0" y="178.5" text-anchor="middle" font-family='system-ui,-apple-system,Inter,sans-serif' fill="#e6ecf3" font-size="11px">GET /api/profile/1</text>
    <rect x="214.0" y="112.0" width="104.0" height="78" rx="6" fill="#54a0ff" fill-opacity="0.12" stroke="#54a0ff" stroke-width="1.5" filter="url(#sd)"/>
    <g transform="translate(252.8,116.8) scale(0.55)"><path d="M24 4 L28 16 L38 14 L32 22 L42 28 L30 32 L26 44 L22 32 L12 34 L18 24 L8 20 L20 18 Z" fill="none" stroke="#54a0ff" stroke-width="1.2"/></g>
    <text x="266.0" y="162.0" text-anchor="middle" font-family='system-ui,-apple-system,Inter,sans-serif' fill="#e6ecf3" font-size="11px">Payload Position</text>
    <text x="266.0" y="178.5" text-anchor="middle" font-family='system-ui,-apple-system,Inter,sans-serif' fill="#e6ecf3" font-size="11px">/id/§1§</text>
    <rect x="241.0" y="198.0" width="50" height="18" rx="4" fill="#131820" stroke="#54a0ff" stroke-width="0.8"/>
    <text x="266.0" y="211.0" text-anchor="middle" font-family='monospace' fill="#54a0ff" font-size="9px">Sniper</text>
    <rect x="348.0" y="112.0" width="104.0" height="78" rx="6" fill="#a55eea" fill-opacity="0.12" stroke="#a55eea" stroke-width="1.5" filter="url(#sd)"/>
    <g transform="translate(386.8,116.8) scale(0.55)"><path d="M6 10 L18 10 L22 16 L42 16 L42 38 L6 38 Z" fill="none" stroke="#a55eea" stroke-width="1.2"/></g>
    <text x="400.0" y="162.0" text-anchor="middle" font-family='system-ui,-apple-system,Inter,sans-serif' fill="#e6ecf3" font-size="11px">Wordlist</text>
    <text x="400.0" y="178.5" text-anchor="middle" font-family='system-ui,-apple-system,Inter,sans-serif' fill="#e6ecf3" font-size="11px">1,2,3,4,5...</text>
    <rect x="482.0" y="112.0" width="104.0" height="78" rx="6" fill="#44d7b6" fill-opacity="0.12" stroke="#44d7b6" stroke-width="1.5" filter="url(#sd)"/>
    <g transform="translate(520.8,116.8) scale(0.55)"><rect x="4" y="4" width="40" height="40" rx="4" fill="none" stroke="#44d7b6" stroke-width="1.2"/><text x="10" y="20" fill="#44d7b6" font-size="10" font-family="monospace">&gt;_</text><text x="10" y="34" fill="#44d7b6" font-size="8" font-family="monospace">~$</text></g>
    <text x="534.0" y="162.0" text-anchor="middle" font-family='system-ui,-apple-system,Inter,sans-serif' fill="#e6ecf3" font-size="11px">Iteration 1 a N</text>
    <text x="534.0" y="178.5" text-anchor="middle" font-family='system-ui,-apple-system,Inter,sans-serif' fill="#e6ecf3" font-size="11px">Teste chaque ID</text>
    <rect x="616.0" y="112.0" width="104.0" height="78" rx="6" fill="#ff9f43" fill-opacity="0.12" stroke="#ff9f43" stroke-width="1.5" filter="url(#sd)"/>
    <g transform="translate(654.8,116.8) scale(0.55)"><circle cx="12" cy="24" r="8" fill="none" stroke="#ff9f43" stroke-width="1.2"/><line x1="20" y1="24" x2="44" y2="24" stroke="#ff9f43" stroke-width="1.2"/><line x1="28" y1="20" x2="28" y2="28" stroke="#ff9f43" stroke-width="1.2"/></g>
    <text x="668.0" y="162.0" text-anchor="middle" font-family='system-ui,-apple-system,Inter,sans-serif' fill="#e6ecf3" font-size="11px">Resultats</text>
    <text x="668.0" y="178.5" text-anchor="middle" font-family='system-ui,-apple-system,Inter,sans-serif' fill="#e6ecf3" font-size="11px">IDOR detecte</text>
</svg>