<svg xmlns='http://www.w3.org/2000/svg' viewBox='0 0 900 340' width='900' height='340'>
  <defs>
    <filter id="sd"><feDropShadow dx="0" dy="2" stdDeviation="3" flood-color="#000" flood-opacity="0.3"/></filter>
    <marker id="aR" viewBox="0 0 10 7" refX="9" refY="3.5" markerWidth="8" markerHeight="6" orient="auto"><polygon points="0 0,10 3.5,0 7" fill="#e63946"/></marker>
    <marker id="aB" viewBox="0 0 10 7" refX="9" refY="3.5" markerWidth="8" markerHeight="6" orient="auto"><polygon points="0 0,10 3.5,0 7" fill="#54a0ff"/></marker>
    <marker id="aO" viewBox="0 0 10 7" refX="9" refY="3.5" markerWidth="8" markerHeight="6" orient="auto"><polygon points="0 0,10 3.5,0 7" fill="#ff9f43"/></marker>
    <marker id="aG" viewBox="0 0 10 7" refX="9" refY="3.5" markerWidth="8" markerHeight="6" orient="auto"><polygon points="0 0,10 3.5,0 7" fill="#44d7b6"/></marker>
    <marker id="aP" viewBox="0 0 10 7" refX="9" refY="3.5" markerWidth="8" markerHeight="6" orient="auto"><polygon points="0 0,10 3.5,0 7" fill="#a55eea"/></marker>
    
  </defs>
  <rect width='900' height='340' fill='#0a0e14' rx='10'/>
  <text x="40" y="36" text-anchor="start" font-family='system-ui,-apple-system,Inter,sans-serif' font-weight="600" fill="#e6ecf3" font-size="20px">CSRF Attack — Account Takeover</text>
    <line x1="40" y1="48" x2="280" y2="48" stroke="#e63946" stroke-width="2"/>
    <line x1="204.0" y1="152.0" x2="234.0" y2="152.0" stroke="#e63946" stroke-width="1.8" marker-end="url(#aR)" />
    <line x1="358.0" y1="152.0" x2="388.0" y2="152.0" stroke="#e63946" stroke-width="1.8" marker-end="url(#aB)" />
    <line x1="512.0" y1="152.0" x2="542.0" y2="152.0" stroke="#e63946" stroke-width="1.8" marker-end="url(#aO)" />
    <line x1="666.0" y1="152.0" x2="696.0" y2="152.0" stroke="#e63946" stroke-width="1.8" marker-end="url(#aG)" />
    <rect x="80.0" y="112.0" width="124.0" height="78" rx="6" fill="#e63946" fill-opacity="0.12" stroke="#e63946" stroke-width="1.5" filter="url(#sd)"/>
    <g transform="translate(128.8,116.8) scale(0.55)"><path d="M24 4 L28 16 L38 14 L32 22 L42 28 L30 32 L26 44 L22 32 L12 34 L18 24 L8 20 L20 18 Z" fill="none" stroke="#e63946" stroke-width="1.2"/></g>
    <text x="142.0" y="162.0" text-anchor="middle" font-family='system-ui,-apple-system,Inter,sans-serif' fill="#e6ecf3" font-size="11px">Attacker</text>
    <text x="142.0" y="178.5" text-anchor="middle" font-family='system-ui,-apple-system,Inter,sans-serif' fill="#e6ecf3" font-size="11px">Forge HTML malicieuse</text>
    <rect x="234.0" y="112.0" width="124.0" height="78" rx="6" fill="#54a0ff" fill-opacity="0.12" stroke="#54a0ff" stroke-width="1.5" filter="url(#sd)"/>
    <g transform="translate(282.8,116.8) scale(0.55)"><circle cx="24" cy="12" r="8" fill="none" stroke="#54a0ff" stroke-width="1.2"/><path d="M8 38 Q8 22 24 22 Q40 22 40 38" fill="none" stroke="#54a0ff" stroke-width="1.2"/></g>
    <text x="296.0" y="162.0" text-anchor="middle" font-family='system-ui,-apple-system,Inter,sans-serif' fill="#e6ecf3" font-size="11px">Victim</text>
    <text x="296.0" y="178.5" text-anchor="middle" font-family='system-ui,-apple-system,Inter,sans-serif' fill="#e6ecf3" font-size="11px">Navigateur connecte</text>
    <rect x="388.0" y="112.0" width="124.0" height="78" rx="6" fill="#a55eea" fill-opacity="0.12" stroke="#a55eea" stroke-width="1.5" filter="url(#sd)"/>
    <g transform="translate(436.8,116.8) scale(0.55)"><rect x="4" y="4" width="40" height="10" rx="1.5" fill="none" stroke="#a55eea" stroke-width="1.2"/><rect x="4" y="18" width="40" height="10" rx="1.5" fill="none" stroke="#a55eea" stroke-width="1.2"/><rect x="4" y="32" width="40" height="10" rx="1.5" fill="none" stroke="#a55eea" stroke-width="1.2"/><circle cx="14" cy="9" r="2" fill="#44d7b6"/><circle cx="14" cy="23" r="2" fill="#44d7b6"/><circle cx="14" cy="37" r="2" fill="#44d7b6"/></g>
    <text x="450.0" y="162.0" text-anchor="middle" font-family='system-ui,-apple-system,Inter,sans-serif' fill="#e6ecf3" font-size="11px">Server Ecovault</text>
    <text x="450.0" y="178.5" text-anchor="middle" font-family='system-ui,-apple-system,Inter,sans-serif' fill="#e6ecf3" font-size="11px">Pas de token CSRF</text>
    <rect x="542.0" y="112.0" width="124.0" height="78" rx="6" fill="#44d7b6" fill-opacity="0.12" stroke="#44d7b6" stroke-width="1.5" filter="url(#sd)"/>
    <g transform="translate(590.8,116.8) scale(0.55)"><circle cx="12" cy="24" r="8" fill="none" stroke="#44d7b6" stroke-width="1.2"/><line x1="20" y1="24" x2="44" y2="24" stroke="#44d7b6" stroke-width="1.2"/><line x1="28" y1="20" x2="28" y2="28" stroke="#44d7b6" stroke-width="1.2"/></g>
    <text x="604.0" y="162.0" text-anchor="middle" font-family='system-ui,-apple-system,Inter,sans-serif' fill="#e6ecf3" font-size="11px">Cookie Auto-Envoye</text>
    <text x="604.0" y="178.5" text-anchor="middle" font-family='system-ui,-apple-system,Inter,sans-serif' fill="#e6ecf3" font-size="11px">POST /change-password</text>
    <rect x="696.0" y="112.0" width="124.0" height="78" rx="6" fill="#ff9f43" fill-opacity="0.12" stroke="#ff9f43" stroke-width="1.5" filter="url(#sd)"/>
    <g transform="translate(744.8,116.8) scale(0.55)"><path d="M16 16 L16 10 Q16 4 24 4 Q32 4 32 10 L32 16" fill="none" stroke="#ff9f43" stroke-width="1.2"/><rect x="10" y="16" width="28" height="26" rx="3" fill="none" stroke="#ff9f43" stroke-width="1.2"/></g>
    <text x="758.0" y="162.0" text-anchor="middle" font-family='system-ui,-apple-system,Inter,sans-serif' fill="#e6ecf3" font-size="11px">Password Change</text>
    <text x="758.0" y="178.5" text-anchor="middle" font-family='system-ui,-apple-system,Inter,sans-serif' fill="#e6ecf3" font-size="11px">ATO Reussi</text>
</svg>