<svg xmlns='http://www.w3.org/2000/svg' viewBox='0 0 1400 300' width='1400' height='300'>
  <defs>
    <filter id="sd"><feDropShadow dx="0" dy="2" stdDeviation="3" flood-color="#000" flood-opacity="0.3"/></filter>
    <marker id="aR" viewBox="0 0 10 7" refX="9" refY="3.5" markerWidth="8" markerHeight="6" orient="auto"><polygon points="0 0,10 3.5,0 7" fill="#e63946"/></marker>
    <marker id="aB" viewBox="0 0 10 7" refX="9" refY="3.5" markerWidth="8" markerHeight="6" orient="auto"><polygon points="0 0,10 3.5,0 7" fill="#54a0ff"/></marker>
    <marker id="aO" viewBox="0 0 10 7" refX="9" refY="3.5" markerWidth="8" markerHeight="6" orient="auto"><polygon points="0 0,10 3.5,0 7" fill="#ff9f43"/></marker>
    <marker id="aG" viewBox="0 0 10 7" refX="9" refY="3.5" markerWidth="8" markerHeight="6" orient="auto"><polygon points="0 0,10 3.5,0 7" fill="#44d7b6"/></marker>
    <marker id="aP" viewBox="0 0 10 7" refX="9" refY="3.5" markerWidth="8" markerHeight="6" orient="auto"><polygon points="0 0,10 3.5,0 7" fill="#a55eea"/></marker>
    
  </defs>
  <rect width='1400' height='300' fill='#0a0e14' rx='10'/>
  <text x="40" y="36" text-anchor="start" font-family='system-ui,-apple-system,Inter,sans-serif' font-weight="600" fill="#e6ecf3" font-size="20px">Kill Chain Ransomware — 14 tactiques ATT&amp;CK</text>
    <line x1="40" y1="48" x2="280" y2="48" stroke="#e63946" stroke-width="2"/>
    <line x1="85.0" y1="132.0" x2="115.0" y2="132.0" stroke="#e63946" stroke-width="1.8" marker-end="url(#aR)" />
    <line x1="185.0" y1="132.0" x2="215.0" y2="132.0" stroke="#e63946" stroke-width="1.8" marker-end="url(#aB)" />
    <line x1="285.0" y1="132.0" x2="315.0" y2="132.0" stroke="#e63946" stroke-width="1.8" marker-end="url(#aO)" />
    <line x1="385.0" y1="132.0" x2="415.0" y2="132.0" stroke="#e63946" stroke-width="1.8" marker-end="url(#aG)" />
    <line x1="485.0" y1="132.0" x2="515.0" y2="132.0" stroke="#e63946" stroke-width="1.8" marker-end="url(#aP)" />
    <line x1="585.0" y1="132.0" x2="615.0" y2="132.0" stroke="#e63946" stroke-width="1.8" marker-end="url(#aR)" />
    <line x1="685.0" y1="132.0" x2="715.0" y2="132.0" stroke="#e63946" stroke-width="1.8" marker-end="url(#aB)" />
    <line x1="785.0" y1="132.0" x2="815.0" y2="132.0" stroke="#e63946" stroke-width="1.8" marker-end="url(#aO)" />
    <line x1="885.0" y1="132.0" x2="915.0" y2="132.0" stroke="#e63946" stroke-width="1.8" marker-end="url(#aR)" />
    <line x1="985.0" y1="132.0" x2="1015.0" y2="132.0" stroke="#e63946" stroke-width="1.8" marker-end="url(#aB)" />
    <line x1="1085.0" y1="132.0" x2="1115.0" y2="132.0" stroke="#e63946" stroke-width="1.8" marker-end="url(#aO)" />
    <line x1="1185.0" y1="132.0" x2="1215.0" y2="132.0" stroke="#e63946" stroke-width="1.8" marker-end="url(#aG)" />
    <line x1="1285.0" y1="132.0" x2="1315.0" y2="132.0" stroke="#e63946" stroke-width="1.8" marker-end="url(#aP)" />
    <rect x="15.0" y="92.0" width="70" height="78" rx="6" fill="#e63946" fill-opacity="0.12" stroke="#e63946" stroke-width="1.5" filter="url(#sd)"/>
    <g transform="translate(36.8,96.8) scale(0.55)"><circle cx="24" cy="24" r="20" fill="none" stroke="#e63946" stroke-width="1.2"/><ellipse cx="24" cy="24" rx="6" ry="20" fill="none" stroke="#e63946" stroke-width="0.8"/><line x1="4" y1="24" x2="44" y2="24" stroke="#e63946" stroke-width="0.8"/></g>
    <text x="50.0" y="150.0" text-anchor="middle" font-family='system-ui,-apple-system,Inter,sans-serif' fill="#e6ecf3" font-size="11px">Reconnaissance</text>
    <rect x="25.0" y="178.0" width="50" height="18" rx="4" fill="#131820" stroke="#e63946" stroke-width="0.8"/>
    <text x="50.0" y="191.0" text-anchor="middle" font-family='monospace' fill="#e63946" font-size="9px">TA0043</text>
    <rect x="115.0" y="92.0" width="70" height="78" rx="6" fill="#54a0ff" fill-opacity="0.12" stroke="#54a0ff" stroke-width="1.5" filter="url(#sd)"/>
    <g transform="translate(136.8,96.8) scale(0.55)"><path d="M6 10 L18 10 L22 16 L42 16 L42 38 L6 38 Z" fill="none" stroke="#54a0ff" stroke-width="1.2"/></g>
    <text x="150.0" y="142.0" text-anchor="middle" font-family='system-ui,-apple-system,Inter,sans-serif' fill="#e6ecf3" font-size="11px">Resource</text>
    <text x="150.0" y="158.5" text-anchor="middle" font-family='system-ui,-apple-system,Inter,sans-serif' fill="#e6ecf3" font-size="11px">Development</text>
    <rect x="125.0" y="178.0" width="50" height="18" rx="4" fill="#131820" stroke="#54a0ff" stroke-width="0.8"/>
    <text x="150.0" y="191.0" text-anchor="middle" font-family='monospace' fill="#54a0ff" font-size="9px">TA0042</text>
    <rect x="215.0" y="92.0" width="70" height="78" rx="6" fill="#a55eea" fill-opacity="0.12" stroke="#a55eea" stroke-width="1.5" filter="url(#sd)"/>
    <g transform="translate(236.8,96.8) scale(0.55)"><path d="M24 4 L28 16 L38 14 L32 22 L42 28 L30 32 L26 44 L22 32 L12 34 L18 24 L8 20 L20 18 Z" fill="none" stroke="#a55eea" stroke-width="1.2"/></g>
    <text x="250.0" y="142.0" text-anchor="middle" font-family='system-ui,-apple-system,Inter,sans-serif' fill="#e6ecf3" font-size="11px">Initial</text>
    <text x="250.0" y="158.5" text-anchor="middle" font-family='system-ui,-apple-system,Inter,sans-serif' fill="#e6ecf3" font-size="11px">Access</text>
    <rect x="225.0" y="178.0" width="50" height="18" rx="4" fill="#131820" stroke="#a55eea" stroke-width="0.8"/>
    <text x="250.0" y="191.0" text-anchor="middle" font-family='monospace' fill="#a55eea" font-size="9px">TA0001</text>
    <rect x="315.0" y="92.0" width="70" height="78" rx="6" fill="#44d7b6" fill-opacity="0.12" stroke="#44d7b6" stroke-width="1.5" filter="url(#sd)"/>
    <g transform="translate(336.8,96.8) scale(0.55)"><rect x="4" y="4" width="40" height="40" rx="4" fill="none" stroke="#44d7b6" stroke-width="1.2"/><text x="10" y="20" fill="#44d7b6" font-size="10" font-family="monospace">&gt;_</text><text x="10" y="34" fill="#44d7b6" font-size="8" font-family="monospace">~$</text></g>
    <text x="350.0" y="150.0" text-anchor="middle" font-family='system-ui,-apple-system,Inter,sans-serif' fill="#e6ecf3" font-size="11px">Execution</text>
    <rect x="325.0" y="178.0" width="50" height="18" rx="4" fill="#131820" stroke="#44d7b6" stroke-width="0.8"/>
    <text x="350.0" y="191.0" text-anchor="middle" font-family='monospace' fill="#44d7b6" font-size="9px">TA0002</text>
    <rect x="415.0" y="92.0" width="70" height="78" rx="6" fill="#ff9f43" fill-opacity="0.12" stroke="#ff9f43" stroke-width="1.5" filter="url(#sd)"/>
    <g transform="translate(436.8,96.8) scale(0.55)"><circle cx="12" cy="24" r="8" fill="none" stroke="#ff9f43" stroke-width="1.2"/><line x1="20" y1="24" x2="44" y2="24" stroke="#ff9f43" stroke-width="1.2"/><line x1="28" y1="20" x2="28" y2="28" stroke="#ff9f43" stroke-width="1.2"/></g>
    <text x="450.0" y="150.0" text-anchor="middle" font-family='system-ui,-apple-system,Inter,sans-serif' fill="#e6ecf3" font-size="11px">Persistence</text>
    <rect x="425.0" y="178.0" width="50" height="18" rx="4" fill="#131820" stroke="#ff9f43" stroke-width="0.8"/>
    <text x="450.0" y="191.0" text-anchor="middle" font-family='monospace' fill="#ff9f43" font-size="9px">TA0003</text>
    <rect x="515.0" y="92.0" width="70" height="78" rx="6" fill="#ff6b6b" fill-opacity="0.12" stroke="#ff6b6b" stroke-width="1.5" filter="url(#sd)"/>
    <g transform="translate(536.8,96.8) scale(0.55)"><path d="M16 16 L16 10 Q16 4 24 4 Q32 4 32 10 L32 16" fill="none" stroke="#ff6b6b" stroke-width="1.2"/><rect x="10" y="16" width="28" height="26" rx="3" fill="none" stroke="#ff6b6b" stroke-width="1.2"/></g>
    <text x="550.0" y="142.0" text-anchor="middle" font-family='system-ui,-apple-system,Inter,sans-serif' fill="#e6ecf3" font-size="11px">Privilege</text>
    <text x="550.0" y="158.5" text-anchor="middle" font-family='system-ui,-apple-system,Inter,sans-serif' fill="#e6ecf3" font-size="11px">Escalation</text>
    <rect x="525.0" y="178.0" width="50" height="18" rx="4" fill="#131820" stroke="#ff6b6b" stroke-width="0.8"/>
    <text x="550.0" y="191.0" text-anchor="middle" font-family='monospace' fill="#ff6b6b" font-size="9px">TA0004</text>
    <rect x="615.0" y="92.0" width="70" height="78" rx="6" fill="#54a0ff" fill-opacity="0.12" stroke="#54a0ff" stroke-width="1.5" filter="url(#sd)"/>
    <g transform="translate(636.8,96.8) scale(0.55)"><path d="M24 4 L44 12 L44 26 Q44 38 24 44 Q4 38 4 26 L4 12 Z" fill="none" stroke="#54a0ff" stroke-width="1.2"/></g>
    <text x="650.0" y="142.0" text-anchor="middle" font-family='system-ui,-apple-system,Inter,sans-serif' fill="#e6ecf3" font-size="11px">Defense</text>
    <text x="650.0" y="158.5" text-anchor="middle" font-family='system-ui,-apple-system,Inter,sans-serif' fill="#e6ecf3" font-size="11px">Evasion</text>
    <rect x="625.0" y="178.0" width="50" height="18" rx="4" fill="#131820" stroke="#54a0ff" stroke-width="0.8"/>
    <text x="650.0" y="191.0" text-anchor="middle" font-family='monospace' fill="#54a0ff" font-size="9px">TA0005</text>
    <rect x="715.0" y="92.0" width="70" height="78" rx="6" fill="#44d7b6" fill-opacity="0.12" stroke="#44d7b6" stroke-width="1.5" filter="url(#sd)"/>
    <g transform="translate(736.8,96.8) scale(0.55)"><circle cx="12" cy="24" r="8" fill="none" stroke="#44d7b6" stroke-width="1.2"/><line x1="20" y1="24" x2="44" y2="24" stroke="#44d7b6" stroke-width="1.2"/><line x1="28" y1="20" x2="28" y2="28" stroke="#44d7b6" stroke-width="1.2"/></g>
    <text x="750.0" y="142.0" text-anchor="middle" font-family='system-ui,-apple-system,Inter,sans-serif' fill="#e6ecf3" font-size="11px">Credential</text>
    <text x="750.0" y="158.5" text-anchor="middle" font-family='system-ui,-apple-system,Inter,sans-serif' fill="#e6ecf3" font-size="11px">Access</text>
    <rect x="725.0" y="178.0" width="50" height="18" rx="4" fill="#131820" stroke="#44d7b6" stroke-width="0.8"/>
    <text x="750.0" y="191.0" text-anchor="middle" font-family='monospace' fill="#44d7b6" font-size="9px">TA0006</text>
    <rect x="815.0" y="92.0" width="70" height="78" rx="6" fill="#e63946" fill-opacity="0.12" stroke="#e63946" stroke-width="1.5" filter="url(#sd)"/>
    <g transform="translate(836.8,96.8) scale(0.55)"><rect x="6" y="6" width="36" height="22" rx="2" fill="none" stroke="#e63946" stroke-width="1.2"/><path d="M2 40 L12 28 L36 28 L46 40 Z" fill="none" stroke="#e63946" stroke-width="1.2"/></g>
    <text x="850.0" y="150.0" text-anchor="middle" font-family='system-ui,-apple-system,Inter,sans-serif' fill="#e6ecf3" font-size="11px">Discovery</text>
    <rect x="825.0" y="178.0" width="50" height="18" rx="4" fill="#131820" stroke="#e63946" stroke-width="0.8"/>
    <text x="850.0" y="191.0" text-anchor="middle" font-family='monospace' fill="#e63946" font-size="9px">TA0007</text>
    <rect x="915.0" y="92.0" width="70" height="78" rx="6" fill="#54a0ff" fill-opacity="0.12" stroke="#54a0ff" stroke-width="1.5" filter="url(#sd)"/>
    <g transform="translate(936.8,96.8) scale(0.55)"><rect x="4" y="4" width="40" height="10" rx="1.5" fill="none" stroke="#54a0ff" stroke-width="1.2"/><rect x="4" y="18" width="40" height="10" rx="1.5" fill="none" stroke="#54a0ff" stroke-width="1.2"/><rect x="4" y="32" width="40" height="10" rx="1.5" fill="none" stroke="#54a0ff" stroke-width="1.2"/><circle cx="14" cy="9" r="2" fill="#44d7b6"/><circle cx="14" cy="23" r="2" fill="#44d7b6"/><circle cx="14" cy="37" r="2" fill="#44d7b6"/></g>
    <text x="950.0" y="142.0" text-anchor="middle" font-family='system-ui,-apple-system,Inter,sans-serif' fill="#e6ecf3" font-size="11px">Lateral</text>
    <text x="950.0" y="158.5" text-anchor="middle" font-family='system-ui,-apple-system,Inter,sans-serif' fill="#e6ecf3" font-size="11px">Movement</text>
    <rect x="925.0" y="178.0" width="50" height="18" rx="4" fill="#131820" stroke="#54a0ff" stroke-width="0.8"/>
    <text x="950.0" y="191.0" text-anchor="middle" font-family='monospace' fill="#54a0ff" font-size="9px">TA0008</text>
    <rect x="1015.0" y="92.0" width="70" height="78" rx="6" fill="#a55eea" fill-opacity="0.12" stroke="#a55eea" stroke-width="1.5" filter="url(#sd)"/>
    <g transform="translate(1036.8,96.8) scale(0.55)"><ellipse cx="24" cy="8" rx="20" ry="6" fill="none" stroke="#a55eea" stroke-width="1.2"/><path d="M4 8 L4 36" stroke="#a55eea" stroke-width="1.2"/><path d="M44 8 L44 36" stroke="#a55eea" stroke-width="1.2"/><ellipse cx="24" cy="36" rx="20" ry="6" fill="none" stroke="#a55eea" stroke-width="1.2"/><ellipse cx="24" cy="22" rx="20" ry="6" fill="none" stroke="#a55eea" stroke-width="1.2" stroke-dasharray="2 2"/></g>
    <text x="1050.0" y="150.0" text-anchor="middle" font-family='system-ui,-apple-system,Inter,sans-serif' fill="#e6ecf3" font-size="11px">Collection</text>
    <rect x="1025.0" y="178.0" width="50" height="18" rx="4" fill="#131820" stroke="#a55eea" stroke-width="0.8"/>
    <text x="1050.0" y="191.0" text-anchor="middle" font-family='monospace' fill="#a55eea" font-size="9px">TA0009</text>
    <rect x="1115.0" y="92.0" width="70" height="78" rx="6" fill="#44d7b6" fill-opacity="0.12" stroke="#44d7b6" stroke-width="1.5" filter="url(#sd)"/>
    <g transform="translate(1136.8,96.8) scale(0.55)"><path d="M10 34 Q10 18 22 14 Q30 4 38 14 Q46 6 48 18 Q54 12 52 22 Q58 28 52 34 Q48 40 32 40 L14 40 Q6 40 6 34 Z" fill="none" stroke="#44d7b6" stroke-width="1.2"/></g>
    <text x="1150.0" y="142.0" text-anchor="middle" font-family='system-ui,-apple-system,Inter,sans-serif' fill="#e6ecf3" font-size="11px">Command</text>
    <text x="1150.0" y="158.5" text-anchor="middle" font-family='system-ui,-apple-system,Inter,sans-serif' fill="#e6ecf3" font-size="11px">&amp; Control</text>
    <rect x="1125.0" y="178.0" width="50" height="18" rx="4" fill="#131820" stroke="#44d7b6" stroke-width="0.8"/>
    <text x="1150.0" y="191.0" text-anchor="middle" font-family='monospace' fill="#44d7b6" font-size="9px">TA0011</text>
    <rect x="1215.0" y="92.0" width="70" height="78" rx="6" fill="#ff9f43" fill-opacity="0.12" stroke="#ff9f43" stroke-width="1.5" filter="url(#sd)"/>
    <g transform="translate(1236.8,96.8) scale(0.55)"><rect x="4" y="6" width="40" height="32" rx="4" fill="none" stroke="#ff9f43" stroke-width="1.2"/><path d="M6 8 L24 24 L42 8" fill="none" stroke="#ff9f43" stroke-width="1.2"/></g>
    <text x="1250.0" y="150.0" text-anchor="middle" font-family='system-ui,-apple-system,Inter,sans-serif' fill="#e6ecf3" font-size="11px">Exfiltration</text>
    <rect x="1225.0" y="178.0" width="50" height="18" rx="4" fill="#131820" stroke="#ff9f43" stroke-width="0.8"/>
    <text x="1250.0" y="191.0" text-anchor="middle" font-family='monospace' fill="#ff9f43" font-size="9px">TA0010</text>
    <rect x="1315.0" y="92.0" width="70" height="78" rx="6" fill="#ff6b6b" fill-opacity="0.12" stroke="#ff6b6b" stroke-width="1.5" filter="url(#sd)"/>
    <g transform="translate(1336.8,96.8) scale(0.55)"><path d="M24 4 L28 16 L38 14 L32 22 L42 28 L30 32 L26 44 L22 32 L12 34 L18 24 L8 20 L20 18 Z" fill="none" stroke="#ff6b6b" stroke-width="1.2"/></g>
    <text x="1350.0" y="150.0" text-anchor="middle" font-family='system-ui,-apple-system,Inter,sans-serif' fill="#e6ecf3" font-size="11px">Impact</text>
    <rect x="1325.0" y="178.0" width="50" height="18" rx="4" fill="#131820" stroke="#ff6b6b" stroke-width="0.8"/>
    <text x="1350.0" y="191.0" text-anchor="middle" font-family='monospace' fill="#ff6b6b" font-size="9px">TA0040</text>
</svg>