<svg xmlns='http://www.w3.org/2000/svg' viewBox='0 0 960 500' width='960' height='500'>
  <defs>
    <filter id="sd"><feDropShadow dx="0" dy="2" stdDeviation="3" flood-color="#000" flood-opacity="0.3"/></filter>
    <marker id="aR" viewBox="0 0 10 7" refX="9" refY="3.5" markerWidth="8" markerHeight="6" orient="auto"><polygon points="0 0,10 3.5,0 7" fill="#e63946"/></marker>
    <marker id="aB" viewBox="0 0 10 7" refX="9" refY="3.5" markerWidth="8" markerHeight="6" orient="auto"><polygon points="0 0,10 3.5,0 7" fill="#54a0ff"/></marker>
    <marker id="aO" viewBox="0 0 10 7" refX="9" refY="3.5" markerWidth="8" markerHeight="6" orient="auto"><polygon points="0 0,10 3.5,0 7" fill="#ff9f43"/></marker>
    <marker id="aG" viewBox="0 0 10 7" refX="9" refY="3.5" markerWidth="8" markerHeight="6" orient="auto"><polygon points="0 0,10 3.5,0 7" fill="#44d7b6"/></marker>
    <marker id="aP" viewBox="0 0 10 7" refX="9" refY="3.5" markerWidth="8" markerHeight="6" orient="auto"><polygon points="0 0,10 3.5,0 7" fill="#a55eea"/></marker>
    
  </defs>
  <rect width='960' height='500' fill='#0a0e14' rx='10'/>
  <text x="40" y="36" text-anchor="start" font-family='system-ui,-apple-system,Inter,sans-serif' font-weight="600" fill="#e6ecf3" font-size="20px">Mapping LID → Tactiques ATT&amp;CK</text>
    <line x1="40" y1="48" x2="280" y2="48" stroke="#e63946" stroke-width="2"/>
    <rect x="380.0" y="45" width="200" height="44" rx="6" fill="#e63946" fill-opacity="0.12" stroke="#e63946" stroke-width="1.5" filter="url(#sd)"/>
    <text x="480.0" y="72" text-anchor="middle" font-family='system-ui,-apple-system,Inter,sans-serif' font-weight='600' fill="#e6ecf3" font-size="14px">LID — Lutte Informatique Défensive</text>
    <line x1="480.0" y1="89" x2="260.0" y2="138" stroke="#1e2d3d" stroke-width="1.2" />
    <rect x="170.0" y="140" width="180" height="40" rx="6" fill="#54a0ff" fill-opacity="0.12" stroke="#54a0ff" stroke-width="1.5" filter="url(#sd)"/>
    <text x="260.0" y="165" text-anchor="middle" font-family='system-ui,-apple-system,Inter,sans-serif' fill="#e6ecf3" font-size="12px">Protection</text>
    <line x1="260.0" y1="180" x2="192.5" y2="234" stroke="#1e2d3d" stroke-width="1" />
    <rect x="124.5" y="238" width="136" height="26" rx="6" fill="#54a0ff" fill-opacity="0.12" stroke="#54a0ff" stroke-width="1.5" filter="url(#sd)"/>
    <text x="192.5" y="256" text-anchor="middle" font-family='system-ui,-apple-system,Inter,sans-serif' fill="#6b7a8d" font-size="10px">Initial Access (TA0001)</text>
    <line x1="260.0" y1="180" x2="237.5" y2="234" stroke="#1e2d3d" stroke-width="1" />
    <rect x="169.5" y="238" width="136" height="26" rx="6" fill="#44d7b6" fill-opacity="0.12" stroke="#44d7b6" stroke-width="1.5" filter="url(#sd)"/>
    <text x="237.5" y="256" text-anchor="middle" font-family='system-ui,-apple-system,Inter,sans-serif' fill="#6b7a8d" font-size="10px">Persistence (TA0003)</text>
    <line x1="260.0" y1="180" x2="282.5" y2="234" stroke="#1e2d3d" stroke-width="1" />
    <rect x="214.5" y="238" width="136" height="26" rx="6" fill="#a55eea" fill-opacity="0.12" stroke="#a55eea" stroke-width="1.5" filter="url(#sd)"/>
    <text x="282.5" y="256" text-anchor="middle" font-family='system-ui,-apple-system,Inter,sans-serif' fill="#6b7a8d" font-size="10px">Privilege Escalation (TA0004)</text>
    <line x1="260.0" y1="180" x2="327.5" y2="234" stroke="#1e2d3d" stroke-width="1" />
    <rect x="259.5" y="238" width="136" height="26" rx="6" fill="#ff9f43" fill-opacity="0.12" stroke="#ff9f43" stroke-width="1.5" filter="url(#sd)"/>
    <text x="327.5" y="256" text-anchor="middle" font-family='system-ui,-apple-system,Inter,sans-serif' fill="#6b7a8d" font-size="10px">Defense Evasion (TA0005)</text>
    <line x1="480.0" y1="89" x2="480.0" y2="138" stroke="#1e2d3d" stroke-width="1.2" />
    <rect x="390.0" y="140" width="180" height="40" rx="6" fill="#44d7b6" fill-opacity="0.12" stroke="#44d7b6" stroke-width="1.5" filter="url(#sd)"/>
    <text x="480.0" y="165" text-anchor="middle" font-family='system-ui,-apple-system,Inter,sans-serif' fill="#e6ecf3" font-size="12px">Détection</text>
    <line x1="480.0" y1="180" x2="412.5" y2="234" stroke="#1e2d3d" stroke-width="1" />
    <rect x="344.5" y="238" width="136" height="26" rx="6" fill="#44d7b6" fill-opacity="0.12" stroke="#44d7b6" stroke-width="1.5" filter="url(#sd)"/>
    <text x="412.5" y="256" text-anchor="middle" font-family='system-ui,-apple-system,Inter,sans-serif' fill="#6b7a8d" font-size="10px">Discovery (TA0007)</text>
    <line x1="480.0" y1="180" x2="457.5" y2="234" stroke="#1e2d3d" stroke-width="1" />
    <rect x="389.5" y="238" width="136" height="26" rx="6" fill="#a55eea" fill-opacity="0.12" stroke="#a55eea" stroke-width="1.5" filter="url(#sd)"/>
    <text x="457.5" y="256" text-anchor="middle" font-family='system-ui,-apple-system,Inter,sans-serif' fill="#6b7a8d" font-size="10px">Lateral Movement (TA0008)</text>
    <line x1="480.0" y1="180" x2="502.5" y2="234" stroke="#1e2d3d" stroke-width="1" />
    <rect x="434.5" y="238" width="136" height="26" rx="6" fill="#ff9f43" fill-opacity="0.12" stroke="#ff9f43" stroke-width="1.5" filter="url(#sd)"/>
    <text x="502.5" y="256" text-anchor="middle" font-family='system-ui,-apple-system,Inter,sans-serif' fill="#6b7a8d" font-size="10px">Collection (TA0009)</text>
    <line x1="480.0" y1="180" x2="547.5" y2="234" stroke="#1e2d3d" stroke-width="1" />
    <rect x="479.5" y="238" width="136" height="26" rx="6" fill="#e63946" fill-opacity="0.12" stroke="#e63946" stroke-width="1.5" filter="url(#sd)"/>
    <text x="547.5" y="256" text-anchor="middle" font-family='system-ui,-apple-system,Inter,sans-serif' fill="#6b7a8d" font-size="10px">Command &amp; Control (TA0011)</text>
    <line x1="480.0" y1="89" x2="700.0" y2="138" stroke="#1e2d3d" stroke-width="1.2" />
    <rect x="610.0" y="140" width="180" height="40" rx="6" fill="#a55eea" fill-opacity="0.12" stroke="#a55eea" stroke-width="1.5" filter="url(#sd)"/>
    <text x="700.0" y="165" text-anchor="middle" font-family='system-ui,-apple-system,Inter,sans-serif' fill="#e6ecf3" font-size="12px">Réaction</text>
    <line x1="700.0" y1="180" x2="655.0" y2="234" stroke="#1e2d3d" stroke-width="1" />
    <rect x="587.0" y="238" width="136" height="26" rx="6" fill="#a55eea" fill-opacity="0.12" stroke="#a55eea" stroke-width="1.5" filter="url(#sd)"/>
    <text x="655.0" y="256" text-anchor="middle" font-family='system-ui,-apple-system,Inter,sans-serif' fill="#6b7a8d" font-size="10px">Exfiltration (TA0010)</text>
    <line x1="700.0" y1="180" x2="745.0" y2="234" stroke="#1e2d3d" stroke-width="1" />
    <rect x="677.0" y="238" width="136" height="26" rx="6" fill="#ff9f43" fill-opacity="0.12" stroke="#ff9f43" stroke-width="1.5" filter="url(#sd)"/>
    <text x="745.0" y="256" text-anchor="middle" font-family='system-ui,-apple-system,Inter,sans-serif' fill="#6b7a8d" font-size="10px">Impact (TA0040)</text>
</svg>