<svg xmlns='http://www.w3.org/2000/svg' viewBox='0 0 960 500' width='960' height='500'>
  <defs>
    <filter id="sd"><feDropShadow dx="0" dy="2" stdDeviation="3" flood-color="#000" flood-opacity="0.3"/></filter>
    <marker id="aR" viewBox="0 0 10 7" refX="9" refY="3.5" markerWidth="8" markerHeight="6" orient="auto"><polygon points="0 0,10 3.5,0 7" fill="#e63946"/></marker>
    <marker id="aB" viewBox="0 0 10 7" refX="9" refY="3.5" markerWidth="8" markerHeight="6" orient="auto"><polygon points="0 0,10 3.5,0 7" fill="#54a0ff"/></marker>
    <marker id="aO" viewBox="0 0 10 7" refX="9" refY="3.5" markerWidth="8" markerHeight="6" orient="auto"><polygon points="0 0,10 3.5,0 7" fill="#ff9f43"/></marker>
    <marker id="aG" viewBox="0 0 10 7" refX="9" refY="3.5" markerWidth="8" markerHeight="6" orient="auto"><polygon points="0 0,10 3.5,0 7" fill="#44d7b6"/></marker>
    <marker id="aP" viewBox="0 0 10 7" refX="9" refY="3.5" markerWidth="8" markerHeight="6" orient="auto"><polygon points="0 0,10 3.5,0 7" fill="#a55eea"/></marker>
    
  </defs>
  <rect width='960' height='500' fill='#0a0e14' rx='10'/>
  <text x="40" y="36" text-anchor="start" font-family='system-ui,-apple-system,Inter,sans-serif' font-weight="600" fill="#e6ecf3" font-size="20px">Hiérarchie ATT&amp;CK</text>
    <line x1="40" y1="48" x2="280" y2="48" stroke="#e63946" stroke-width="2"/>
    <rect x="380.0" y="45" width="200" height="44" rx="6" fill="#e63946" fill-opacity="0.12" stroke="#e63946" stroke-width="1.5" filter="url(#sd)"/>
    <text x="480.0" y="72" text-anchor="middle" font-family='system-ui,-apple-system,Inter,sans-serif' font-weight='600' fill="#e6ecf3" font-size="14px">ATT&amp;CK</text>
    <line x1="480.0" y1="89" x2="157.5" y2="138" stroke="#1e2d3d" stroke-width="1.2" />
    <rect x="67.5" y="140" width="180" height="40" rx="6" fill="#54a0ff" fill-opacity="0.12" stroke="#54a0ff" stroke-width="1.5" filter="url(#sd)"/>
    <text x="157.5" y="165" text-anchor="middle" font-family='system-ui,-apple-system,Inter,sans-serif' fill="#e6ecf3" font-size="12px">Tactiques</text>
    <rect x="207.5" y="142" width="55" height="18" rx="4" fill="#131820" stroke="#54a0ff" stroke-width="0.8"/>
    <text x="235.0" y="155" text-anchor="middle" font-family='monospace' fill="#54a0ff" font-size="9px">14</text>
    <line x1="157.5" y1="180" x2="113.75" y2="234" stroke="#1e2d3d" stroke-width="1" />
    <rect x="45.75" y="238" width="136" height="26" rx="6" fill="#54a0ff" fill-opacity="0.12" stroke="#54a0ff" stroke-width="1.5" filter="url(#sd)"/>
    <text x="113.75" y="256" text-anchor="middle" font-family='system-ui,-apple-system,Inter,sans-serif' fill="#6b7a8d" font-size="10px">Objectif stratégique de l'attaquant</text>
    <line x1="157.5" y1="180" x2="201.25" y2="234" stroke="#1e2d3d" stroke-width="1" />
    <rect x="133.25" y="238" width="136" height="26" rx="6" fill="#44d7b6" fill-opacity="0.12" stroke="#44d7b6" stroke-width="1.5" filter="url(#sd)"/>
    <text x="201.25" y="256" text-anchor="middle" font-family='system-ui,-apple-system,Inter,sans-serif' fill="#6b7a8d" font-size="10px">Ex: Persistence (TA0003)</text>
    <line x1="480.0" y1="89" x2="372.5" y2="138" stroke="#1e2d3d" stroke-width="1.2" />
    <rect x="282.5" y="140" width="180" height="40" rx="6" fill="#44d7b6" fill-opacity="0.12" stroke="#44d7b6" stroke-width="1.5" filter="url(#sd)"/>
    <text x="372.5" y="165" text-anchor="middle" font-family='system-ui,-apple-system,Inter,sans-serif' fill="#e6ecf3" font-size="12px">Techniques</text>
    <rect x="422.5" y="142" width="55" height="18" rx="4" fill="#131820" stroke="#44d7b6" stroke-width="0.8"/>
    <text x="450.0" y="155" text-anchor="middle" font-family='monospace' fill="#44d7b6" font-size="9px">200+</text>
    <line x1="372.5" y1="180" x2="328.75" y2="234" stroke="#1e2d3d" stroke-width="1" />
    <rect x="260.75" y="238" width="136" height="26" rx="6" fill="#44d7b6" fill-opacity="0.12" stroke="#44d7b6" stroke-width="1.5" filter="url(#sd)"/>
    <text x="328.75" y="256" text-anchor="middle" font-family='system-ui,-apple-system,Inter,sans-serif' fill="#6b7a8d" font-size="10px">Action spécifique pour atteindre une tactique</text>
    <line x1="372.5" y1="180" x2="416.25" y2="234" stroke="#1e2d3d" stroke-width="1" />
    <rect x="348.25" y="238" width="136" height="26" rx="6" fill="#a55eea" fill-opacity="0.12" stroke="#a55eea" stroke-width="1.5" filter="url(#sd)"/>
    <text x="416.25" y="256" text-anchor="middle" font-family='system-ui,-apple-system,Inter,sans-serif' fill="#6b7a8d" font-size="10px">Ex: T1505 (Server Software Component)</text>
    <line x1="480.0" y1="89" x2="587.5" y2="138" stroke="#1e2d3d" stroke-width="1.2" />
    <rect x="497.5" y="140" width="180" height="40" rx="6" fill="#a55eea" fill-opacity="0.12" stroke="#a55eea" stroke-width="1.5" filter="url(#sd)"/>
    <text x="587.5" y="165" text-anchor="middle" font-family='system-ui,-apple-system,Inter,sans-serif' fill="#e6ecf3" font-size="12px">Sous-techniques</text>
    <rect x="637.5" y="142" width="55" height="18" rx="4" fill="#131820" stroke="#a55eea" stroke-width="0.8"/>
    <text x="665.0" y="155" text-anchor="middle" font-family='monospace' fill="#a55eea" font-size="9px">400+</text>
    <line x1="587.5" y1="180" x2="543.75" y2="234" stroke="#1e2d3d" stroke-width="1" />
    <rect x="475.75" y="238" width="136" height="26" rx="6" fill="#a55eea" fill-opacity="0.12" stroke="#a55eea" stroke-width="1.5" filter="url(#sd)"/>
    <text x="543.75" y="256" text-anchor="middle" font-family='system-ui,-apple-system,Inter,sans-serif' fill="#6b7a8d" font-size="10px">Variante contextuelle d'une technique</text>
    <line x1="587.5" y1="180" x2="631.25" y2="234" stroke="#1e2d3d" stroke-width="1" />
    <rect x="563.25" y="238" width="136" height="26" rx="6" fill="#ff9f43" fill-opacity="0.12" stroke="#ff9f43" stroke-width="1.5" filter="url(#sd)"/>
    <text x="631.25" y="256" text-anchor="middle" font-family='system-ui,-apple-system,Inter,sans-serif' fill="#6b7a8d" font-size="10px">Ex: T1505.003 (Web Shell)</text>
    <line x1="480.0" y1="89" x2="802.5" y2="138" stroke="#1e2d3d" stroke-width="1.2" />
    <rect x="712.5" y="140" width="180" height="40" rx="6" fill="#ff9f43" fill-opacity="0.12" stroke="#ff9f43" stroke-width="1.5" filter="url(#sd)"/>
    <text x="802.5" y="165" text-anchor="middle" font-family='system-ui,-apple-system,Inter,sans-serif' fill="#e6ecf3" font-size="12px">Procédures</text>
    <line x1="802.5" y1="180" x2="758.75" y2="234" stroke="#1e2d3d" stroke-width="1" />
    <rect x="690.75" y="238" width="136" height="26" rx="6" fill="#ff9f43" fill-opacity="0.12" stroke="#ff9f43" stroke-width="1.5" filter="url(#sd)"/>
    <text x="758.75" y="256" text-anchor="middle" font-family='system-ui,-apple-system,Inter,sans-serif' fill="#6b7a8d" font-size="10px">Implémentation concrète par un attaquant</text>
    <line x1="802.5" y1="180" x2="846.25" y2="234" stroke="#1e2d3d" stroke-width="1" />
    <rect x="778.25" y="238" width="136" height="26" rx="6" fill="#e63946" fill-opacity="0.12" stroke="#e63946" stroke-width="1.5" filter="url(#sd)"/>
    <text x="846.25" y="256" text-anchor="middle" font-family='system-ui,-apple-system,Inter,sans-serif' fill="#6b7a8d" font-size="10px">Ex: Webshell PHP obfusqué</text>
</svg>