<svg xmlns='http://www.w3.org/2000/svg' viewBox='0 0 960 500' width='960' height='500'>
  <defs>
    <filter id="sd"><feDropShadow dx="0" dy="2" stdDeviation="3" flood-color="#000" flood-opacity="0.3"/></filter>
    <marker id="aR" viewBox="0 0 10 7" refX="9" refY="3.5" markerWidth="8" markerHeight="6" orient="auto"><polygon points="0 0,10 3.5,0 7" fill="#e63946"/></marker>
    <marker id="aB" viewBox="0 0 10 7" refX="9" refY="3.5" markerWidth="8" markerHeight="6" orient="auto"><polygon points="0 0,10 3.5,0 7" fill="#54a0ff"/></marker>
    <marker id="aO" viewBox="0 0 10 7" refX="9" refY="3.5" markerWidth="8" markerHeight="6" orient="auto"><polygon points="0 0,10 3.5,0 7" fill="#ff9f43"/></marker>
    <marker id="aG" viewBox="0 0 10 7" refX="9" refY="3.5" markerWidth="8" markerHeight="6" orient="auto"><polygon points="0 0,10 3.5,0 7" fill="#44d7b6"/></marker>
    <marker id="aP" viewBox="0 0 10 7" refX="9" refY="3.5" markerWidth="8" markerHeight="6" orient="auto"><polygon points="0 0,10 3.5,0 7" fill="#a55eea"/></marker>
    
  </defs>
  <rect width='960' height='500' fill='#0a0e14' rx='10'/>
  <text x="40" y="36" text-anchor="start" font-family='system-ui,-apple-system,Inter,sans-serif' font-weight="600" fill="#e6ecf3" font-size="20px">Structure du livrable Red Team</text>
    <line x1="40" y1="48" x2="280" y2="48" stroke="#e63946" stroke-width="2"/>
    <rect x="380.0" y="45" width="200" height="44" rx="6" fill="#e63946" fill-opacity="0.12" stroke="#e63946" stroke-width="1.5" filter="url(#sd)"/>
    <text x="480.0" y="72" text-anchor="middle" font-family='system-ui,-apple-system,Inter,sans-serif' font-weight='600' fill="#e6ecf3" font-size="14px">Livrable Red Team — BanX</text>
    <line x1="480.0" y1="89" x2="136.0" y2="138" stroke="#1e2d3d" stroke-width="1.2" />
    <rect x="46.0" y="140" width="180" height="40" rx="6" fill="#54a0ff" fill-opacity="0.12" stroke="#54a0ff" stroke-width="1.5" filter="url(#sd)"/>
    <text x="136.0" y="165" text-anchor="middle" font-family='system-ui,-apple-system,Inter,sans-serif' fill="#e6ecf3" font-size="12px">Rapport Exécutif</text>
    <rect x="186.0" y="142" width="55" height="18" rx="4" fill="#131820" stroke="#54a0ff" stroke-width="0.8"/>
    <text x="213.5" y="155" text-anchor="middle" font-family='monospace' fill="#54a0ff" font-size="9px">PDF</text>
    <line x1="136.0" y1="180" x2="103.0" y2="234" stroke="#1e2d3d" stroke-width="1" />
    <rect x="35.0" y="238" width="136" height="26" rx="6" fill="#54a0ff" fill-opacity="0.12" stroke="#54a0ff" stroke-width="1.5" filter="url(#sd)"/>
    <text x="103.0" y="256" text-anchor="middle" font-family='system-ui,-apple-system,Inter,sans-serif' fill="#6b7a8d" font-size="10px">Synthèse 2-3 pages</text>
    <line x1="136.0" y1="180" x2="169.0" y2="234" stroke="#1e2d3d" stroke-width="1" />
    <rect x="101.0" y="238" width="136" height="26" rx="6" fill="#44d7b6" fill-opacity="0.12" stroke="#44d7b6" stroke-width="1.5" filter="url(#sd)"/>
    <text x="169.0" y="256" text-anchor="middle" font-family='system-ui,-apple-system,Inter,sans-serif' fill="#6b7a8d" font-size="10px">Heat map globale</text>
    <line x1="480.0" y1="89" x2="308.0" y2="138" stroke="#1e2d3d" stroke-width="1.2" />
    <rect x="218.0" y="140" width="180" height="40" rx="6" fill="#44d7b6" fill-opacity="0.12" stroke="#44d7b6" stroke-width="1.5" filter="url(#sd)"/>
    <text x="308.0" y="165" text-anchor="middle" font-family='system-ui,-apple-system,Inter,sans-serif' fill="#e6ecf3" font-size="12px">Rapport Technique</text>
    <rect x="358.0" y="142" width="55" height="18" rx="4" fill="#131820" stroke="#44d7b6" stroke-width="0.8"/>
    <text x="385.5" y="155" text-anchor="middle" font-family='monospace' fill="#44d7b6" font-size="9px">PDF</text>
    <line x1="308.0" y1="180" x2="275.0" y2="234" stroke="#1e2d3d" stroke-width="1" />
    <rect x="207.0" y="238" width="136" height="26" rx="6" fill="#44d7b6" fill-opacity="0.12" stroke="#44d7b6" stroke-width="1.5" filter="url(#sd)"/>
    <text x="275.0" y="256" text-anchor="middle" font-family='system-ui,-apple-system,Inter,sans-serif' fill="#6b7a8d" font-size="10px">Liste exhaustive des TTPs</text>
    <line x1="308.0" y1="180" x2="341.0" y2="234" stroke="#1e2d3d" stroke-width="1" />
    <rect x="273.0" y="238" width="136" height="26" rx="6" fill="#a55eea" fill-opacity="0.12" stroke="#a55eea" stroke-width="1.5" filter="url(#sd)"/>
    <text x="341.0" y="256" text-anchor="middle" font-family='system-ui,-apple-system,Inter,sans-serif' fill="#6b7a8d" font-size="10px">Gap analysis détaillée</text>
    <line x1="480.0" y1="89" x2="480.0" y2="138" stroke="#1e2d3d" stroke-width="1.2" />
    <rect x="390.0" y="140" width="180" height="40" rx="6" fill="#a55eea" fill-opacity="0.12" stroke="#a55eea" stroke-width="1.5" filter="url(#sd)"/>
    <text x="480.0" y="165" text-anchor="middle" font-family='system-ui,-apple-system,Inter,sans-serif' fill="#e6ecf3" font-size="12px">Heat Map ATT&amp;CK</text>
    <rect x="530.0" y="142" width="55" height="18" rx="4" fill="#131820" stroke="#a55eea" stroke-width="0.8"/>
    <text x="557.5" y="155" text-anchor="middle" font-family='monospace' fill="#a55eea" font-size="9px">JSON</text>
    <line x1="480.0" y1="180" x2="447.0" y2="234" stroke="#1e2d3d" stroke-width="1" />
    <rect x="379.0" y="238" width="136" height="26" rx="6" fill="#a55eea" fill-opacity="0.12" stroke="#a55eea" stroke-width="1.5" filter="url(#sd)"/>
    <text x="447.0" y="256" text-anchor="middle" font-family='system-ui,-apple-system,Inter,sans-serif' fill="#6b7a8d" font-size="10px">Couche Navigator annotée</text>
    <line x1="480.0" y1="180" x2="513.0" y2="234" stroke="#1e2d3d" stroke-width="1" />
    <rect x="445.0" y="238" width="136" height="26" rx="6" fill="#ff9f43" fill-opacity="0.12" stroke="#ff9f43" stroke-width="1.5" filter="url(#sd)"/>
    <text x="513.0" y="256" text-anchor="middle" font-family='system-ui,-apple-system,Inter,sans-serif' fill="#6b7a8d" font-size="10px">Scores et commentaires</text>
    <line x1="480.0" y1="89" x2="652.0" y2="138" stroke="#1e2d3d" stroke-width="1.2" />
    <rect x="562.0" y="140" width="180" height="40" rx="6" fill="#ff9f43" fill-opacity="0.12" stroke="#ff9f43" stroke-width="1.5" filter="url(#sd)"/>
    <text x="652.0" y="165" text-anchor="middle" font-family='system-ui,-apple-system,Inter,sans-serif' fill="#e6ecf3" font-size="12px">Règles de Détection</text>
    <rect x="702.0" y="142" width="55" height="18" rx="4" fill="#131820" stroke="#ff9f43" stroke-width="0.8"/>
    <text x="729.5" y="155" text-anchor="middle" font-family='monospace' fill="#ff9f43" font-size="9px">Sigma</text>
    <line x1="652.0" y1="180" x2="619.0" y2="234" stroke="#1e2d3d" stroke-width="1" />
    <rect x="551.0" y="238" width="136" height="26" rx="6" fill="#ff9f43" fill-opacity="0.12" stroke="#ff9f43" stroke-width="1.5" filter="url(#sd)"/>
    <text x="619.0" y="256" text-anchor="middle" font-family='system-ui,-apple-system,Inter,sans-serif' fill="#6b7a8d" font-size="10px">Règles Sigma par technique</text>
    <line x1="652.0" y1="180" x2="685.0" y2="234" stroke="#1e2d3d" stroke-width="1" />
    <rect x="617.0" y="238" width="136" height="26" rx="6" fill="#e63946" fill-opacity="0.12" stroke="#e63946" stroke-width="1.5" filter="url(#sd)"/>
    <text x="685.0" y="256" text-anchor="middle" font-family='system-ui,-apple-system,Inter,sans-serif' fill="#6b7a8d" font-size="10px">Config SIEM / EDR</text>
    <line x1="480.0" y1="89" x2="824.0" y2="138" stroke="#1e2d3d" stroke-width="1.2" />
    <rect x="734.0" y="140" width="180" height="40" rx="6" fill="#e63946" fill-opacity="0.12" stroke="#e63946" stroke-width="1.5" filter="url(#sd)"/>
    <text x="824.0" y="165" text-anchor="middle" font-family='system-ui,-apple-system,Inter,sans-serif' fill="#e6ecf3" font-size="12px">Preuves Techniques</text>
    <rect x="874.0" y="142" width="55" height="18" rx="4" fill="#131820" stroke="#e63946" stroke-width="0.8"/>
    <text x="901.5" y="155" text-anchor="middle" font-family='monospace' fill="#e63946" font-size="9px">Logs</text>
    <line x1="824.0" y1="180" x2="780.0" y2="234" stroke="#1e2d3d" stroke-width="1" />
    <rect x="712.0" y="238" width="136" height="26" rx="6" fill="#e63946" fill-opacity="0.12" stroke="#e63946" stroke-width="1.5" filter="url(#sd)"/>
    <text x="780.0" y="256" text-anchor="middle" font-family='system-ui,-apple-system,Inter,sans-serif' fill="#6b7a8d" font-size="10px">Captures d'écran</text>
    <line x1="824.0" y1="180" x2="824.0" y2="234" stroke="#1e2d3d" stroke-width="1" />
    <rect x="756.0" y="238" width="136" height="26" rx="6" fill="#54a0ff" fill-opacity="0.12" stroke="#54a0ff" stroke-width="1.5" filter="url(#sd)"/>
    <text x="824.0" y="256" text-anchor="middle" font-family='system-ui,-apple-system,Inter,sans-serif' fill="#6b7a8d" font-size="10px">Logs d'exécution</text>
    <line x1="824.0" y1="180" x2="868.0" y2="234" stroke="#1e2d3d" stroke-width="1" />
    <rect x="800.0" y="238" width="136" height="26" rx="6" fill="#44d7b6" fill-opacity="0.12" stroke="#44d7b6" stroke-width="1.5" filter="url(#sd)"/>
    <text x="868.0" y="256" text-anchor="middle" font-family='system-ui,-apple-system,Inter,sans-serif' fill="#6b7a8d" font-size="10px">Timeline d'attaque</text>
</svg>