<svg xmlns='http://www.w3.org/2000/svg' viewBox='0 0 960 380' width='960' height='380'>
  <defs>
    <filter id="sd"><feDropShadow dx="0" dy="2" stdDeviation="3" flood-color="#000" flood-opacity="0.3"/></filter>
    <marker id="aR" viewBox="0 0 10 7" refX="9" refY="3.5" markerWidth="8" markerHeight="6" orient="auto"><polygon points="0 0,10 3.5,0 7" fill="#e63946"/></marker>
    <marker id="aB" viewBox="0 0 10 7" refX="9" refY="3.5" markerWidth="8" markerHeight="6" orient="auto"><polygon points="0 0,10 3.5,0 7" fill="#54a0ff"/></marker>
    <marker id="aO" viewBox="0 0 10 7" refX="9" refY="3.5" markerWidth="8" markerHeight="6" orient="auto"><polygon points="0 0,10 3.5,0 7" fill="#ff9f43"/></marker>
    <marker id="aG" viewBox="0 0 10 7" refX="9" refY="3.5" markerWidth="8" markerHeight="6" orient="auto"><polygon points="0 0,10 3.5,0 7" fill="#44d7b6"/></marker>
    <marker id="aP" viewBox="0 0 10 7" refX="9" refY="3.5" markerWidth="8" markerHeight="6" orient="auto"><polygon points="0 0,10 3.5,0 7" fill="#a55eea"/></marker>
    
  </defs>
  <rect width='960' height='380' fill='#0a0e14' rx='10'/>
  <text x="40" y="36" text-anchor="start" font-family='system-ui,-apple-system,Inter,sans-serif' font-weight="600" fill="#e6ecf3" font-size="20px">TOCTOU — Time-of-Check vs Time-of-Use</text>
    <line x1="40" y1="48" x2="280" y2="48" stroke="#e63946" stroke-width="2"/>
    <line x1="216.0" y1="172.0" x2="246.0" y2="172.0" stroke="#e63946" stroke-width="1.8" marker-end="url(#aR)" />
    <line x1="382.0" y1="172.0" x2="412.0" y2="172.0" stroke="#e63946" stroke-width="1.8" marker-end="url(#aB)" />
    <line x1="548.0" y1="172.0" x2="578.0" y2="172.0" stroke="#e63946" stroke-width="1.8" marker-end="url(#aO)" />
    <line x1="714.0" y1="172.0" x2="744.0" y2="172.0" stroke="#e63946" stroke-width="1.8" marker-end="url(#aG)" />
    <rect x="80.0" y="132.0" width="136.0" height="78" rx="6" fill="#e63946" fill-opacity="0.12" stroke="#e63946" stroke-width="1.5" filter="url(#sd)"/>
    <g transform="translate(134.8,136.8) scale(0.55)"><circle cx="24" cy="12" r="8" fill="none" stroke="#e63946" stroke-width="1.2"/><path d="M8 38 Q8 22 24 22 Q40 22 40 38" fill="none" stroke="#e63946" stroke-width="1.2"/></g>
    <text x="148.0" y="182.0" text-anchor="middle" font-family='system-ui,-apple-system,Inter,sans-serif' fill="#e6ecf3" font-size="11px">Requete</text>
    <text x="148.0" y="198.5" text-anchor="middle" font-family='system-ui,-apple-system,Inter,sans-serif' fill="#e6ecf3" font-size="11px">utilise coupon XYZ</text>
    <rect x="119.5" y="218.0" width="57" height="18" rx="4" fill="#131820" stroke="#e63946" stroke-width="0.8"/>
    <text x="148.0" y="231.0" text-anchor="middle" font-family='monospace' fill="#e63946" font-size="9px">Request</text>
    <rect x="246.0" y="132.0" width="136.0" height="78" rx="6" fill="#54a0ff" fill-opacity="0.12" stroke="#54a0ff" stroke-width="1.5" filter="url(#sd)"/>
    <g transform="translate(300.8,136.8) scale(0.55)"><path d="M24 4 L44 12 L44 26 Q44 38 24 44 Q4 38 4 26 L4 12 Z" fill="none" stroke="#54a0ff" stroke-width="1.2"/></g>
    <text x="314.0" y="182.0" text-anchor="middle" font-family='system-ui,-apple-system,Inter,sans-serif' fill="#e6ecf3" font-size="11px">TOC: Verifie</text>
    <text x="314.0" y="198.5" text-anchor="middle" font-family='system-ui,-apple-system,Inter,sans-serif' fill="#e6ecf3" font-size="11px">coupon pas utilise</text>
    <rect x="264.5" y="218.0" width="99" height="18" rx="4" fill="#131820" stroke="#54a0ff" stroke-width="0.8"/>
    <text x="314.0" y="231.0" text-anchor="middle" font-family='monospace' fill="#54a0ff" font-size="9px">Time-of-Check</text>
    <rect x="412.0" y="132.0" width="136.0" height="78" rx="6" fill="#a55eea" fill-opacity="0.12" stroke="#a55eea" stroke-width="1.5" filter="url(#sd)"/>
    <g transform="translate(466.8,136.8) scale(0.55)"><path d="M16 16 L16 10 Q16 4 24 4 Q32 4 32 10 L32 16" fill="none" stroke="#a55eea" stroke-width="1.2"/><rect x="10" y="16" width="28" height="26" rx="3" fill="none" stroke="#a55eea" stroke-width="1.2"/></g>
    <text x="480.0" y="182.0" text-anchor="middle" font-family='system-ui,-apple-system,Inter,sans-serif' fill="#e6ecf3" font-size="11px">Fenetre de</text>
    <text x="480.0" y="198.5" text-anchor="middle" font-family='system-ui,-apple-system,Inter,sans-serif' fill="#e6ecf3" font-size="11px">vulnerabilite</text>
    <rect x="441.0" y="218.0" width="78" height="18" rx="4" fill="#131820" stroke="#a55eea" stroke-width="0.8"/>
    <text x="480.0" y="231.0" text-anchor="middle" font-family='monospace' fill="#a55eea" font-size="9px">TOCTOU Gap</text>
    <rect x="578.0" y="132.0" width="136.0" height="78" rx="6" fill="#44d7b6" fill-opacity="0.12" stroke="#44d7b6" stroke-width="1.5" filter="url(#sd)"/>
    <g transform="translate(632.8,136.8) scale(0.55)"><rect x="4" y="4" width="40" height="10" rx="1.5" fill="none" stroke="#44d7b6" stroke-width="1.2"/><rect x="4" y="18" width="40" height="10" rx="1.5" fill="none" stroke="#44d7b6" stroke-width="1.2"/><rect x="4" y="32" width="40" height="10" rx="1.5" fill="none" stroke="#44d7b6" stroke-width="1.2"/><circle cx="14" cy="9" r="2" fill="#44d7b6"/><circle cx="14" cy="23" r="2" fill="#44d7b6"/><circle cx="14" cy="37" r="2" fill="#44d7b6"/></g>
    <text x="646.0" y="182.0" text-anchor="middle" font-family='system-ui,-apple-system,Inter,sans-serif' fill="#e6ecf3" font-size="11px">TOU: Marque</text>
    <text x="646.0" y="198.5" text-anchor="middle" font-family='system-ui,-apple-system,Inter,sans-serif' fill="#e6ecf3" font-size="11px">coupon utilise</text>
    <rect x="603.5" y="218.0" width="85" height="18" rx="4" fill="#131820" stroke="#44d7b6" stroke-width="0.8"/>
    <text x="646.0" y="231.0" text-anchor="middle" font-family='monospace' fill="#44d7b6" font-size="9px">Time-of-Use</text>
    <rect x="744.0" y="132.0" width="136.0" height="78" rx="6" fill="#ff9f43" fill-opacity="0.12" stroke="#ff9f43" stroke-width="1.5" filter="url(#sd)"/>
    <g transform="translate(798.8,136.8) scale(0.55)"><path d="M24 4 L28 16 L38 14 L32 22 L42 28 L30 32 L26 44 L22 32 L12 34 L18 24 L8 20 L20 18 Z" fill="none" stroke="#ff9f43" stroke-width="1.2"/></g>
    <text x="812.0" y="182.0" text-anchor="middle" font-family='system-ui,-apple-system,Inter,sans-serif' fill="#e6ecf3" font-size="11px">Race: 3 requetes</text>
    <text x="812.0" y="198.5" text-anchor="middle" font-family='system-ui,-apple-system,Inter,sans-serif' fill="#e6ecf3" font-size="11px">passent le TOC</text>
    <rect x="783.5" y="218.0" width="57" height="18" rx="4" fill="#131820" stroke="#ff9f43" stroke-width="0.8"/>
    <text x="812.0" y="231.0" text-anchor="middle" font-family='monospace' fill="#ff9f43" font-size="9px">Exploit</text>
</svg>