<svg xmlns='http://www.w3.org/2000/svg' viewBox='0 0 960 420' width='960' height='420'>
  <defs>
    <filter id="sd"><feDropShadow dx="0" dy="2" stdDeviation="3" flood-color="#000" flood-opacity="0.3"/></filter>
    <marker id="aR" viewBox="0 0 10 7" refX="9" refY="3.5" markerWidth="8" markerHeight="6" orient="auto"><polygon points="0 0,10 3.5,0 7" fill="#e63946"/></marker>
    <marker id="aB" viewBox="0 0 10 7" refX="9" refY="3.5" markerWidth="8" markerHeight="6" orient="auto"><polygon points="0 0,10 3.5,0 7" fill="#54a0ff"/></marker>
    <marker id="aO" viewBox="0 0 10 7" refX="9" refY="3.5" markerWidth="8" markerHeight="6" orient="auto"><polygon points="0 0,10 3.5,0 7" fill="#ff9f43"/></marker>
    <marker id="aG" viewBox="0 0 10 7" refX="9" refY="3.5" markerWidth="8" markerHeight="6" orient="auto"><polygon points="0 0,10 3.5,0 7" fill="#44d7b6"/></marker>
    <marker id="aP" viewBox="0 0 10 7" refX="9" refY="3.5" markerWidth="8" markerHeight="6" orient="auto"><polygon points="0 0,10 3.5,0 7" fill="#a55eea"/></marker>
    
  </defs>
  <rect width='960' height='420' fill='#0a0e14' rx='10'/>
  <text x="40" y="36" text-anchor="start" font-family='system-ui,-apple-system,Inter,sans-serif' font-weight="600" fill="#e6ecf3" font-size="20px">2FA Bypass — Race Condition</text>
    <line x1="40" y1="48" x2="280" y2="48" stroke="#e63946" stroke-width="2"/>
    <rect x="205.0" y="55" width="110" height="34" rx="6" fill="#e63946" fill-opacity="0.12" stroke="#e63946" stroke-width="1.5" filter="url(#sd)"/>
    <text x="260.0" y="77" text-anchor="middle" font-family='system-ui,-apple-system,Inter,sans-serif' fill="#e6ecf3" font-size="11px">Attaquant</text>
    <line x1="260.0" y1="89" x2="260.0" y2="390" stroke="#e63946" stroke-width="0.8" stroke-dasharray="4 4" />
    <rect x="425.0" y="55" width="110" height="34" rx="6" fill="#54a0ff" fill-opacity="0.12" stroke="#54a0ff" stroke-width="1.5" filter="url(#sd)"/>
    <text x="480.0" y="77" text-anchor="middle" font-family='system-ui,-apple-system,Inter,sans-serif' fill="#e6ecf3" font-size="11px">Serveur</text>
    <line x1="480.0" y1="89" x2="480.0" y2="390" stroke="#54a0ff" stroke-width="0.8" stroke-dasharray="4 4" />
    <rect x="645.0" y="55" width="110" height="34" rx="6" fill="#44d7b6" fill-opacity="0.12" stroke="#44d7b6" stroke-width="1.5" filter="url(#sd)"/>
    <text x="700.0" y="77" text-anchor="middle" font-family='system-ui,-apple-system,Inter,sans-serif' fill="#e6ecf3" font-size="11px">Session</text>
    <line x1="700.0" y1="89" x2="700.0" y2="390" stroke="#44d7b6" stroke-width="0.8" stroke-dasharray="4 4" />
    <line x1="260.0" y1="110" x2="480.0" y2="110" stroke="#e63946" stroke-width="1.5" marker-end="url(#aR)" />
    <rect x="284.5" y="86" width="171" height="18" rx="4" fill="#0a0e14" stroke="#1e2d3d" stroke-width="0.8"/>
    <text x="370.0" y="99" text-anchor="middle" font-family='monospace' fill="#6b7a8d" font-size="9px">POST /login (user:pass)</text>
    <line x1="480.0" y1="155" x2="260.0" y2="155" stroke="#44d7b6" stroke-width="1.5" marker-end="url(#aG)" />
    <rect x="305.5" y="131" width="129" height="18" rx="4" fill="#0a0e14" stroke="#1e2d3d" stroke-width="0.8"/>
    <text x="370.0" y="144" text-anchor="middle" font-family='monospace' fill="#6b7a8d" font-size="9px">302 → /verify-2fa</text>
    <line x1="260.0" y1="200" x2="480.0" y2="200" stroke="#e63946" stroke-width="1.5" marker-end="url(#aR)" />
    <rect x="267.0" y="176" width="206" height="18" rx="4" fill="#0a0e14" stroke="#1e2d3d" stroke-width="0.8"/>
    <text x="370.0" y="189" text-anchor="middle" font-family='monospace' fill="#6b7a8d" font-size="9px">POST /verify-2fa (code=0000)</text>
    <line x1="260.0" y1="245" x2="480.0" y2="245" stroke="#e63946" stroke-width="1.5" marker-end="url(#aR)" />
    <rect x="246.0" y="221" width="248" height="18" rx="4" fill="#0a0e14" stroke="#1e2d3d" stroke-width="0.8"/>
    <text x="370.0" y="234" text-anchor="middle" font-family='monospace' fill="#6b7a8d" font-size="9px">POST /verify-2fa (code=0001) Race!</text>
    <line x1="260.0" y1="290" x2="480.0" y2="290" stroke="#e63946" stroke-width="1.5" marker-end="url(#aR)" />
    <rect x="246.0" y="266" width="248" height="18" rx="4" fill="#0a0e14" stroke="#1e2d3d" stroke-width="0.8"/>
    <text x="370.0" y="279" text-anchor="middle" font-family='monospace' fill="#6b7a8d" font-size="9px">POST /verify-2fa (code=0002) Race!</text>
    <line x1="480.0" y1="335" x2="700.0" y2="335" stroke="#44d7b6" stroke-width="1.5" marker-end="url(#aG)" />
    <rect x="501.0" y="311" width="178" height="18" rx="4" fill="#0a0e14" stroke="#1e2d3d" stroke-width="0.8"/>
    <text x="590.0" y="324" text-anchor="middle" font-family='monospace' fill="#6b7a8d" font-size="9px">Session marquee verified</text>
    <line x1="260.0" y1="380" x2="480.0" y2="380" stroke="#e63946" stroke-width="1.5" marker-end="url(#aR)" />
    <rect x="284.5" y="356" width="171" height="18" rx="4" fill="#0a0e14" stroke="#1e2d3d" stroke-width="0.8"/>
    <text x="370.0" y="369" text-anchor="middle" font-family='monospace' fill="#6b7a8d" font-size="9px">GET /dashboard → Acces!</text>
</svg>