<svg xmlns='http://www.w3.org/2000/svg' viewBox='0 0 960 480' width='960' height='480'>
  <defs>
    <filter id="sd"><feDropShadow dx="0" dy="2" stdDeviation="3" flood-color="#000" flood-opacity="0.3"/></filter>
    <marker id="aR" viewBox="0 0 10 7" refX="9" refY="3.5" markerWidth="8" markerHeight="6" orient="auto"><polygon points="0 0,10 3.5,0 7" fill="#e63946"/></marker>
    <marker id="aB" viewBox="0 0 10 7" refX="9" refY="3.5" markerWidth="8" markerHeight="6" orient="auto"><polygon points="0 0,10 3.5,0 7" fill="#54a0ff"/></marker>
    <marker id="aO" viewBox="0 0 10 7" refX="9" refY="3.5" markerWidth="8" markerHeight="6" orient="auto"><polygon points="0 0,10 3.5,0 7" fill="#ff9f43"/></marker>
    <marker id="aG" viewBox="0 0 10 7" refX="9" refY="3.5" markerWidth="8" markerHeight="6" orient="auto"><polygon points="0 0,10 3.5,0 7" fill="#44d7b6"/></marker>
    <marker id="aP" viewBox="0 0 10 7" refX="9" refY="3.5" markerWidth="8" markerHeight="6" orient="auto"><polygon points="0 0,10 3.5,0 7" fill="#a55eea"/></marker>
    
  </defs>
  <rect width='960' height='480' fill='#0a0e14' rx='10'/>
  <text x="40" y="36" text-anchor="start" font-family='system-ui,-apple-system,Inter,sans-serif' font-weight="600" fill="#e6ecf3" font-size="20px">Chisel Tunnel — Architecture SOCKS5</text>
    <line x1="40" y1="48" x2="280" y2="48" stroke="#e63946" stroke-width="2"/>
    <rect x="30" y="102" width="280" height="400" rx="10" fill="#131820" fill-opacity="0.5" stroke="#1e2d3d" stroke-width="1.2"/>
    <rect x="30" y="102" width="280" height="24" rx="10" fill="#131820"/>
    <rect x="30" y="102+24" width="280" height="400-24" rx="0" fill="none"/>
    <text x="40" y="119" text-anchor="start" font-family='system-ui,-apple-system,Inter,sans-serif' fill="#6b7a8d" font-size="11px">Machine Attaquante   </text>
    <rect x="360" y="102" width="260" height="400" rx="10" fill="#131820" fill-opacity="0.5" stroke="#1e2d3d" stroke-width="1.2"/>
    <rect x="360" y="102" width="260" height="24" rx="10" fill="#131820"/>
    <rect x="360" y="102+24" width="260" height="400-24" rx="0" fill="none"/>
    <text x="370" y="119" text-anchor="start" font-family='system-ui,-apple-system,Inter,sans-serif' fill="#6b7a8d" font-size="11px">DMZ — Serveur Compromis   </text>
    <rect x="670" y="102" width="260" height="400" rx="10" fill="#131820" fill-opacity="0.5" stroke="#1e2d3d" stroke-width="1.2"/>
    <rect x="670" y="102" width="260" height="24" rx="10" fill="#131820"/>
    <rect x="670" y="102+24" width="260" height="400-24" rx="0" fill="none"/>
    <text x="680" y="119" text-anchor="start" font-family='system-ui,-apple-system,Inter,sans-serif' fill="#6b7a8d" font-size="11px">Reseau Interne 10.0.0.0/24   </text>
    <rect x="128" y="162" width="84" height="60" rx="6" fill="#e63946" fill-opacity="0.12" stroke="#e63946" stroke-width="1.5" filter="url(#sd)"/>
    <g transform="translate(154.4,162.4) scale(0.65)"><rect x="6" y="6" width="36" height="22" rx="2" fill="none" stroke="#e63946" stroke-width="1.2"/><path d="M2 40 L12 28 L36 28 L46 40 Z" fill="none" stroke="#e63946" stroke-width="1.2"/></g>
    <text x="170" y="208.0" text-anchor="middle" font-family='system-ui,-apple-system,Inter,sans-serif' fill="#e6ecf3" font-size="10px">Kali Linux</text>
    <text x="170" y="223.0" text-anchor="middle" font-family='system-ui,-apple-system,Inter,sans-serif' fill="#e6ecf3" font-size="10px">Listener :8080</text>
    <rect x="128" y="322" width="84" height="60" rx="6" fill="#ff9f43" fill-opacity="0.12" stroke="#ff9f43" stroke-width="1.5" filter="url(#sd)"/>
    <g transform="translate(154.4,322.4) scale(0.65)"><rect x="4" y="4" width="40" height="40" rx="4" fill="none" stroke="#ff9f43" stroke-width="1.2"/><text x="10" y="20" fill="#44d7b6" font-size="10" font-family="monospace">&gt;_</text><text x="10" y="34" fill="#ff9f43" font-size="8" font-family="monospace">~$</text></g>
    <text x="170" y="368.0" text-anchor="middle" font-family='system-ui,-apple-system,Inter,sans-serif' fill="#e6ecf3" font-size="10px">proxychains4</text>
    <text x="170" y="383.0" text-anchor="middle" font-family='system-ui,-apple-system,Inter,sans-serif' fill="#e6ecf3" font-size="10px">SOCKS5 :1080</text>
    <rect x="128" y="252" width="84" height="60" rx="6" fill="#54a0ff" fill-opacity="0.12" stroke="#54a0ff" stroke-width="1.5" filter="url(#sd)"/>
    <g transform="translate(154.4,252.4) scale(0.65)"><rect x="4" y="4" width="40" height="10" rx="1.5" fill="none" stroke="#54a0ff" stroke-width="1.2"/><rect x="4" y="18" width="40" height="10" rx="1.5" fill="none" stroke="#54a0ff" stroke-width="1.2"/><rect x="4" y="32" width="40" height="10" rx="1.5" fill="none" stroke="#54a0ff" stroke-width="1.2"/><circle cx="14" cy="9" r="2" fill="#44d7b6"/><circle cx="14" cy="23" r="2" fill="#44d7b6"/><circle cx="14" cy="37" r="2" fill="#44d7b6"/></g>
    <text x="170" y="298.0" text-anchor="middle" font-family='system-ui,-apple-system,Inter,sans-serif' fill="#e6ecf3" font-size="10px">Chisel Server</text>
    <text x="170" y="313.0" text-anchor="middle" font-family='system-ui,-apple-system,Inter,sans-serif' fill="#e6ecf3" font-size="10px">Reverse mode</text>
    <rect x="448" y="162" width="84" height="60" rx="6" fill="#44d7b6" fill-opacity="0.12" stroke="#44d7b6" stroke-width="1.5" filter="url(#sd)"/>
    <g transform="translate(474.4,162.4) scale(0.65)"><rect x="4" y="4" width="40" height="10" rx="1.5" fill="none" stroke="#44d7b6" stroke-width="1.2"/><rect x="4" y="18" width="40" height="10" rx="1.5" fill="none" stroke="#44d7b6" stroke-width="1.2"/><rect x="4" y="32" width="40" height="10" rx="1.5" fill="none" stroke="#44d7b6" stroke-width="1.2"/><circle cx="14" cy="9" r="2" fill="#44d7b6"/><circle cx="14" cy="23" r="2" fill="#44d7b6"/><circle cx="14" cy="37" r="2" fill="#44d7b6"/></g>
    <text x="490" y="200.5" text-anchor="middle" font-family='system-ui,-apple-system,Inter,sans-serif' fill="#e6ecf3" font-size="10px">Serveur Web</text>
    <text x="490" y="215.5" text-anchor="middle" font-family='system-ui,-apple-system,Inter,sans-serif' fill="#e6ecf3" font-size="10px">Compromis</text>
    <text x="490" y="230.5" text-anchor="middle" font-family='system-ui,-apple-system,Inter,sans-serif' fill="#e6ecf3" font-size="10px">Flask</text>
    <rect x="448" y="272" width="84" height="60" rx="6" fill="#ff9f43" fill-opacity="0.12" stroke="#ff9f43" stroke-width="1.5" filter="url(#sd)"/>
    <g transform="translate(474.4,272.4) scale(0.65)"><rect x="4" y="4" width="40" height="40" rx="4" fill="none" stroke="#ff9f43" stroke-width="1.2"/><text x="10" y="20" fill="#44d7b6" font-size="10" font-family="monospace">&gt;_</text><text x="10" y="34" fill="#ff9f43" font-size="8" font-family="monospace">~$</text></g>
    <text x="490" y="310.5" text-anchor="middle" font-family='system-ui,-apple-system,Inter,sans-serif' fill="#e6ecf3" font-size="10px">Chisel Client</text>
    <text x="490" y="325.5" text-anchor="middle" font-family='system-ui,-apple-system,Inter,sans-serif' fill="#e6ecf3" font-size="10px">Connect back</text>
    <text x="490" y="340.5" text-anchor="middle" font-family='system-ui,-apple-system,Inter,sans-serif' fill="#e6ecf3" font-size="10px">→ SOCKS5 :1080</text>
    <rect x="758" y="182" width="84" height="60" rx="6" fill="#a55eea" fill-opacity="0.12" stroke="#a55eea" stroke-width="1.5" filter="url(#sd)"/>
    <g transform="translate(784.4,182.4) scale(0.65)"><rect x="4" y="4" width="40" height="10" rx="1.5" fill="none" stroke="#a55eea" stroke-width="1.2"/><rect x="4" y="18" width="40" height="10" rx="1.5" fill="none" stroke="#a55eea" stroke-width="1.2"/><rect x="4" y="32" width="40" height="10" rx="1.5" fill="none" stroke="#a55eea" stroke-width="1.2"/><circle cx="14" cy="9" r="2" fill="#44d7b6"/><circle cx="14" cy="23" r="2" fill="#44d7b6"/><circle cx="14" cy="37" r="2" fill="#44d7b6"/></g>
    <text x="800" y="220.5" text-anchor="middle" font-family='system-ui,-apple-system,Inter,sans-serif' fill="#e6ecf3" font-size="10px">Serveur Interne</text>
    <text x="800" y="235.5" text-anchor="middle" font-family='system-ui,-apple-system,Inter,sans-serif' fill="#e6ecf3" font-size="10px">10.0.0.10</text>
    <text x="800" y="250.5" text-anchor="middle" font-family='system-ui,-apple-system,Inter,sans-serif' fill="#e6ecf3" font-size="10px">SMTP/SSH/API</text>
    <rect x="758" y="322" width="84" height="60" rx="6" fill="#e63946" fill-opacity="0.12" stroke="#e63946" stroke-width="1.5" filter="url(#sd)"/>
    <g transform="translate(784.4,322.4) scale(0.65)"><circle cx="12" cy="24" r="8" fill="none" stroke="#e63946" stroke-width="1.2"/><line x1="20" y1="24" x2="44" y2="24" stroke="#e63946" stroke-width="1.2"/><line x1="28" y1="20" x2="28" y2="28" stroke="#e63946" stroke-width="1.2"/></g>
    <text x="800" y="368.0" text-anchor="middle" font-family='system-ui,-apple-system,Inter,sans-serif' fill="#e6ecf3" font-size="10px">Flag 5</text>
    <text x="800" y="383.0" text-anchor="middle" font-family='system-ui,-apple-system,Inter,sans-serif' fill="#e6ecf3" font-size="10px">Donnees SMTP</text>
    <path d="M170,282 Q170,272.0 490,302" fill="none" stroke="#ff9f43" stroke-width="1.8" marker-end="url(#aO)"/>
    <rect x="276.0" y="262.0" width="108" height="18" rx="4" fill="#0a0e14" stroke="#1e2d3d" stroke-width="0.8"/>
    <text x="330.0" y="275.0" text-anchor="middle" font-family='monospace' fill="#6b7a8d" font-size="9px">Tunnel Chiffre</text>
    <path d="M170,352 Q170,297.0 170,282" fill="none" stroke="#e63946" stroke-width="1.8" marker-end="url(#aR)"/>
    <rect x="144.0" y="287.0" width="52" height="18" rx="4" fill="#0a0e14" stroke="#1e2d3d" stroke-width="0.8"/>
    <text x="170.0" y="300.0" text-anchor="middle" font-family='monospace' fill="#6b7a8d" font-size="9px">SOCKS5</text>
    <path d="M490,302 Q490,237.0 800,212" fill="none" stroke="#e63946" stroke-width="1.8" marker-end="url(#aR)"/>
    <rect x="584.0" y="227.0" width="122" height="18" rx="4" fill="#0a0e14" stroke="#1e2d3d" stroke-width="0.8"/>
    <text x="645.0" y="240.0" text-anchor="middle" font-family='monospace' fill="#6b7a8d" font-size="9px">Pivot via SOCKS5</text>
    <path d="M800,212 Q800,262.0 800,352" fill="none" stroke="#e63946" stroke-width="1.8" marker-end="url(#aR)"/>
    <rect x="777.5" y="252.0" width="45" height="18" rx="4" fill="#0a0e14" stroke="#1e2d3d" stroke-width="0.8"/>
    <text x="800.0" y="265.0" text-anchor="middle" font-family='monospace' fill="#6b7a8d" font-size="9px">Exfil</text>
    <path d="M170,192 Q170,217.0 170,282" fill="none" stroke="#e63946" stroke-width="1.8" marker-end="url(#aR)"/>
    <rect x="137.0" y="207.0" width="66" height="18" rx="4" fill="#0a0e14" stroke="#1e2d3d" stroke-width="0.8"/>
    <text x="170.0" y="220.0" text-anchor="middle" font-family='monospace' fill="#6b7a8d" font-size="9px">Listener</text>
    <path d="M490,192 Q490,227.0 490,302" fill="none" stroke="#ff9f43" stroke-width="1.8" marker-end="url(#aO)"/>
    <rect x="464.0" y="217.0" width="52" height="18" rx="4" fill="#0a0e14" stroke="#1e2d3d" stroke-width="0.8"/>
    <text x="490.0" y="230.0" text-anchor="middle" font-family='monospace' fill="#6b7a8d" font-size="9px">Upload</text>
</svg>