<svg xmlns='http://www.w3.org/2000/svg' viewBox='0 0 1200 360' width='1200' height='360'>
  <defs>
    <filter id="sd"><feDropShadow dx="0" dy="2" stdDeviation="3" flood-color="#000" flood-opacity="0.3"/></filter>
    <marker id="aR" viewBox="0 0 10 7" refX="9" refY="3.5" markerWidth="8" markerHeight="6" orient="auto"><polygon points="0 0,10 3.5,0 7" fill="#e63946"/></marker>
    <marker id="aB" viewBox="0 0 10 7" refX="9" refY="3.5" markerWidth="8" markerHeight="6" orient="auto"><polygon points="0 0,10 3.5,0 7" fill="#54a0ff"/></marker>
    <marker id="aO" viewBox="0 0 10 7" refX="9" refY="3.5" markerWidth="8" markerHeight="6" orient="auto"><polygon points="0 0,10 3.5,0 7" fill="#ff9f43"/></marker>
    <marker id="aG" viewBox="0 0 10 7" refX="9" refY="3.5" markerWidth="8" markerHeight="6" orient="auto"><polygon points="0 0,10 3.5,0 7" fill="#44d7b6"/></marker>
    <marker id="aP" viewBox="0 0 10 7" refX="9" refY="3.5" markerWidth="8" markerHeight="6" orient="auto"><polygon points="0 0,10 3.5,0 7" fill="#a55eea"/></marker>
    
  </defs>
  <rect width='1200' height='360' fill='#0a0e14' rx='10'/>
  <text x="40" y="36" text-anchor="start" font-family='system-ui,-apple-system,Inter,sans-serif' font-weight="600" fill="#e6ecf3" font-size="20px">Complete Attack Path — Scenario Autonome</text>
    <line x1="40" y1="48" x2="280" y2="48" stroke="#e63946" stroke-width="2"/>
    <line x1="245.0" y1="162.0" x2="275.0" y2="162.0" stroke="#e63946" stroke-width="1.8" marker-end="url(#aR)" />
    <line x1="415.0" y1="162.0" x2="445.0" y2="162.0" stroke="#e63946" stroke-width="1.8" marker-end="url(#aB)" />
    <line x1="585.0" y1="162.0" x2="615.0" y2="162.0" stroke="#e63946" stroke-width="1.8" marker-end="url(#aO)" />
    <line x1="755.0" y1="162.0" x2="785.0" y2="162.0" stroke="#e63946" stroke-width="1.8" marker-end="url(#aG)" />
    <line x1="925.0" y1="162.0" x2="955.0" y2="162.0" stroke="#e63946" stroke-width="1.8" marker-end="url(#aP)" />
    <rect x="105.0" y="122.0" width="140" height="78" rx="6" fill="#e63946" fill-opacity="0.12" stroke="#e63946" stroke-width="1.5" filter="url(#sd)"/>
    <g transform="translate(161.8,126.8) scale(0.55)"><circle cx="24" cy="12" r="8" fill="none" stroke="#e63946" stroke-width="1.2"/><path d="M8 38 Q8 22 24 22 Q40 22 40 38" fill="none" stroke="#e63946" stroke-width="1.2"/></g>
    <text x="175.0" y="172.0" text-anchor="middle" font-family='system-ui,-apple-system,Inter,sans-serif' fill="#e6ecf3" font-size="11px">Flag 1</text>
    <text x="175.0" y="188.5" text-anchor="middle" font-family='system-ui,-apple-system,Inter,sans-serif' fill="#e6ecf3" font-size="11px">IDOR — Profil Admin</text>
    <rect x="153.0" y="208.0" width="44" height="18" rx="4" fill="#131820" stroke="#e63946" stroke-width="0.8"/>
    <text x="175.0" y="221.0" text-anchor="middle" font-family='monospace' fill="#e63946" font-size="9px">T1548</text>
    <rect x="275.0" y="122.0" width="140" height="78" rx="6" fill="#54a0ff" fill-opacity="0.12" stroke="#54a0ff" stroke-width="1.5" filter="url(#sd)"/>
    <g transform="translate(331.8,126.8) scale(0.55)"><ellipse cx="24" cy="8" rx="20" ry="6" fill="none" stroke="#54a0ff" stroke-width="1.2"/><path d="M4 8 L4 36" stroke="#54a0ff" stroke-width="1.2"/><path d="M44 8 L44 36" stroke="#54a0ff" stroke-width="1.2"/><ellipse cx="24" cy="36" rx="20" ry="6" fill="none" stroke="#54a0ff" stroke-width="1.2"/><ellipse cx="24" cy="22" rx="20" ry="6" fill="none" stroke="#54a0ff" stroke-width="1.2" stroke-dasharray="2 2"/></g>
    <text x="345.0" y="172.0" text-anchor="middle" font-family='system-ui,-apple-system,Inter,sans-serif' fill="#e6ecf3" font-size="11px">Flag 2</text>
    <text x="345.0" y="188.5" text-anchor="middle" font-family='system-ui,-apple-system,Inter,sans-serif' fill="#e6ecf3" font-size="11px">SQLi — Extract Users</text>
    <rect x="323.0" y="208.0" width="44" height="18" rx="4" fill="#131820" stroke="#54a0ff" stroke-width="0.8"/>
    <text x="345.0" y="221.0" text-anchor="middle" font-family='monospace' fill="#54a0ff" font-size="9px">T1190</text>
    <rect x="445.0" y="122.0" width="140" height="78" rx="6" fill="#a55eea" fill-opacity="0.12" stroke="#a55eea" stroke-width="1.5" filter="url(#sd)"/>
    <g transform="translate(501.8,126.8) scale(0.55)"><circle cx="12" cy="24" r="8" fill="none" stroke="#a55eea" stroke-width="1.2"/><line x1="20" y1="24" x2="44" y2="24" stroke="#a55eea" stroke-width="1.2"/><line x1="28" y1="20" x2="28" y2="28" stroke="#a55eea" stroke-width="1.2"/></g>
    <text x="515.0" y="172.0" text-anchor="middle" font-family='system-ui,-apple-system,Inter,sans-serif' fill="#e6ecf3" font-size="11px">Flag 3</text>
    <text x="515.0" y="188.5" text-anchor="middle" font-family='system-ui,-apple-system,Inter,sans-serif' fill="#e6ecf3" font-size="11px">JWT Bypass — Admin</text>
    <rect x="493.0" y="208.0" width="44" height="18" rx="4" fill="#131820" stroke="#a55eea" stroke-width="0.8"/>
    <text x="515.0" y="221.0" text-anchor="middle" font-family='monospace' fill="#a55eea" font-size="9px">T1078</text>
    <rect x="615.0" y="122.0" width="140" height="78" rx="6" fill="#44d7b6" fill-opacity="0.12" stroke="#44d7b6" stroke-width="1.5" filter="url(#sd)"/>
    <g transform="translate(671.8,126.8) scale(0.55)"><rect x="4" y="4" width="40" height="40" rx="4" fill="none" stroke="#44d7b6" stroke-width="1.2"/><text x="10" y="20" fill="#44d7b6" font-size="10" font-family="monospace">&gt;_</text><text x="10" y="34" fill="#44d7b6" font-size="8" font-family="monospace">~$</text></g>
    <text x="685.0" y="172.0" text-anchor="middle" font-family='system-ui,-apple-system,Inter,sans-serif' fill="#e6ecf3" font-size="11px">Flag 4</text>
    <text x="685.0" y="188.5" text-anchor="middle" font-family='system-ui,-apple-system,Inter,sans-serif' fill="#e6ecf3" font-size="11px">SSTI → RCE Shell</text>
    <rect x="649.5" y="208.0" width="71" height="18" rx="4" fill="#131820" stroke="#44d7b6" stroke-width="0.8"/>
    <text x="685.0" y="221.0" text-anchor="middle" font-family='monospace' fill="#44d7b6" font-size="9px">T1059.003</text>
    <rect x="785.0" y="122.0" width="140" height="78" rx="6" fill="#ff9f43" fill-opacity="0.12" stroke="#ff9f43" stroke-width="1.5" filter="url(#sd)"/>
    <g transform="translate(841.8,126.8) scale(0.55)"><rect x="4" y="4" width="40" height="40" rx="2" fill="none" stroke="#ff9f43" stroke-width="1.2"/><rect x="8" y="10" width="6" height="4" rx="1" fill="#44d7b6"/><rect x="18" y="10" width="6" height="4" rx="1" fill="#44d7b6"/><rect x="28" y="10" width="6" height="4" rx="1" fill="#44d7b6"/><rect x="8" y="18" width="6" height="4" rx="1" fill="#44d7b6"/><rect x="18" y="18" width="6" height="4" rx="1" fill="#ff9f43"/><rect x="28" y="18" width="6" height="4" rx="1" fill="{c.7}"/></g>
    <text x="855.0" y="172.0" text-anchor="middle" font-family='system-ui,-apple-system,Inter,sans-serif' fill="#e6ecf3" font-size="11px">Pivot Setup</text>
    <text x="855.0" y="188.5" text-anchor="middle" font-family='system-ui,-apple-system,Inter,sans-serif' fill="#e6ecf3" font-size="11px">Chisel SOCKS5</text>
    <rect x="833.0" y="208.0" width="44" height="18" rx="4" fill="#131820" stroke="#ff9f43" stroke-width="0.8"/>
    <text x="855.0" y="221.0" text-anchor="middle" font-family='monospace' fill="#ff9f43" font-size="9px">T1572</text>
    <rect x="955.0" y="122.0" width="140" height="78" rx="6" fill="#ff6b6b" fill-opacity="0.12" stroke="#ff6b6b" stroke-width="1.5" filter="url(#sd)"/>
    <g transform="translate(1011.8,126.8) scale(0.55)"><rect x="4" y="6" width="40" height="32" rx="4" fill="none" stroke="#ff6b6b" stroke-width="1.2"/><path d="M6 8 L24 24 L42 8" fill="none" stroke="#ff6b6b" stroke-width="1.2"/></g>
    <text x="1025.0" y="172.0" text-anchor="middle" font-family='system-ui,-apple-system,Inter,sans-serif' fill="#e6ecf3" font-size="11px">Flag 5 (B)</text>
    <text x="1025.0" y="188.5" text-anchor="middle" font-family='system-ui,-apple-system,Inter,sans-serif' fill="#e6ecf3" font-size="11px">Exfil SMTP Interne</text>
    <rect x="1003.0" y="208.0" width="44" height="18" rx="4" fill="#131820" stroke="#ff6b6b" stroke-width="0.8"/>
    <text x="1025.0" y="221.0" text-anchor="middle" font-family='monospace' fill="#ff6b6b" font-size="9px">T1021</text>
</svg>