<svg xmlns='http://www.w3.org/2000/svg' viewBox='0 0 1100 360' width='1100' height='360'>
  <defs>
    <filter id="sd"><feDropShadow dx="0" dy="2" stdDeviation="3" flood-color="#000" flood-opacity="0.3"/></filter>
    <marker id="aR" viewBox="0 0 10 7" refX="9" refY="3.5" markerWidth="8" markerHeight="6" orient="auto"><polygon points="0 0,10 3.5,0 7" fill="#e63946"/></marker>
    <marker id="aB" viewBox="0 0 10 7" refX="9" refY="3.5" markerWidth="8" markerHeight="6" orient="auto"><polygon points="0 0,10 3.5,0 7" fill="#54a0ff"/></marker>
    <marker id="aO" viewBox="0 0 10 7" refX="9" refY="3.5" markerWidth="8" markerHeight="6" orient="auto"><polygon points="0 0,10 3.5,0 7" fill="#ff9f43"/></marker>
    <marker id="aG" viewBox="0 0 10 7" refX="9" refY="3.5" markerWidth="8" markerHeight="6" orient="auto"><polygon points="0 0,10 3.5,0 7" fill="#44d7b6"/></marker>
    <marker id="aP" viewBox="0 0 10 7" refX="9" refY="3.5" markerWidth="8" markerHeight="6" orient="auto"><polygon points="0 0,10 3.5,0 7" fill="#a55eea"/></marker>
    
  </defs>
  <rect width='1100' height='360' fill='#0a0e14' rx='10'/>
  <text x="40" y="36" text-anchor="start" font-family='system-ui,-apple-system,Inter,sans-serif' font-weight="600" fill="#e6ecf3" font-size="20px">SSTI Exploitation Chain — Jinja2 → RCE</text>
    <line x1="40" y1="48" x2="280" y2="48" stroke="#e63946" stroke-width="2"/>
    <line x1="188.57142857142856" y1="162.0" x2="218.57142857142856" y2="162.0" stroke="#e63946" stroke-width="1.8" marker-end="url(#aR)" />
    <line x1="327.1428571428571" y1="162.0" x2="357.1428571428571" y2="162.0" stroke="#e63946" stroke-width="1.8" marker-end="url(#aB)" />
    <line x1="465.71428571428567" y1="162.0" x2="495.71428571428567" y2="162.0" stroke="#e63946" stroke-width="1.8" marker-end="url(#aO)" />
    <line x1="604.2857142857142" y1="162.0" x2="634.2857142857142" y2="162.0" stroke="#e63946" stroke-width="1.8" marker-end="url(#aG)" />
    <line x1="742.8571428571428" y1="162.0" x2="772.8571428571428" y2="162.0" stroke="#e63946" stroke-width="1.8" marker-end="url(#aP)" />
    <line x1="881.4285714285713" y1="162.0" x2="911.4285714285713" y2="162.0" stroke="#e63946" stroke-width="1.8" marker-end="url(#aR)" />
    <rect x="80.0" y="122.0" width="108.57142857142857" height="78" rx="6" fill="#e63946" fill-opacity="0.12" stroke="#e63946" stroke-width="1.5" filter="url(#sd)"/>
    <g transform="translate(121.08571428571427,126.8) scale(0.55)"><circle cx="12" cy="24" r="8" fill="none" stroke="#e63946" stroke-width="1.2"/><line x1="20" y1="24" x2="44" y2="24" stroke="#e63946" stroke-width="1.2"/><line x1="28" y1="20" x2="28" y2="28" stroke="#e63946" stroke-width="1.2"/></g>
    <text x="134.28571428571428" y="172.0" text-anchor="middle" font-family='system-ui,-apple-system,Inter,sans-serif' fill="#e6ecf3" font-size="11px">JWT Admin</text>
    <text x="134.28571428571428" y="188.5" text-anchor="middle" font-family='system-ui,-apple-system,Inter,sans-serif' fill="#e6ecf3" font-size="11px">Acces /admin/templates</text>
    <rect x="112.28571428571428" y="208.0" width="44" height="18" rx="4" fill="#131820" stroke="#e63946" stroke-width="0.8"/>
    <text x="134.28571428571428" y="221.0" text-anchor="middle" font-family='monospace' fill="#e63946" font-size="9px">T1078</text>
    <rect x="218.57142857142856" y="122.0" width="108.57142857142857" height="78" rx="6" fill="#54a0ff" fill-opacity="0.12" stroke="#54a0ff" stroke-width="1.5" filter="url(#sd)"/>
    <g transform="translate(259.65714285714284,126.8) scale(0.55)"><path d="M24 4 L28 16 L38 14 L32 22 L42 28 L30 32 L26 44 L22 32 L12 34 L18 24 L8 20 L20 18 Z" fill="none" stroke="#54a0ff" stroke-width="1.2"/></g>
    <text x="272.85714285714283" y="172.0" text-anchor="middle" font-family='system-ui,-apple-system,Inter,sans-serif' fill="#e6ecf3" font-size="11px">SSTI Detection</text>
    <text x="272.85714285714283" y="188.5" text-anchor="middle" font-family='system-ui,-apple-system,Inter,sans-serif' fill="#e6ecf3" font-size="11px">{{ 7*7 }} → 49</text>
    <rect x="250.85714285714283" y="208.0" width="44" height="18" rx="4" fill="#131820" stroke="#54a0ff" stroke-width="0.8"/>
    <text x="272.85714285714283" y="221.0" text-anchor="middle" font-family='monospace' fill="#54a0ff" font-size="9px">T1190</text>
    <rect x="357.1428571428571" y="122.0" width="108.57142857142857" height="78" rx="6" fill="#a55eea" fill-opacity="0.12" stroke="#a55eea" stroke-width="1.5" filter="url(#sd)"/>
    <g transform="translate(398.2285714285714,126.8) scale(0.55)"><path d="M6 10 L18 10 L22 16 L42 16 L42 38 L6 38 Z" fill="none" stroke="#a55eea" stroke-width="1.2"/></g>
    <text x="411.4285714285714" y="172.0" text-anchor="middle" font-family='system-ui,-apple-system,Inter,sans-serif' fill="#e6ecf3" font-size="11px">Object Traversal</text>
    <text x="411.4285714285714" y="188.5" text-anchor="middle" font-family='system-ui,-apple-system,Inter,sans-serif' fill="#e6ecf3" font-size="11px">__class__.__mro__</text>
    <rect x="375.9285714285714" y="208.0" width="71" height="18" rx="4" fill="#131820" stroke="#a55eea" stroke-width="0.8"/>
    <text x="411.4285714285714" y="221.0" text-anchor="middle" font-family='monospace' fill="#a55eea" font-size="9px">Traversal</text>
    <rect x="495.71428571428567" y="122.0" width="108.57142857142857" height="78" rx="6" fill="#44d7b6" fill-opacity="0.12" stroke="#44d7b6" stroke-width="1.5" filter="url(#sd)"/>
    <g transform="translate(536.8,126.8) scale(0.55)"><rect x="4" y="4" width="40" height="40" rx="4" fill="none" stroke="#44d7b6" stroke-width="1.2"/><text x="10" y="20" fill="#44d7b6" font-size="10" font-family="monospace">&gt;_</text><text x="10" y="34" fill="#44d7b6" font-size="8" font-family="monospace">~$</text></g>
    <text x="550.0" y="172.0" text-anchor="middle" font-family='system-ui,-apple-system,Inter,sans-serif' fill="#e6ecf3" font-size="11px">Reach subprocess</text>
    <text x="550.0" y="188.5" text-anchor="middle" font-family='system-ui,-apple-system,Inter,sans-serif' fill="#e6ecf3" font-size="11px">__subclasses__()[...]</text>
    <rect x="528.0" y="208.0" width="44" height="18" rx="4" fill="#131820" stroke="#44d7b6" stroke-width="0.8"/>
    <text x="550.0" y="221.0" text-anchor="middle" font-family='monospace' fill="#44d7b6" font-size="9px">Enum</text>
    <rect x="634.2857142857142" y="122.0" width="108.57142857142857" height="78" rx="6" fill="#ff9f43" fill-opacity="0.12" stroke="#ff9f43" stroke-width="1.5" filter="url(#sd)"/>
    <g transform="translate(675.3714285714285,126.8) scale(0.55)"><rect x="4" y="4" width="40" height="10" rx="1.5" fill="none" stroke="#ff9f43" stroke-width="1.2"/><rect x="4" y="18" width="40" height="10" rx="1.5" fill="none" stroke="#ff9f43" stroke-width="1.2"/><rect x="4" y="32" width="40" height="10" rx="1.5" fill="none" stroke="#ff9f43" stroke-width="1.2"/><circle cx="14" cy="9" r="2" fill="#44d7b6"/><circle cx="14" cy="23" r="2" fill="#44d7b6"/><circle cx="14" cy="37" r="2" fill="#44d7b6"/></g>
    <text x="688.5714285714286" y="172.0" text-anchor="middle" font-family='system-ui,-apple-system,Inter,sans-serif' fill="#e6ecf3" font-size="11px">Access os.popen</text>
    <text x="688.5714285714286" y="188.5" text-anchor="middle" font-family='system-ui,-apple-system,Inter,sans-serif' fill="#e6ecf3" font-size="11px">__globals__.os.popen</text>
    <rect x="666.5714285714286" y="208.0" width="44" height="18" rx="4" fill="#131820" stroke="#ff9f43" stroke-width="0.8"/>
    <text x="688.5714285714286" y="221.0" text-anchor="middle" font-family='monospace' fill="#ff9f43" font-size="9px">RCE</text>
    <rect x="772.8571428571428" y="122.0" width="108.57142857142857" height="78" rx="6" fill="#ff6b6b" fill-opacity="0.12" stroke="#ff6b6b" stroke-width="1.5" filter="url(#sd)"/>
    <g transform="translate(813.9428571428571,126.8) scale(0.55)"><path d="M24 4 L28 16 L38 14 L32 22 L42 28 L30 32 L26 44 L22 32 L12 34 L18 24 L8 20 L20 18 Z" fill="none" stroke="#ff6b6b" stroke-width="1.2"/></g>
    <text x="827.1428571428571" y="172.0" text-anchor="middle" font-family='system-ui,-apple-system,Inter,sans-serif' fill="#e6ecf3" font-size="11px">Execute Command</text>
    <text x="827.1428571428571" y="188.5" text-anchor="middle" font-family='system-ui,-apple-system,Inter,sans-serif' fill="#e6ecf3" font-size="11px">popen('id').read()</text>
    <rect x="791.6428571428571" y="208.0" width="71" height="18" rx="4" fill="#131820" stroke="#ff6b6b" stroke-width="0.8"/>
    <text x="827.1428571428571" y="221.0" text-anchor="middle" font-family='monospace' fill="#ff6b6b" font-size="9px">T1059.003</text>
    <rect x="911.4285714285713" y="122.0" width="108.57142857142857" height="78" rx="6" fill="#54a0ff" fill-opacity="0.12" stroke="#54a0ff" stroke-width="1.5" filter="url(#sd)"/>
    <g transform="translate(952.5142857142856,126.8) scale(0.55)"><circle cx="24" cy="24" r="20" fill="none" stroke="#54a0ff" stroke-width="1.2"/><ellipse cx="24" cy="24" rx="6" ry="20" fill="none" stroke="#54a0ff" stroke-width="0.8"/><line x1="4" y1="24" x2="44" y2="24" stroke="#54a0ff" stroke-width="0.8"/></g>
    <text x="965.7142857142857" y="172.0" text-anchor="middle" font-family='system-ui,-apple-system,Inter,sans-serif' fill="#e6ecf3" font-size="11px">Reverse Shell</text>
    <text x="965.7142857142857" y="188.5" text-anchor="middle" font-family='system-ui,-apple-system,Inter,sans-serif' fill="#e6ecf3" font-size="11px">nc -e /bin/sh</text>
    <rect x="943.7142857142857" y="208.0" width="44" height="18" rx="4" fill="#131820" stroke="#54a0ff" stroke-width="0.8"/>
    <text x="965.7142857142857" y="221.0" text-anchor="middle" font-family='monospace' fill="#54a0ff" font-size="9px">Shell</text>
</svg>