<svg xmlns='http://www.w3.org/2000/svg' viewBox='0 0 960 440' width='960' height='440'>
  <defs>
    <filter id="sd"><feDropShadow dx="0" dy="2" stdDeviation="3" flood-color="#000" flood-opacity="0.3"/></filter>
    <marker id="aR" viewBox="0 0 10 7" refX="9" refY="3.5" markerWidth="8" markerHeight="6" orient="auto"><polygon points="0 0,10 3.5,0 7" fill="#e63946"/></marker>
    <marker id="aB" viewBox="0 0 10 7" refX="9" refY="3.5" markerWidth="8" markerHeight="6" orient="auto"><polygon points="0 0,10 3.5,0 7" fill="#54a0ff"/></marker>
    <marker id="aO" viewBox="0 0 10 7" refX="9" refY="3.5" markerWidth="8" markerHeight="6" orient="auto"><polygon points="0 0,10 3.5,0 7" fill="#ff9f43"/></marker>
    <marker id="aG" viewBox="0 0 10 7" refX="9" refY="3.5" markerWidth="8" markerHeight="6" orient="auto"><polygon points="0 0,10 3.5,0 7" fill="#44d7b6"/></marker>
    <marker id="aP" viewBox="0 0 10 7" refX="9" refY="3.5" markerWidth="8" markerHeight="6" orient="auto"><polygon points="0 0,10 3.5,0 7" fill="#a55eea"/></marker>
    
  </defs>
  <rect width='960' height='440' fill='#0a0e14' rx='10'/>
  <text x="40" y="36" text-anchor="start" font-family='system-ui,-apple-system,Inter,sans-serif' font-weight="600" fill="#e6ecf3" font-size="20px">Kill Chain ATT&amp;CK — Compromission CorpShadow</text>
    <line x1="40" y1="48" x2="280" y2="48" stroke="#e63946" stroke-width="2"/>
    <line x1="188.33333333333331" y1="202.0" x2="218.33333333333331" y2="202.0" stroke="#e63946" stroke-width="1.8" marker-end="url(#aR)" />
    <line x1="326.66666666666663" y1="202.0" x2="356.66666666666663" y2="202.0" stroke="#e63946" stroke-width="1.8" marker-end="url(#aB)" />
    <line x1="464.99999999999994" y1="202.0" x2="494.99999999999994" y2="202.0" stroke="#e63946" stroke-width="1.8" marker-end="url(#aO)" />
    <line x1="603.3333333333333" y1="202.0" x2="633.3333333333333" y2="202.0" stroke="#e63946" stroke-width="1.8" marker-end="url(#aG)" />
    <line x1="741.6666666666666" y1="202.0" x2="771.6666666666665" y2="202.0" stroke="#e63946" stroke-width="1.8" marker-end="url(#aP)" />
    <rect x="80.0" y="162.0" width="108.33333333333333" height="78" rx="6" fill="#e63946" fill-opacity="0.12" stroke="#e63946" stroke-width="1.5" filter="url(#sd)"/>
    <g transform="translate(120.96666666666665,166.8) scale(0.55)"><circle cx="24" cy="24" r="20" fill="none" stroke="#e63946" stroke-width="1.2"/><ellipse cx="24" cy="24" rx="6" ry="20" fill="none" stroke="#e63946" stroke-width="0.8"/><line x1="4" y1="24" x2="44" y2="24" stroke="#e63946" stroke-width="0.8"/></g>
    <text x="134.16666666666666" y="203.75" text-anchor="middle" font-family='system-ui,-apple-system,Inter,sans-serif' fill="#e6ecf3" font-size="11px">Reconnaissance</text>
    <text x="134.16666666666666" y="220.25" text-anchor="middle" font-family='system-ui,-apple-system,Inter,sans-serif' fill="#e6ecf3" font-size="11px">BloodHound</text>
    <text x="134.16666666666666" y="236.75" text-anchor="middle" font-family='system-ui,-apple-system,Inter,sans-serif' fill="#e6ecf3" font-size="11px">(Flag 1)</text>
    <rect x="98.66666666666666" y="248.0" width="71" height="18" rx="4" fill="#131820" stroke="#e63946" stroke-width="0.8"/>
    <text x="134.16666666666666" y="261.0" text-anchor="middle" font-family='monospace' fill="#e63946" font-size="9px">T1087.002</text>
    <rect x="218.33333333333331" y="162.0" width="108.33333333333333" height="78" rx="6" fill="#54a0ff" fill-opacity="0.12" stroke="#54a0ff" stroke-width="1.5" filter="url(#sd)"/>
    <g transform="translate(259.3,166.8) scale(0.55)"><rect x="4" y="6" width="40" height="32" rx="4" fill="none" stroke="#54a0ff" stroke-width="1.2"/><path d="M6 8 L24 24 L42 8" fill="none" stroke="#54a0ff" stroke-width="1.2"/></g>
    <text x="272.5" y="203.75" text-anchor="middle" font-family='system-ui,-apple-system,Inter,sans-serif' fill="#e6ecf3" font-size="11px">Credential Access</text>
    <text x="272.5" y="220.25" text-anchor="middle" font-family='system-ui,-apple-system,Inter,sans-serif' fill="#e6ecf3" font-size="11px">Responder + Crack</text>
    <text x="272.5" y="236.75" text-anchor="middle" font-family='system-ui,-apple-system,Inter,sans-serif' fill="#e6ecf3" font-size="11px">(Flag 2)</text>
    <rect x="237.0" y="248.0" width="71" height="18" rx="4" fill="#131820" stroke="#54a0ff" stroke-width="0.8"/>
    <text x="272.5" y="261.0" text-anchor="middle" font-family='monospace' fill="#54a0ff" font-size="9px">T1557.001</text>
    <rect x="356.66666666666663" y="162.0" width="108.33333333333333" height="78" rx="6" fill="#a55eea" fill-opacity="0.12" stroke="#a55eea" stroke-width="1.5" filter="url(#sd)"/>
    <g transform="translate(397.6333333333333,166.8) scale(0.55)"><ellipse cx="24" cy="8" rx="20" ry="6" fill="none" stroke="#a55eea" stroke-width="1.2"/><path d="M4 8 L4 36" stroke="#a55eea" stroke-width="1.2"/><path d="M44 8 L44 36" stroke="#a55eea" stroke-width="1.2"/><ellipse cx="24" cy="36" rx="20" ry="6" fill="none" stroke="#a55eea" stroke-width="1.2"/><ellipse cx="24" cy="22" rx="20" ry="6" fill="none" stroke="#a55eea" stroke-width="1.2" stroke-dasharray="2 2"/></g>
    <text x="410.8333333333333" y="203.75" text-anchor="middle" font-family='system-ui,-apple-system,Inter,sans-serif' fill="#e6ecf3" font-size="11px">SAM Dump</text>
    <text x="410.8333333333333" y="220.25" text-anchor="middle" font-family='system-ui,-apple-system,Inter,sans-serif' fill="#e6ecf3" font-size="11px">secretsdump</text>
    <text x="410.8333333333333" y="236.75" text-anchor="middle" font-family='system-ui,-apple-system,Inter,sans-serif' fill="#e6ecf3" font-size="11px">(Flag 3)</text>
    <rect x="375.3333333333333" y="248.0" width="71" height="18" rx="4" fill="#131820" stroke="#a55eea" stroke-width="0.8"/>
    <text x="410.8333333333333" y="261.0" text-anchor="middle" font-family='monospace' fill="#a55eea" font-size="9px">T1003.002</text>
    <rect x="494.99999999999994" y="162.0" width="108.33333333333333" height="78" rx="6" fill="#44d7b6" fill-opacity="0.12" stroke="#44d7b6" stroke-width="1.5" filter="url(#sd)"/>
    <g transform="translate(535.9666666666666,166.8) scale(0.55)"><rect x="4" y="4" width="40" height="40" rx="4" fill="none" stroke="#44d7b6" stroke-width="1.2"/><text x="10" y="20" fill="#44d7b6" font-size="10" font-family="monospace">&gt;_</text><text x="10" y="34" fill="#44d7b6" font-size="8" font-family="monospace">~$</text></g>
    <text x="549.1666666666666" y="203.75" text-anchor="middle" font-family='system-ui,-apple-system,Inter,sans-serif' fill="#e6ecf3" font-size="11px">Lateral Move</text>
    <text x="549.1666666666666" y="220.25" text-anchor="middle" font-family='system-ui,-apple-system,Inter,sans-serif' fill="#e6ecf3" font-size="11px">Pass-the-Hash</text>
    <text x="549.1666666666666" y="236.75" text-anchor="middle" font-family='system-ui,-apple-system,Inter,sans-serif' fill="#e6ecf3" font-size="11px">(Flag 4)</text>
    <rect x="513.6666666666666" y="248.0" width="71" height="18" rx="4" fill="#131820" stroke="#44d7b6" stroke-width="0.8"/>
    <text x="549.1666666666666" y="261.0" text-anchor="middle" font-family='monospace' fill="#44d7b6" font-size="9px">T1550.002</text>
    <rect x="633.3333333333333" y="162.0" width="108.33333333333333" height="78" rx="6" fill="#ff9f43" fill-opacity="0.12" stroke="#ff9f43" stroke-width="1.5" filter="url(#sd)"/>
    <g transform="translate(674.2999999999998,166.8) scale(0.55)"><circle cx="12" cy="24" r="8" fill="none" stroke="#ff9f43" stroke-width="1.2"/><line x1="20" y1="24" x2="44" y2="24" stroke="#ff9f43" stroke-width="1.2"/><line x1="28" y1="20" x2="28" y2="28" stroke="#ff9f43" stroke-width="1.2"/></g>
    <text x="687.4999999999999" y="203.75" text-anchor="middle" font-family='system-ui,-apple-system,Inter,sans-serif' fill="#e6ecf3" font-size="11px">Kerberoasting</text>
    <text x="687.4999999999999" y="220.25" text-anchor="middle" font-family='system-ui,-apple-system,Inter,sans-serif' fill="#e6ecf3" font-size="11px">GetUserSPNs</text>
    <text x="687.4999999999999" y="236.75" text-anchor="middle" font-family='system-ui,-apple-system,Inter,sans-serif' fill="#e6ecf3" font-size="11px">(Flag 5)</text>
    <rect x="651.9999999999999" y="248.0" width="71" height="18" rx="4" fill="#131820" stroke="#ff9f43" stroke-width="0.8"/>
    <text x="687.4999999999999" y="261.0" text-anchor="middle" font-family='monospace' fill="#ff9f43" font-size="9px">T1558.003</text>
    <rect x="771.6666666666665" y="162.0" width="108.33333333333333" height="78" rx="6" fill="#ff6b6b" fill-opacity="0.12" stroke="#ff6b6b" stroke-width="1.5" filter="url(#sd)"/>
    <g transform="translate(812.6333333333331,166.8) scale(0.55)"><path d="M24 4 L28 16 L38 14 L32 22 L42 28 L30 32 L26 44 L22 32 L12 34 L18 24 L8 20 L20 18 Z" fill="none" stroke="#ff6b6b" stroke-width="1.2"/></g>
    <text x="825.8333333333331" y="203.75" text-anchor="middle" font-family='system-ui,-apple-system,Inter,sans-serif' fill="#e6ecf3" font-size="11px">Persistance</text>
    <text x="825.8333333333331" y="220.25" text-anchor="middle" font-family='system-ui,-apple-system,Inter,sans-serif' fill="#e6ecf3" font-size="11px">DCSync + Golden Ticket</text>
    <text x="825.8333333333331" y="236.75" text-anchor="middle" font-family='system-ui,-apple-system,Inter,sans-serif' fill="#e6ecf3" font-size="11px">(Flag 6 Bonus)</text>
    <rect x="790.3333333333331" y="248.0" width="71" height="18" rx="4" fill="#131820" stroke="#ff6b6b" stroke-width="0.8"/>
    <text x="825.8333333333331" y="261.0" text-anchor="middle" font-family='monospace' fill="#ff6b6b" font-size="9px">T1558.001</text>
</svg>