<svg xmlns='http://www.w3.org/2000/svg' viewBox='0 0 920 520' width='920' height='520'>
  <defs>
    <filter id="sd"><feDropShadow dx="0" dy="2" stdDeviation="3" flood-color="#000" flood-opacity="0.3"/></filter>
    <marker id="aR" viewBox="0 0 10 7" refX="9" refY="3.5" markerWidth="8" markerHeight="6" orient="auto"><polygon points="0 0,10 3.5,0 7" fill="#e63946"/></marker>
    <marker id="aB" viewBox="0 0 10 7" refX="9" refY="3.5" markerWidth="8" markerHeight="6" orient="auto"><polygon points="0 0,10 3.5,0 7" fill="#54a0ff"/></marker>
    <marker id="aO" viewBox="0 0 10 7" refX="9" refY="3.5" markerWidth="8" markerHeight="6" orient="auto"><polygon points="0 0,10 3.5,0 7" fill="#ff9f43"/></marker>
    <marker id="aG" viewBox="0 0 10 7" refX="9" refY="3.5" markerWidth="8" markerHeight="6" orient="auto"><polygon points="0 0,10 3.5,0 7" fill="#44d7b6"/></marker>
    <marker id="aP" viewBox="0 0 10 7" refX="9" refY="3.5" markerWidth="8" markerHeight="6" orient="auto"><polygon points="0 0,10 3.5,0 7" fill="#a55eea"/></marker>
    
  </defs>
  <rect width='920' height='520' fill='#0a0e14' rx='10'/>
  <text x="40" y="36" text-anchor="start" font-family='system-ui,-apple-system,Inter,sans-serif' font-weight="600" fill="#e6ecf3" font-size="20px">Topologie reseau CorpShadow — 10.10.10.0/24</text>
    <line x1="40" y1="48" x2="280" y2="48" stroke="#e63946" stroke-width="2"/>
    <rect x="25" y="82" width="870" height="460" rx="10" fill="#131820" fill-opacity="0.5" stroke="#1e2d3d" stroke-width="1.2"/>
    <rect x="25" y="82" width="870" height="24" rx="10" fill="#131820"/>
    <rect x="25" y="82+24" width="870" height="460-24" rx="0" fill="none"/>
    <text x="35" y="99" text-anchor="start" font-family='system-ui,-apple-system,Inter,sans-serif' fill="#6b7a8d" font-size="11px">Reseau 10.10.10.0/24   </text>
    <rect x="123" y="142" width="84" height="60" rx="6" fill="#54a0ff" fill-opacity="0.12" stroke="#54a0ff" stroke-width="1.5" filter="url(#sd)"/>
    <g transform="translate(149.4,142.4) scale(0.65)"><rect x="4" y="4" width="40" height="10" rx="1.5" fill="none" stroke="#54a0ff" stroke-width="1.2"/><rect x="4" y="18" width="40" height="10" rx="1.5" fill="none" stroke="#54a0ff" stroke-width="1.2"/><rect x="4" y="32" width="40" height="10" rx="1.5" fill="none" stroke="#54a0ff" stroke-width="1.2"/><circle cx="14" cy="9" r="2" fill="#44d7b6"/><circle cx="14" cy="23" r="2" fill="#44d7b6"/><circle cx="14" cy="37" r="2" fill="#44d7b6"/></g>
    <text x="165" y="173.0" text-anchor="middle" font-family='system-ui,-apple-system,Inter,sans-serif' fill="#e6ecf3" font-size="10px">DC01</text>
    <text x="165" y="188.0" text-anchor="middle" font-family='system-ui,-apple-system,Inter,sans-serif' fill="#e6ecf3" font-size="10px">Controleur de domaine</text>
    <text x="165" y="203.0" text-anchor="middle" font-family='system-ui,-apple-system,Inter,sans-serif' fill="#e6ecf3" font-size="10px">Windows 2022</text>
    <text x="165" y="218.0" text-anchor="middle" font-family='system-ui,-apple-system,Inter,sans-serif' fill="#e6ecf3" font-size="10px">10.10.10.10</text>
    <rect x="463" y="142" width="84" height="60" rx="6" fill="#44d7b6" fill-opacity="0.12" stroke="#44d7b6" stroke-width="1.5" filter="url(#sd)"/>
    <g transform="translate(489.4,142.4) scale(0.65)"><path d="M6 10 L18 10 L22 16 L42 16 L42 38 L6 38 Z" fill="none" stroke="#44d7b6" stroke-width="1.2"/></g>
    <text x="505" y="173.0" text-anchor="middle" font-family='system-ui,-apple-system,Inter,sans-serif' fill="#e6ecf3" font-size="10px">FS01</text>
    <text x="505" y="188.0" text-anchor="middle" font-family='system-ui,-apple-system,Inter,sans-serif' fill="#e6ecf3" font-size="10px">File Server</text>
    <text x="505" y="203.0" text-anchor="middle" font-family='system-ui,-apple-system,Inter,sans-serif' fill="#e6ecf3" font-size="10px">Windows 2022</text>
    <text x="505" y="218.0" text-anchor="middle" font-family='system-ui,-apple-system,Inter,sans-serif' fill="#e6ecf3" font-size="10px">10.10.10.20</text>
    <rect x="293" y="322" width="84" height="60" rx="6" fill="#ff9f43" fill-opacity="0.12" stroke="#ff9f43" stroke-width="1.5" filter="url(#sd)"/>
    <g transform="translate(319.4,322.4) scale(0.65)"><rect x="4" y="4" width="40" height="28" rx="2" fill="none" stroke="#ff9f43" stroke-width="1.2"/><line x1="24" y1="32" x2="24" y2="40" stroke="#ff9f43" stroke-width="1.2"/><line x1="10" y1="40" x2="38" y2="40" stroke="#ff9f43" stroke-width="1.2"/></g>
    <text x="335" y="353.0" text-anchor="middle" font-family='system-ui,-apple-system,Inter,sans-serif' fill="#e6ecf3" font-size="10px">WS01</text>
    <text x="335" y="368.0" text-anchor="middle" font-family='system-ui,-apple-system,Inter,sans-serif' fill="#e6ecf3" font-size="10px">Workstation</text>
    <text x="335" y="383.0" text-anchor="middle" font-family='system-ui,-apple-system,Inter,sans-serif' fill="#e6ecf3" font-size="10px">Windows 11</text>
    <text x="335" y="398.0" text-anchor="middle" font-family='system-ui,-apple-system,Inter,sans-serif' fill="#e6ecf3" font-size="10px">10.10.10.100</text>
    <rect x="683" y="322" width="84" height="60" rx="6" fill="#e63946" fill-opacity="0.12" stroke="#e63946" stroke-width="1.5" filter="url(#sd)"/>
    <g transform="translate(709.4,322.4) scale(0.65)"><rect x="6" y="6" width="36" height="22" rx="2" fill="none" stroke="#e63946" stroke-width="1.2"/><path d="M2 40 L12 28 L36 28 L46 40 Z" fill="none" stroke="#e63946" stroke-width="1.2"/></g>
    <text x="725" y="360.5" text-anchor="middle" font-family='system-ui,-apple-system,Inter,sans-serif' fill="#e6ecf3" font-size="10px">Kali Attacker</text>
    <text x="725" y="375.5" text-anchor="middle" font-family='system-ui,-apple-system,Inter,sans-serif' fill="#e6ecf3" font-size="10px">10.10.10.200</text>
    <text x="725" y="390.5" text-anchor="middle" font-family='system-ui,-apple-system,Inter,sans-serif' fill="#e6ecf3" font-size="10px">Poste operateur</text>
    <path d="M335,352 Q335,242.0 165,172" fill="none" stroke="#e63946" stroke-width="1.8" marker-end="url(#aR)"/>
    <rect x="185.5" y="232.0" width="129" height="18" rx="4" fill="#0a0e14" stroke="#1e2d3d" stroke-width="0.8"/>
    <text x="250.0" y="245.0" text-anchor="middle" font-family='monospace' fill="#6b7a8d" font-size="9px">SMB/LDAP/Kerberos</text>
    <path d="M335,352 Q335,242.0 505,172" fill="none" stroke="#e63946" stroke-width="1.8" marker-end="url(#aR)"/>
    <rect x="404.5" y="232.0" width="31" height="18" rx="4" fill="#0a0e14" stroke="#1e2d3d" stroke-width="0.8"/>
    <text x="420.0" y="245.0" text-anchor="middle" font-family='monospace' fill="#6b7a8d" font-size="9px">SMB</text>
    <path d="M725,352 Q725,242.0 165,172" fill="none" stroke="#ff9f43" stroke-width="1.8" marker-end="url(#aO)"/>
    <rect x="412.0" y="232.0" width="66" height="18" rx="4" fill="#0a0e14" stroke="#1e2d3d" stroke-width="0.8"/>
    <text x="445.0" y="245.0" text-anchor="middle" font-family='monospace' fill="#6b7a8d" font-size="9px">Attaques</text>
    <path d="M725,352 Q725,332.0 335,352" fill="none" stroke="#ff9f43" stroke-width="1.8" marker-end="url(#aO)"/>
    <rect x="472.5" y="322.0" width="115" height="18" rx="4" fill="#0a0e14" stroke="#1e2d3d" stroke-width="0.8"/>
    <text x="530.0" y="335.0" text-anchor="middle" font-family='monospace' fill="#6b7a8d" font-size="9px">Responder/Relay</text>
</svg>