<svg xmlns='http://www.w3.org/2000/svg' viewBox='0 0 880 520' width='880' height='520'>
  <defs>
    <filter id="sd"><feDropShadow dx="0" dy="2" stdDeviation="3" flood-color="#000" flood-opacity="0.3"/></filter>
    <marker id="aR" viewBox="0 0 10 7" refX="9" refY="3.5" markerWidth="8" markerHeight="6" orient="auto"><polygon points="0 0,10 3.5,0 7" fill="#e63946"/></marker>
    <marker id="aB" viewBox="0 0 10 7" refX="9" refY="3.5" markerWidth="8" markerHeight="6" orient="auto"><polygon points="0 0,10 3.5,0 7" fill="#54a0ff"/></marker>
    <marker id="aO" viewBox="0 0 10 7" refX="9" refY="3.5" markerWidth="8" markerHeight="6" orient="auto"><polygon points="0 0,10 3.5,0 7" fill="#ff9f43"/></marker>
    <marker id="aG" viewBox="0 0 10 7" refX="9" refY="3.5" markerWidth="8" markerHeight="6" orient="auto"><polygon points="0 0,10 3.5,0 7" fill="#44d7b6"/></marker>
    <marker id="aP" viewBox="0 0 10 7" refX="9" refY="3.5" markerWidth="8" markerHeight="6" orient="auto"><polygon points="0 0,10 3.5,0 7" fill="#a55eea"/></marker>
    
  </defs>
  <rect width='880' height='520' fill='#0a0e14' rx='10'/>
  <text x="40" y="36" text-anchor="start" font-family='system-ui,-apple-system,Inter,sans-serif' font-weight="600" fill="#e6ecf3" font-size="20px">Carte de dependances — Flags CorpShadow</text>
    <line x1="40" y1="48" x2="280" y2="48" stroke="#e63946" stroke-width="2"/>
    <rect x="270.0" y="24.0" width="340" height="52" rx="6" fill="#54a0ff" fill-opacity="0.12" stroke="#54a0ff" stroke-width="1.5" filter="url(#sd)"/>
    <text x="440.0" y="59.0" text-anchor="middle" font-family='system-ui,-apple-system,Inter,sans-serif' fill="#e6ecf3" font-size="12px">Flag 1: BloodHound — Enumeration AD</text>
    <rect x="214.0" y="40" width="48" height="18" rx="4" fill="#131820" stroke="#54a0ff" stroke-width="0.8"/>
    <text x="238.0" y="53" text-anchor="middle" font-family='monospace' fill="#54a0ff" font-size="9px">F1</text>
    <line x1="440.0" y1="76.0" x2="440.0" y2="94.0" stroke="#e63946" stroke-width="1.8" marker-end="url(#aR)" />
    <rect x="270.0" y="94.0" width="340" height="52" rx="6" fill="#44d7b6" fill-opacity="0.12" stroke="#44d7b6" stroke-width="1.5" filter="url(#sd)"/>
    <text x="440.0" y="129.0" text-anchor="middle" font-family='system-ui,-apple-system,Inter,sans-serif' fill="#e6ecf3" font-size="12px">Flag 2: Responder — Capture NTLMv2</text>
    <rect x="214.0" y="110" width="48" height="18" rx="4" fill="#131820" stroke="#44d7b6" stroke-width="0.8"/>
    <text x="238.0" y="123" text-anchor="middle" font-family='monospace' fill="#44d7b6" font-size="9px">F2</text>
    <line x1="440.0" y1="146.0" x2="440.0" y2="164.0" stroke="#e63946" stroke-width="1.8" marker-end="url(#aB)" />
    <rect x="270.0" y="164.0" width="340" height="52" rx="6" fill="#a55eea" fill-opacity="0.12" stroke="#a55eea" stroke-width="1.5" filter="url(#sd)"/>
    <text x="440.0" y="199.0" text-anchor="middle" font-family='system-ui,-apple-system,Inter,sans-serif' fill="#e6ecf3" font-size="12px">Identifiants jdoe:Password!</text>
    <rect x="214.0" y="180" width="48" height="18" rx="4" fill="#131820" stroke="#a55eea" stroke-width="0.8"/>
    <text x="238.0" y="193" text-anchor="middle" font-family='monospace' fill="#a55eea" font-size="9px">Creds</text>
    <line x1="440.0" y1="216.0" x2="440.0" y2="234.0" stroke="#e63946" stroke-width="1.8" marker-end="url(#aO)" />
    <rect x="270.0" y="234.0" width="340" height="52" rx="6" fill="#e63946" fill-opacity="0.12" stroke="#e63946" stroke-width="1.5" filter="url(#sd)"/>
    <text x="440.0" y="260.0" text-anchor="middle" font-family='system-ui,-apple-system,Inter,sans-serif' fill="#e6ecf3" font-size="12px">Flag 3: secretsdump SAM</text>
    <text x="440.0" y="278.0" text-anchor="middle" font-family='system-ui,-apple-system,Inter,sans-serif' fill="#e6ecf3" font-size="12px">└── Flag 5: Kerberoasting</text>
    <rect x="214.0" y="250" width="48" height="18" rx="4" fill="#131820" stroke="#e63946" stroke-width="0.8"/>
    <text x="238.0" y="263" text-anchor="middle" font-family='monospace' fill="#e63946" font-size="9px">F3+F5</text>
    <line x1="440.0" y1="286.0" x2="440.0" y2="304.0" stroke="#e63946" stroke-width="1.8" marker-end="url(#aG)" />
    <rect x="270.0" y="304.0" width="340" height="52" rx="6" fill="#ff9f43" fill-opacity="0.12" stroke="#ff9f43" stroke-width="1.5" filter="url(#sd)"/>
    <text x="440.0" y="339.0" text-anchor="middle" font-family='system-ui,-apple-system,Inter,sans-serif' fill="#e6ecf3" font-size="12px">Flag 4: Pass-the-Hash → FS01</text>
    <rect x="214.0" y="320" width="48" height="18" rx="4" fill="#131820" stroke="#ff9f43" stroke-width="0.8"/>
    <text x="238.0" y="333" text-anchor="middle" font-family='monospace' fill="#ff9f43" font-size="9px">F4</text>
    <line x1="440.0" y1="356.0" x2="440.0" y2="374.0" stroke="#e63946" stroke-width="1.8" marker-end="url(#aP)" />
    <rect x="270.0" y="374.0" width="340" height="52" rx="6" fill="#a55eea" fill-opacity="0.12" stroke="#a55eea" stroke-width="1.5" filter="url(#sd)"/>
    <text x="440.0" y="409.0" text-anchor="middle" font-family='system-ui,-apple-system,Inter,sans-serif' fill="#e6ecf3" font-size="12px">Flag 6: DCSync + Golden Ticket (Bonus)</text>
    <rect x="214.0" y="390" width="48" height="18" rx="4" fill="#131820" stroke="#a55eea" stroke-width="0.8"/>
    <text x="238.0" y="403" text-anchor="middle" font-family='monospace' fill="#a55eea" font-size="9px">F6</text>
</svg>