<svg xmlns='http://www.w3.org/2000/svg' viewBox='0 0 700 350' width='700' height='350'>
  <defs>
    <filter id="sd"><feDropShadow dx="0" dy="2" stdDeviation="3" flood-color="#000" flood-opacity="0.3"/></filter>
    <marker id="aR" viewBox="0 0 10 7" refX="9" refY="3.5" markerWidth="8" markerHeight="6" orient="auto"><polygon points="0 0,10 3.5,0 7" fill="#e63946"/></marker>
    <marker id="aB" viewBox="0 0 10 7" refX="9" refY="3.5" markerWidth="8" markerHeight="6" orient="auto"><polygon points="0 0,10 3.5,0 7" fill="#54a0ff"/></marker>
    <marker id="aO" viewBox="0 0 10 7" refX="9" refY="3.5" markerWidth="8" markerHeight="6" orient="auto"><polygon points="0 0,10 3.5,0 7" fill="#ff9f43"/></marker>
    <marker id="aG" viewBox="0 0 10 7" refX="9" refY="3.5" markerWidth="8" markerHeight="6" orient="auto"><polygon points="0 0,10 3.5,0 7" fill="#44d7b6"/></marker>
    <marker id="aP" viewBox="0 0 10 7" refX="9" refY="3.5" markerWidth="8" markerHeight="6" orient="auto"><polygon points="0 0,10 3.5,0 7" fill="#a55eea"/></marker>
    
  </defs>
  <rect width='700' height='350' fill='#0a0e14' rx='10'/>
  <text x="40" y="36" text-anchor="start" font-family='system-ui,-apple-system,Inter,sans-serif' font-weight="600" fill="#e6ecf3" font-size="20px">TCP SYN Scan Handshake</text>
    <line x1="40" y1="48" x2="280" y2="48" stroke="#e63946" stroke-width="2"/>
    <rect x="191.66666666666666" y="55" width="110" height="34" rx="6" fill="#e63946" fill-opacity="0.12" stroke="#e63946" stroke-width="1.5" filter="url(#sd)"/>
    <text x="246.66666666666666" y="77" text-anchor="middle" font-family='system-ui,-apple-system,Inter,sans-serif' fill="#e6ecf3" font-size="11px">Client</text>
    <line x1="246.66666666666666" y1="89" x2="246.66666666666666" y2="320" stroke="#e63946" stroke-width="0.8" stroke-dasharray="4 4" />
    <rect x="398.3333333333333" y="55" width="110" height="34" rx="6" fill="#54a0ff" fill-opacity="0.12" stroke="#54a0ff" stroke-width="1.5" filter="url(#sd)"/>
    <text x="453.3333333333333" y="77" text-anchor="middle" font-family='system-ui,-apple-system,Inter,sans-serif' fill="#e6ecf3" font-size="11px">Serveur</text>
    <line x1="453.3333333333333" y1="89" x2="453.3333333333333" y2="320" stroke="#54a0ff" stroke-width="0.8" stroke-dasharray="4 4" />
    <line x1="246.66666666666666" y1="110" x2="453.3333333333333" y2="110" stroke="#e63946" stroke-width="1.5" marker-end="url(#aR)" />
    <rect x="334.5" y="86" width="31" height="18" rx="4" fill="#0a0e14" stroke="#1e2d3d" stroke-width="0.8"/>
    <text x="350.0" y="99" text-anchor="middle" font-family='monospace' fill="#6b7a8d" font-size="9px">SYN</text>
    <line x1="453.3333333333333" y1="155" x2="246.66666666666666" y2="155" stroke="#44d7b6" stroke-width="1.5" marker-end="url(#aG)" />
    <rect x="271.5" y="131" width="157" height="18" rx="4" fill="#0a0e14" stroke="#1e2d3d" stroke-width="0.8"/>
    <text x="350.0" y="144" text-anchor="middle" font-family='monospace' fill="#6b7a8d" font-size="9px">SYN-ACK (port ouvert)</text>
    <line x1="246.66666666666666" y1="200" x2="453.3333333333333" y2="200" stroke="#e63946" stroke-width="1.5" marker-end="url(#aR)" />
    <rect x="240.0" y="176" width="220" height="18" rx="4" fill="#0a0e14" stroke="#1e2d3d" stroke-width="0.8"/>
    <text x="350.0" y="189" text-anchor="middle" font-family='monospace' fill="#6b7a8d" font-size="9px">RST (fermeture sans handshake)</text>
</svg>