<svg xmlns='http://www.w3.org/2000/svg' viewBox='0 0 960 420' width='960' height='420'>
  <defs>
    <filter id="sd"><feDropShadow dx="0" dy="2" stdDeviation="3" flood-color="#000" flood-opacity="0.3"/></filter>
    <marker id="aR" viewBox="0 0 10 7" refX="9" refY="3.5" markerWidth="8" markerHeight="6" orient="auto"><polygon points="0 0,10 3.5,0 7" fill="#e63946"/></marker>
    <marker id="aB" viewBox="0 0 10 7" refX="9" refY="3.5" markerWidth="8" markerHeight="6" orient="auto"><polygon points="0 0,10 3.5,0 7" fill="#54a0ff"/></marker>
    <marker id="aO" viewBox="0 0 10 7" refX="9" refY="3.5" markerWidth="8" markerHeight="6" orient="auto"><polygon points="0 0,10 3.5,0 7" fill="#ff9f43"/></marker>
    <marker id="aG" viewBox="0 0 10 7" refX="9" refY="3.5" markerWidth="8" markerHeight="6" orient="auto"><polygon points="0 0,10 3.5,0 7" fill="#44d7b6"/></marker>
    <marker id="aP" viewBox="0 0 10 7" refX="9" refY="3.5" markerWidth="8" markerHeight="6" orient="auto"><polygon points="0 0,10 3.5,0 7" fill="#a55eea"/></marker>
    
  </defs>
  <rect width='960' height='420' fill='#0a0e14' rx='10'/>
  <text x="40" y="36" text-anchor="start" font-family='system-ui,-apple-system,Inter,sans-serif' font-weight="600" fill="#e6ecf3" font-size="20px">Structure d'un Domaine AD</text>
    <line x1="40" y1="48" x2="280" y2="48" stroke="#e63946" stroke-width="2"/>
    <rect x="380.0" y="45" width="200" height="44" rx="6" fill="#e63946" fill-opacity="0.12" stroke="#e63946" stroke-width="1.5" filter="url(#sd)"/>
    <text x="480.0" y="72" text-anchor="middle" font-family='system-ui,-apple-system,Inter,sans-serif' font-weight='600' fill="#e6ecf3" font-size="14px">sdv-m2.lab</text>
    <line x1="480.0" y1="89" x2="157.5" y2="138" stroke="#1e2d3d" stroke-width="1.2" />
    <rect x="67.5" y="140" width="180" height="40" rx="6" fill="#54a0ff" fill-opacity="0.12" stroke="#54a0ff" stroke-width="1.5" filter="url(#sd)"/>
    <text x="157.5" y="165" text-anchor="middle" font-family='system-ui,-apple-system,Inter,sans-serif' fill="#e6ecf3" font-size="12px">Utilisateurs</text>
    <rect x="207.5" y="142" width="55" height="18" rx="4" fill="#131820" stroke="#54a0ff" stroke-width="0.8"/>
    <text x="235.0" y="155" text-anchor="middle" font-family='monospace' fill="#54a0ff" font-size="9px">Users</text>
    <line x1="157.5" y1="180" x2="99.16666666666666" y2="234" stroke="#1e2d3d" stroke-width="1" />
    <rect x="31.166666666666657" y="238" width="136" height="26" rx="6" fill="#54a0ff" fill-opacity="0.12" stroke="#54a0ff" stroke-width="1.5" filter="url(#sd)"/>
    <text x="99.16666666666666" y="256" text-anchor="middle" font-family='system-ui,-apple-system,Inter,sans-serif' fill="#6b7a8d" font-size="10px">jdoe</text>
    <line x1="157.5" y1="180" x2="157.5" y2="234" stroke="#1e2d3d" stroke-width="1" />
    <rect x="89.5" y="238" width="136" height="26" rx="6" fill="#44d7b6" fill-opacity="0.12" stroke="#44d7b6" stroke-width="1.5" filter="url(#sd)"/>
    <text x="157.5" y="256" text-anchor="middle" font-family='system-ui,-apple-system,Inter,sans-serif' fill="#6b7a8d" font-size="10px">asmith</text>
    <line x1="157.5" y1="180" x2="215.83333333333331" y2="234" stroke="#1e2d3d" stroke-width="1" />
    <rect x="147.83333333333331" y="238" width="136" height="26" rx="6" fill="#a55eea" fill-opacity="0.12" stroke="#a55eea" stroke-width="1.5" filter="url(#sd)"/>
    <text x="215.83333333333331" y="256" text-anchor="middle" font-family='system-ui,-apple-system,Inter,sans-serif' fill="#6b7a8d" font-size="10px">admin01</text>
    <line x1="480.0" y1="89" x2="372.5" y2="138" stroke="#1e2d3d" stroke-width="1.2" />
    <rect x="282.5" y="140" width="180" height="40" rx="6" fill="#44d7b6" fill-opacity="0.12" stroke="#44d7b6" stroke-width="1.5" filter="url(#sd)"/>
    <text x="372.5" y="165" text-anchor="middle" font-family='system-ui,-apple-system,Inter,sans-serif' fill="#e6ecf3" font-size="12px">Groupes</text>
    <rect x="422.5" y="142" width="55" height="18" rx="4" fill="#131820" stroke="#44d7b6" stroke-width="0.8"/>
    <text x="450.0" y="155" text-anchor="middle" font-family='monospace' fill="#44d7b6" font-size="9px">Groups</text>
    <line x1="372.5" y1="180" x2="314.1666666666667" y2="234" stroke="#1e2d3d" stroke-width="1" />
    <rect x="246.16666666666669" y="238" width="136" height="26" rx="6" fill="#44d7b6" fill-opacity="0.12" stroke="#44d7b6" stroke-width="1.5" filter="url(#sd)"/>
    <text x="314.1666666666667" y="256" text-anchor="middle" font-family='system-ui,-apple-system,Inter,sans-serif' fill="#6b7a8d" font-size="10px">Domain Admins</text>
    <line x1="372.5" y1="180" x2="372.5" y2="234" stroke="#1e2d3d" stroke-width="1" />
    <rect x="304.5" y="238" width="136" height="26" rx="6" fill="#a55eea" fill-opacity="0.12" stroke="#a55eea" stroke-width="1.5" filter="url(#sd)"/>
    <text x="372.5" y="256" text-anchor="middle" font-family='system-ui,-apple-system,Inter,sans-serif' fill="#6b7a8d" font-size="10px">Domain Users</text>
    <line x1="372.5" y1="180" x2="430.83333333333337" y2="234" stroke="#1e2d3d" stroke-width="1" />
    <rect x="362.83333333333337" y="238" width="136" height="26" rx="6" fill="#ff9f43" fill-opacity="0.12" stroke="#ff9f43" stroke-width="1.5" filter="url(#sd)"/>
    <text x="430.83333333333337" y="256" text-anchor="middle" font-family='system-ui,-apple-system,Inter,sans-serif' fill="#6b7a8d" font-size="10px">Enterprise Admins</text>
    <line x1="480.0" y1="89" x2="587.5" y2="138" stroke="#1e2d3d" stroke-width="1.2" />
    <rect x="497.5" y="140" width="180" height="40" rx="6" fill="#a55eea" fill-opacity="0.12" stroke="#a55eea" stroke-width="1.5" filter="url(#sd)"/>
    <text x="587.5" y="165" text-anchor="middle" font-family='system-ui,-apple-system,Inter,sans-serif' fill="#e6ecf3" font-size="12px">Ordinateurs</text>
    <rect x="637.5" y="142" width="55" height="18" rx="4" fill="#131820" stroke="#a55eea" stroke-width="0.8"/>
    <text x="665.0" y="155" text-anchor="middle" font-family='monospace' fill="#a55eea" font-size="9px">Computers</text>
    <line x1="587.5" y1="180" x2="543.75" y2="234" stroke="#1e2d3d" stroke-width="1" />
    <rect x="475.75" y="238" width="136" height="26" rx="6" fill="#a55eea" fill-opacity="0.12" stroke="#a55eea" stroke-width="1.5" filter="url(#sd)"/>
    <text x="543.75" y="256" text-anchor="middle" font-family='system-ui,-apple-system,Inter,sans-serif' fill="#6b7a8d" font-size="10px">DC01.sdv-m2.lab</text>
    <line x1="587.5" y1="180" x2="631.25" y2="234" stroke="#1e2d3d" stroke-width="1" />
    <rect x="563.25" y="238" width="136" height="26" rx="6" fill="#ff9f43" fill-opacity="0.12" stroke="#ff9f43" stroke-width="1.5" filter="url(#sd)"/>
    <text x="631.25" y="256" text-anchor="middle" font-family='system-ui,-apple-system,Inter,sans-serif' fill="#6b7a8d" font-size="10px">SRV-APP.sdv-m2.lab</text>
    <line x1="480.0" y1="89" x2="802.5" y2="138" stroke="#1e2d3d" stroke-width="1.2" />
    <rect x="712.5" y="140" width="180" height="40" rx="6" fill="#ff9f43" fill-opacity="0.12" stroke="#ff9f43" stroke-width="1.5" filter="url(#sd)"/>
    <text x="802.5" y="165" text-anchor="middle" font-family='system-ui,-apple-system,Inter,sans-serif' fill="#e6ecf3" font-size="12px">Unités d'organisation</text>
    <rect x="852.5" y="142" width="55" height="18" rx="4" fill="#131820" stroke="#ff9f43" stroke-width="0.8"/>
    <text x="880.0" y="155" text-anchor="middle" font-family='monospace' fill="#ff9f43" font-size="9px">OUs</text>
    <line x1="802.5" y1="180" x2="758.75" y2="234" stroke="#1e2d3d" stroke-width="1" />
    <rect x="690.75" y="238" width="136" height="26" rx="6" fill="#ff9f43" fill-opacity="0.12" stroke="#ff9f43" stroke-width="1.5" filter="url(#sd)"/>
    <text x="758.75" y="256" text-anchor="middle" font-family='system-ui,-apple-system,Inter,sans-serif' fill="#6b7a8d" font-size="10px">OU=Paris</text>
    <line x1="802.5" y1="180" x2="846.25" y2="234" stroke="#1e2d3d" stroke-width="1" />
    <rect x="778.25" y="238" width="136" height="26" rx="6" fill="#e63946" fill-opacity="0.12" stroke="#e63946" stroke-width="1.5" filter="url(#sd)"/>
    <text x="846.25" y="256" text-anchor="middle" font-family='system-ui,-apple-system,Inter,sans-serif' fill="#6b7a8d" font-size="10px">OU=Lyon</text>
</svg>