<svg xmlns='http://www.w3.org/2000/svg' viewBox='0 0 880 420' width='880' height='420'>
  <defs>
    <filter id="sd"><feDropShadow dx="0" dy="2" stdDeviation="3" flood-color="#000" flood-opacity="0.3"/></filter>
    <marker id="aR" viewBox="0 0 10 7" refX="9" refY="3.5" markerWidth="8" markerHeight="6" orient="auto"><polygon points="0 0,10 3.5,0 7" fill="#e63946"/></marker>
    <marker id="aB" viewBox="0 0 10 7" refX="9" refY="3.5" markerWidth="8" markerHeight="6" orient="auto"><polygon points="0 0,10 3.5,0 7" fill="#54a0ff"/></marker>
    <marker id="aO" viewBox="0 0 10 7" refX="9" refY="3.5" markerWidth="8" markerHeight="6" orient="auto"><polygon points="0 0,10 3.5,0 7" fill="#ff9f43"/></marker>
    <marker id="aG" viewBox="0 0 10 7" refX="9" refY="3.5" markerWidth="8" markerHeight="6" orient="auto"><polygon points="0 0,10 3.5,0 7" fill="#44d7b6"/></marker>
    <marker id="aP" viewBox="0 0 10 7" refX="9" refY="3.5" markerWidth="8" markerHeight="6" orient="auto"><polygon points="0 0,10 3.5,0 7" fill="#a55eea"/></marker>
    
  </defs>
  <rect width='880' height='420' fill='#0a0e14' rx='10'/>
  <text x="40" y="36" text-anchor="start" font-family='system-ui,-apple-system,Inter,sans-serif' font-weight="600" fill="#e6ecf3" font-size="20px">Topologie SCAD</text>
    <line x1="40" y1="48" x2="280" y2="48" stroke="#e63946" stroke-width="2"/>
    <rect x="20" y="102" width="840" height="50" rx="10" fill="#131820" fill-opacity="0.5" stroke="#1e2d3d" stroke-width="1.2"/>
    <rect x="20" y="102" width="840" height="24" rx="10" fill="#131820"/>
    <rect x="20" y="102+24" width="840" height="50-24" rx="0" fill="none"/>
    <text x="30" y="119" text-anchor="start" font-family='system-ui,-apple-system,Inter,sans-serif' fill="#6b7a8d" font-size="11px">Internet   </text>
    <rect x="20" y="252" width="840" height="200" rx="10" fill="#131820" fill-opacity="0.5" stroke="#1e2d3d" stroke-width="1.2"/>
    <rect x="20" y="252" width="840" height="24" rx="10" fill="#131820"/>
    <rect x="20" y="252+24" width="840" height="200-24" rx="0" fill="none"/>
    <text x="30" y="269" text-anchor="start" font-family='system-ui,-apple-system,Inter,sans-serif' fill="#6b7a8d" font-size="11px">Réseau interne (10.0.1.0/24)   </text>
    <rect x="318" y="242" width="84" height="60" rx="6" fill="#e63946" fill-opacity="0.12" stroke="#e63946" stroke-width="1.5" filter="url(#sd)"/>
    <g transform="translate(344.4,242.4) scale(0.65)"><rect x="4" y="4" width="40" height="28" rx="2" fill="none" stroke="#e63946" stroke-width="1.2"/><line x1="24" y1="32" x2="24" y2="40" stroke="#e63946" stroke-width="1.2"/><line x1="10" y1="40" x2="38" y2="40" stroke="#e63946" stroke-width="1.2"/></g>
    <text x="360" y="288.0" text-anchor="middle" font-family='system-ui,-apple-system,Inter,sans-serif' fill="#e6ecf3" font-size="10px">CORP-PC01</text>
    <text x="360" y="303.0" text-anchor="middle" font-family='system-ui,-apple-system,Inter,sans-serif' fill="#e6ecf3" font-size="10px">10.0.1.15</text>
    <rect x="118" y="312" width="84" height="60" rx="6" fill="#54a0ff" fill-opacity="0.12" stroke="#54a0ff" stroke-width="1.5" filter="url(#sd)"/>
    <g transform="translate(144.4,312.4) scale(0.65)"><rect x="4" y="4" width="40" height="10" rx="1.5" fill="none" stroke="#54a0ff" stroke-width="1.2"/><rect x="4" y="18" width="40" height="10" rx="1.5" fill="none" stroke="#54a0ff" stroke-width="1.2"/><rect x="4" y="32" width="40" height="10" rx="1.5" fill="none" stroke="#54a0ff" stroke-width="1.2"/><circle cx="14" cy="9" r="2" fill="#44d7b6"/><circle cx="14" cy="23" r="2" fill="#44d7b6"/><circle cx="14" cy="37" r="2" fill="#44d7b6"/></g>
    <text x="160" y="358.0" text-anchor="middle" font-family='system-ui,-apple-system,Inter,sans-serif' fill="#e6ecf3" font-size="10px">FILESERVER</text>
    <text x="160" y="373.0" text-anchor="middle" font-family='system-ui,-apple-system,Inter,sans-serif' fill="#e6ecf3" font-size="10px">10.0.1.50</text>
    <rect x="398" y="312" width="84" height="60" rx="6" fill="#ff9f43" fill-opacity="0.12" stroke="#ff9f43" stroke-width="1.5" filter="url(#sd)"/>
    <g transform="translate(424.4,312.4) scale(0.65)"><ellipse cx="24" cy="8" rx="20" ry="6" fill="none" stroke="#ff9f43" stroke-width="1.2"/><path d="M4 8 L4 36" stroke="#ff9f43" stroke-width="1.2"/><path d="M44 8 L44 36" stroke="#ff9f43" stroke-width="1.2"/><ellipse cx="24" cy="36" rx="20" ry="6" fill="none" stroke="#ff9f43" stroke-width="1.2"/><ellipse cx="24" cy="22" rx="20" ry="6" fill="none" stroke="#ff9f43" stroke-width="1.2" stroke-dasharray="2 2"/></g>
    <text x="440" y="358.0" text-anchor="middle" font-family='system-ui,-apple-system,Inter,sans-serif' fill="#e6ecf3" font-size="10px">SRV01 (SQL)</text>
    <text x="440" y="373.0" text-anchor="middle" font-family='system-ui,-apple-system,Inter,sans-serif' fill="#e6ecf3" font-size="10px">10.0.1.30</text>
    <rect x="658" y="312" width="84" height="60" rx="6" fill="#44d7b6" fill-opacity="0.12" stroke="#44d7b6" stroke-width="1.5" filter="url(#sd)"/>
    <g transform="translate(684.4,312.4) scale(0.65)"><rect x="4" y="4" width="40" height="10" rx="1.5" fill="none" stroke="#44d7b6" stroke-width="1.2"/><rect x="4" y="18" width="40" height="10" rx="1.5" fill="none" stroke="#44d7b6" stroke-width="1.2"/><rect x="4" y="32" width="40" height="10" rx="1.5" fill="none" stroke="#44d7b6" stroke-width="1.2"/><circle cx="14" cy="9" r="2" fill="#44d7b6"/><circle cx="14" cy="23" r="2" fill="#44d7b6"/><circle cx="14" cy="37" r="2" fill="#44d7b6"/></g>
    <text x="700" y="358.0" text-anchor="middle" font-family='system-ui,-apple-system,Inter,sans-serif' fill="#e6ecf3" font-size="10px">DC01</text>
    <text x="700" y="373.0" text-anchor="middle" font-family='system-ui,-apple-system,Inter,sans-serif' fill="#e6ecf3" font-size="10px">10.0.1.10</text>
    <path d="M360,272 Q360,252.0 360,272" fill="none" stroke="#ff9f43" stroke-width="1.8" marker-end="url(#aO)"/>
    <rect x="327.0" y="242.0" width="66" height="18" rx="4" fill="#0a0e14" stroke="#1e2d3d" stroke-width="0.8"/>
    <text x="360.0" y="255.0" text-anchor="middle" font-family='monospace' fill="#6b7a8d" font-size="9px">Phishing</text>
    <path d="M360,272 Q360,287.0 160,342" fill="none" stroke="#e63946" stroke-width="1.8" marker-end="url(#aR)"/>
    <rect x="244.5" y="277.0" width="31" height="18" rx="4" fill="#0a0e14" stroke="#1e2d3d" stroke-width="0.8"/>
    <text x="260.0" y="290.0" text-anchor="middle" font-family='monospace' fill="#6b7a8d" font-size="9px">PtH</text>
    <path d="M160,342 Q160,322.0 440,342" fill="none" stroke="#e63946" stroke-width="1.8" marker-end="url(#aR)"/>
    <rect x="284.5" y="312.0" width="31" height="18" rx="4" fill="#0a0e14" stroke="#1e2d3d" stroke-width="0.8"/>
    <text x="300.0" y="325.0" text-anchor="middle" font-family='monospace' fill="#6b7a8d" font-size="9px">WMI</text>
    <path d="M440,342 Q440,322.0 700,342" fill="none" stroke="#e63946" stroke-width="1.8" marker-end="url(#aR)"/>
    <rect x="544.0" y="312.0" width="52" height="18" rx="4" fill="#0a0e14" stroke="#1e2d3d" stroke-width="0.8"/>
    <text x="570.0" y="325.0" text-anchor="middle" font-family='monospace' fill="#6b7a8d" font-size="9px">DCSync</text>
</svg>