<svg xmlns='http://www.w3.org/2000/svg' viewBox='0 0 960 240' width='960' height='240'>
  <defs>
    <filter id="sd"><feDropShadow dx="0" dy="2" stdDeviation="3" flood-color="#000" flood-opacity="0.3"/></filter>
    <marker id="aR" viewBox="0 0 10 7" refX="9" refY="3.5" markerWidth="8" markerHeight="6" orient="auto"><polygon points="0 0,10 3.5,0 7" fill="#e63946"/></marker>
    <marker id="aB" viewBox="0 0 10 7" refX="9" refY="3.5" markerWidth="8" markerHeight="6" orient="auto"><polygon points="0 0,10 3.5,0 7" fill="#54a0ff"/></marker>
    <marker id="aO" viewBox="0 0 10 7" refX="9" refY="3.5" markerWidth="8" markerHeight="6" orient="auto"><polygon points="0 0,10 3.5,0 7" fill="#ff9f43"/></marker>
    <marker id="aG" viewBox="0 0 10 7" refX="9" refY="3.5" markerWidth="8" markerHeight="6" orient="auto"><polygon points="0 0,10 3.5,0 7" fill="#44d7b6"/></marker>
    <marker id="aP" viewBox="0 0 10 7" refX="9" refY="3.5" markerWidth="8" markerHeight="6" orient="auto"><polygon points="0 0,10 3.5,0 7" fill="#a55eea"/></marker>
    
  </defs>
  <rect width='960' height='240' fill='#0a0e14' rx='10'/>
  <text x="40" y="36" text-anchor="start" font-family='system-ui,-apple-system,Inter,sans-serif' font-weight="600" fill="#e6ecf3" font-size="20px">AS-REP Roasting</text>
    <line x1="40" y1="48" x2="280" y2="48" stroke="#e63946" stroke-width="2"/>
    <line x1="216.0" y1="102.0" x2="246.0" y2="102.0" stroke="#e63946" stroke-width="1.8" marker-end="url(#aR)" />
    <line x1="382.0" y1="102.0" x2="412.0" y2="102.0" stroke="#e63946" stroke-width="1.8" marker-end="url(#aB)" />
    <line x1="548.0" y1="102.0" x2="578.0" y2="102.0" stroke="#e63946" stroke-width="1.8" marker-end="url(#aO)" />
    <line x1="714.0" y1="102.0" x2="744.0" y2="102.0" stroke="#e63946" stroke-width="1.8" marker-end="url(#aG)" />
    <rect x="80.0" y="62.0" width="136.0" height="78" rx="6" fill="#e63946" fill-opacity="0.12" stroke="#e63946" stroke-width="1.5" filter="url(#sd)"/>
    <g transform="translate(134.8,66.8) scale(0.55)"><circle cx="24" cy="12" r="8" fill="none" stroke="#e63946" stroke-width="1.2"/><path d="M8 38 Q8 22 24 22 Q40 22 40 38" fill="none" stroke="#e63946" stroke-width="1.2"/></g>
    <text x="148.0" y="112.0" text-anchor="middle" font-family='system-ui,-apple-system,Inter,sans-serif' fill="#e6ecf3" font-size="11px">Attaquant</text>
    <text x="148.0" y="128.5" text-anchor="middle" font-family='system-ui,-apple-system,Inter,sans-serif' fill="#e6ecf3" font-size="11px">(sans auth)</text>
    <rect x="112.5" y="148.0" width="71" height="18" rx="4" fill="#131820" stroke="#e63946" stroke-width="0.8"/>
    <text x="148.0" y="161.0" text-anchor="middle" font-family='monospace' fill="#e63946" font-size="9px">T1558.004</text>
    <rect x="246.0" y="62.0" width="136.0" height="78" rx="6" fill="#54a0ff" fill-opacity="0.12" stroke="#54a0ff" stroke-width="1.5" filter="url(#sd)"/>
    <g transform="translate(300.8,66.8) scale(0.55)"><rect x="4" y="6" width="40" height="32" rx="4" fill="none" stroke="#54a0ff" stroke-width="1.2"/><path d="M6 8 L24 24 L42 8" fill="none" stroke="#54a0ff" stroke-width="1.2"/></g>
    <text x="314.0" y="112.0" text-anchor="middle" font-family='system-ui,-apple-system,Inter,sans-serif' fill="#e6ecf3" font-size="11px">AS-REQ</text>
    <text x="314.0" y="128.5" text-anchor="middle" font-family='system-ui,-apple-system,Inter,sans-serif' fill="#e6ecf3" font-size="11px">(sans timestamp)</text>
    <rect x="292.0" y="148.0" width="44" height="18" rx="4" fill="#131820" stroke="#54a0ff" stroke-width="0.8"/>
    <text x="314.0" y="161.0" text-anchor="middle" font-family='monospace' fill="#54a0ff" font-size="9px">KDC</text>
    <rect x="412.0" y="62.0" width="136.0" height="78" rx="6" fill="#a55eea" fill-opacity="0.12" stroke="#a55eea" stroke-width="1.5" filter="url(#sd)"/>
    <g transform="translate(466.8,66.8) scale(0.55)"><rect x="4" y="4" width="40" height="10" rx="1.5" fill="none" stroke="#a55eea" stroke-width="1.2"/><rect x="4" y="18" width="40" height="10" rx="1.5" fill="none" stroke="#a55eea" stroke-width="1.2"/><rect x="4" y="32" width="40" height="10" rx="1.5" fill="none" stroke="#a55eea" stroke-width="1.2"/><circle cx="14" cy="9" r="2" fill="#44d7b6"/><circle cx="14" cy="23" r="2" fill="#44d7b6"/><circle cx="14" cy="37" r="2" fill="#44d7b6"/></g>
    <text x="480.0" y="112.0" text-anchor="middle" font-family='system-ui,-apple-system,Inter,sans-serif' fill="#e6ecf3" font-size="11px">AS-REP</text>
    <text x="480.0" y="128.5" text-anchor="middle" font-family='system-ui,-apple-system,Inter,sans-serif' fill="#e6ecf3" font-size="11px">(bloc chiffré)</text>
    <rect x="458.0" y="148.0" width="44" height="18" rx="4" fill="#131820" stroke="#a55eea" stroke-width="0.8"/>
    <text x="480.0" y="161.0" text-anchor="middle" font-family='monospace' fill="#a55eea" font-size="9px">DC</text>
    <rect x="578.0" y="62.0" width="136.0" height="78" rx="6" fill="#44d7b6" fill-opacity="0.12" stroke="#44d7b6" stroke-width="1.5" filter="url(#sd)"/>
    <g transform="translate(632.8,66.8) scale(0.55)"><rect x="4" y="4" width="40" height="40" rx="4" fill="none" stroke="#44d7b6" stroke-width="1.2"/><text x="10" y="20" fill="#44d7b6" font-size="10" font-family="monospace">&gt;_</text><text x="10" y="34" fill="#44d7b6" font-size="8" font-family="monospace">~$</text></g>
    <text x="646.0" y="112.0" text-anchor="middle" font-family='system-ui,-apple-system,Inter,sans-serif' fill="#e6ecf3" font-size="11px">Offline</text>
    <text x="646.0" y="128.5" text-anchor="middle" font-family='system-ui,-apple-system,Inter,sans-serif' fill="#e6ecf3" font-size="11px">Cracking</text>
    <rect x="617.5" y="148.0" width="57" height="18" rx="4" fill="#131820" stroke="#44d7b6" stroke-width="0.8"/>
    <text x="646.0" y="161.0" text-anchor="middle" font-family='monospace' fill="#44d7b6" font-size="9px">hashcat</text>
    <rect x="744.0" y="62.0" width="136.0" height="78" rx="6" fill="#ff9f43" fill-opacity="0.12" stroke="#ff9f43" stroke-width="1.5" filter="url(#sd)"/>
    <g transform="translate(798.8,66.8) scale(0.55)"><circle cx="12" cy="24" r="8" fill="none" stroke="#ff9f43" stroke-width="1.2"/><line x1="20" y1="24" x2="44" y2="24" stroke="#ff9f43" stroke-width="1.2"/><line x1="28" y1="20" x2="28" y2="28" stroke="#ff9f43" stroke-width="1.2"/></g>
    <text x="812.0" y="112.0" text-anchor="middle" font-family='system-ui,-apple-system,Inter,sans-serif' fill="#e6ecf3" font-size="11px">Mot de passe</text>
    <text x="812.0" y="128.5" text-anchor="middle" font-family='system-ui,-apple-system,Inter,sans-serif' fill="#e6ecf3" font-size="11px">Utilisateur</text>
    <rect x="790.0" y="148.0" width="44" height="18" rx="4" fill="#131820" stroke="#ff9f43" stroke-width="0.8"/>
    <text x="812.0" y="161.0" text-anchor="middle" font-family='monospace' fill="#ff9f43" font-size="9px">Pwned</text>
</svg>