<svg xmlns='http://www.w3.org/2000/svg' viewBox='0 0 960 280' width='960' height='280'>
  <defs>
    <filter id="sd"><feDropShadow dx="0" dy="2" stdDeviation="3" flood-color="#000" flood-opacity="0.3"/></filter>
    <marker id="aR" viewBox="0 0 10 7" refX="9" refY="3.5" markerWidth="8" markerHeight="6" orient="auto"><polygon points="0 0,10 3.5,0 7" fill="#e63946"/></marker>
    <marker id="aB" viewBox="0 0 10 7" refX="9" refY="3.5" markerWidth="8" markerHeight="6" orient="auto"><polygon points="0 0,10 3.5,0 7" fill="#54a0ff"/></marker>
    <marker id="aO" viewBox="0 0 10 7" refX="9" refY="3.5" markerWidth="8" markerHeight="6" orient="auto"><polygon points="0 0,10 3.5,0 7" fill="#ff9f43"/></marker>
    <marker id="aG" viewBox="0 0 10 7" refX="9" refY="3.5" markerWidth="8" markerHeight="6" orient="auto"><polygon points="0 0,10 3.5,0 7" fill="#44d7b6"/></marker>
    <marker id="aP" viewBox="0 0 10 7" refX="9" refY="3.5" markerWidth="8" markerHeight="6" orient="auto"><polygon points="0 0,10 3.5,0 7" fill="#a55eea"/></marker>
    
  </defs>
  <rect width='960' height='280' fill='#0a0e14' rx='10'/>
  <text x="40" y="36" text-anchor="start" font-family='system-ui,-apple-system,Inter,sans-serif' font-weight="600" fill="#e6ecf3" font-size="20px">Kerberoasting</text>
    <line x1="40" y1="48" x2="280" y2="48" stroke="#e63946" stroke-width="2"/>
    <line x1="188.33333333333331" y1="122.0" x2="218.33333333333331" y2="122.0" stroke="#e63946" stroke-width="1.8" marker-end="url(#aR)" />
    <line x1="326.66666666666663" y1="122.0" x2="356.66666666666663" y2="122.0" stroke="#e63946" stroke-width="1.8" marker-end="url(#aB)" />
    <line x1="464.99999999999994" y1="122.0" x2="494.99999999999994" y2="122.0" stroke="#e63946" stroke-width="1.8" marker-end="url(#aO)" />
    <line x1="603.3333333333333" y1="122.0" x2="633.3333333333333" y2="122.0" stroke="#e63946" stroke-width="1.8" marker-end="url(#aG)" />
    <line x1="741.6666666666666" y1="122.0" x2="771.6666666666665" y2="122.0" stroke="#e63946" stroke-width="1.8" marker-end="url(#aP)" />
    <rect x="80.0" y="82.0" width="108.33333333333333" height="78" rx="6" fill="#e63946" fill-opacity="0.12" stroke="#e63946" stroke-width="1.5" filter="url(#sd)"/>
    <g transform="translate(120.96666666666665,86.8) scale(0.55)"><circle cx="24" cy="12" r="8" fill="none" stroke="#e63946" stroke-width="1.2"/><path d="M8 38 Q8 22 24 22 Q40 22 40 38" fill="none" stroke="#e63946" stroke-width="1.2"/></g>
    <text x="134.16666666666666" y="132.0" text-anchor="middle" font-family='system-ui,-apple-system,Inter,sans-serif' fill="#e6ecf3" font-size="11px">Attaquant</text>
    <text x="134.16666666666666" y="148.5" text-anchor="middle" font-family='system-ui,-apple-system,Inter,sans-serif' fill="#e6ecf3" font-size="11px">(compte domaine)</text>
    <rect x="98.66666666666666" y="168.0" width="71" height="18" rx="4" fill="#131820" stroke="#e63946" stroke-width="0.8"/>
    <text x="134.16666666666666" y="181.0" text-anchor="middle" font-family='monospace' fill="#e63946" font-size="9px">T1558.003</text>
    <rect x="218.33333333333331" y="82.0" width="108.33333333333333" height="78" rx="6" fill="#54a0ff" fill-opacity="0.12" stroke="#54a0ff" stroke-width="1.5" filter="url(#sd)"/>
    <g transform="translate(259.3,86.8) scale(0.55)"><rect x="4" y="6" width="40" height="32" rx="4" fill="none" stroke="#54a0ff" stroke-width="1.2"/><path d="M6 8 L24 24 L42 8" fill="none" stroke="#54a0ff" stroke-width="1.2"/></g>
    <text x="272.5" y="132.0" text-anchor="middle" font-family='system-ui,-apple-system,Inter,sans-serif' fill="#e6ecf3" font-size="11px">TGS-REQ</text>
    <text x="272.5" y="148.5" text-anchor="middle" font-family='system-ui,-apple-system,Inter,sans-serif' fill="#e6ecf3" font-size="11px">(SPN: sql/srv01)</text>
    <rect x="250.5" y="168.0" width="44" height="18" rx="4" fill="#131820" stroke="#54a0ff" stroke-width="0.8"/>
    <text x="272.5" y="181.0" text-anchor="middle" font-family='monospace' fill="#54a0ff" font-size="9px">KDC</text>
    <rect x="356.66666666666663" y="82.0" width="108.33333333333333" height="78" rx="6" fill="#a55eea" fill-opacity="0.12" stroke="#a55eea" stroke-width="1.5" filter="url(#sd)"/>
    <g transform="translate(397.6333333333333,86.8) scale(0.55)"><rect x="4" y="4" width="40" height="10" rx="1.5" fill="none" stroke="#a55eea" stroke-width="1.2"/><rect x="4" y="18" width="40" height="10" rx="1.5" fill="none" stroke="#a55eea" stroke-width="1.2"/><rect x="4" y="32" width="40" height="10" rx="1.5" fill="none" stroke="#a55eea" stroke-width="1.2"/><circle cx="14" cy="9" r="2" fill="#44d7b6"/><circle cx="14" cy="23" r="2" fill="#44d7b6"/><circle cx="14" cy="37" r="2" fill="#44d7b6"/></g>
    <text x="410.8333333333333" y="132.0" text-anchor="middle" font-family='system-ui,-apple-system,Inter,sans-serif' fill="#e6ecf3" font-size="11px">KDC (DC)</text>
    <text x="410.8333333333333" y="148.5" text-anchor="middle" font-family='system-ui,-apple-system,Inter,sans-serif' fill="#e6ecf3" font-size="11px">Délivre TGS</text>
    <rect x="388.8333333333333" y="168.0" width="44" height="18" rx="4" fill="#131820" stroke="#a55eea" stroke-width="0.8"/>
    <text x="410.8333333333333" y="181.0" text-anchor="middle" font-family='monospace' fill="#a55eea" font-size="9px">DC</text>
    <rect x="494.99999999999994" y="82.0" width="108.33333333333333" height="78" rx="6" fill="#44d7b6" fill-opacity="0.12" stroke="#44d7b6" stroke-width="1.5" filter="url(#sd)"/>
    <g transform="translate(535.9666666666666,86.8) scale(0.55)"><path d="M16 16 L16 10 Q16 4 24 4 Q32 4 32 10 L32 16" fill="none" stroke="#44d7b6" stroke-width="1.2"/><rect x="10" y="16" width="28" height="26" rx="3" fill="none" stroke="#44d7b6" stroke-width="1.2"/></g>
    <text x="549.1666666666666" y="132.0" text-anchor="middle" font-family='system-ui,-apple-system,Inter,sans-serif' fill="#e6ecf3" font-size="11px">TGS-REP</text>
    <text x="549.1666666666666" y="148.5" text-anchor="middle" font-family='system-ui,-apple-system,Inter,sans-serif' fill="#e6ecf3" font-size="11px">(hash chiffré)</text>
    <rect x="527.1666666666666" y="168.0" width="44" height="18" rx="4" fill="#131820" stroke="#44d7b6" stroke-width="0.8"/>
    <text x="549.1666666666666" y="181.0" text-anchor="middle" font-family='monospace' fill="#44d7b6" font-size="9px">TGS</text>
    <rect x="633.3333333333333" y="82.0" width="108.33333333333333" height="78" rx="6" fill="#ff9f43" fill-opacity="0.12" stroke="#ff9f43" stroke-width="1.5" filter="url(#sd)"/>
    <g transform="translate(674.2999999999998,86.8) scale(0.55)"><rect x="4" y="4" width="40" height="40" rx="4" fill="none" stroke="#ff9f43" stroke-width="1.2"/><text x="10" y="20" fill="#44d7b6" font-size="10" font-family="monospace">&gt;_</text><text x="10" y="34" fill="#ff9f43" font-size="8" font-family="monospace">~$</text></g>
    <text x="687.4999999999999" y="132.0" text-anchor="middle" font-family='system-ui,-apple-system,Inter,sans-serif' fill="#e6ecf3" font-size="11px">Offline</text>
    <text x="687.4999999999999" y="148.5" text-anchor="middle" font-family='system-ui,-apple-system,Inter,sans-serif' fill="#e6ecf3" font-size="11px">Cracking</text>
    <rect x="658.9999999999999" y="168.0" width="57" height="18" rx="4" fill="#131820" stroke="#ff9f43" stroke-width="0.8"/>
    <text x="687.4999999999999" y="181.0" text-anchor="middle" font-family='monospace' fill="#ff9f43" font-size="9px">hashcat</text>
    <rect x="771.6666666666665" y="82.0" width="108.33333333333333" height="78" rx="6" fill="#ff6b6b" fill-opacity="0.12" stroke="#ff6b6b" stroke-width="1.5" filter="url(#sd)"/>
    <g transform="translate(812.6333333333331,86.8) scale(0.55)"><circle cx="12" cy="24" r="8" fill="none" stroke="#ff6b6b" stroke-width="1.2"/><line x1="20" y1="24" x2="44" y2="24" stroke="#ff6b6b" stroke-width="1.2"/><line x1="28" y1="20" x2="28" y2="28" stroke="#ff6b6b" stroke-width="1.2"/></g>
    <text x="825.8333333333331" y="132.0" text-anchor="middle" font-family='system-ui,-apple-system,Inter,sans-serif' fill="#e6ecf3" font-size="11px">Mot de passe</text>
    <text x="825.8333333333331" y="148.5" text-anchor="middle" font-family='system-ui,-apple-system,Inter,sans-serif' fill="#e6ecf3" font-size="11px">Service</text>
    <rect x="803.8333333333331" y="168.0" width="44" height="18" rx="4" fill="#131820" stroke="#ff6b6b" stroke-width="0.8"/>
    <text x="825.8333333333331" y="181.0" text-anchor="middle" font-family='monospace' fill="#ff6b6b" font-size="9px">Pwned</text>
</svg>