<svg xmlns='http://www.w3.org/2000/svg' viewBox='0 0 960 220' width='960' height='220'>
  <defs>
    <filter id="sd"><feDropShadow dx="0" dy="2" stdDeviation="3" flood-color="#000" flood-opacity="0.3"/></filter>
    <marker id="aR" viewBox="0 0 10 7" refX="9" refY="3.5" markerWidth="8" markerHeight="6" orient="auto"><polygon points="0 0,10 3.5,0 7" fill="#e63946"/></marker>
    <marker id="aB" viewBox="0 0 10 7" refX="9" refY="3.5" markerWidth="8" markerHeight="6" orient="auto"><polygon points="0 0,10 3.5,0 7" fill="#54a0ff"/></marker>
    <marker id="aO" viewBox="0 0 10 7" refX="9" refY="3.5" markerWidth="8" markerHeight="6" orient="auto"><polygon points="0 0,10 3.5,0 7" fill="#ff9f43"/></marker>
    <marker id="aG" viewBox="0 0 10 7" refX="9" refY="3.5" markerWidth="8" markerHeight="6" orient="auto"><polygon points="0 0,10 3.5,0 7" fill="#44d7b6"/></marker>
    <marker id="aP" viewBox="0 0 10 7" refX="9" refY="3.5" markerWidth="8" markerHeight="6" orient="auto"><polygon points="0 0,10 3.5,0 7" fill="#a55eea"/></marker>
    
  </defs>
  <rect width='960' height='220' fill='#0a0e14' rx='10'/>
  <text x="40" y="36" text-anchor="start" font-family='system-ui,-apple-system,Inter,sans-serif' font-weight="600" fill="#e6ecf3" font-size="20px">Overpass-the-Hash</text>
    <line x1="40" y1="48" x2="280" y2="48" stroke="#e63946" stroke-width="2"/>
    <line x1="295.0" y1="92.0" x2="325.0" y2="92.0" stroke="#e63946" stroke-width="1.8" marker-end="url(#aR)" />
    <line x1="465.0" y1="92.0" x2="495.0" y2="92.0" stroke="#e63946" stroke-width="1.8" marker-end="url(#aB)" />
    <line x1="635.0" y1="92.0" x2="665.0" y2="92.0" stroke="#e63946" stroke-width="1.8" marker-end="url(#aO)" />
    <rect x="155.0" y="52.0" width="140" height="78" rx="6" fill="#e63946" fill-opacity="0.12" stroke="#e63946" stroke-width="1.5" filter="url(#sd)"/>
    <g transform="translate(211.8,56.8) scale(0.55)"><circle cx="12" cy="24" r="8" fill="none" stroke="#e63946" stroke-width="1.2"/><line x1="20" y1="24" x2="44" y2="24" stroke="#e63946" stroke-width="1.2"/><line x1="28" y1="20" x2="28" y2="28" stroke="#e63946" stroke-width="1.2"/></g>
    <text x="225.0" y="102.0" text-anchor="middle" font-family='system-ui,-apple-system,Inter,sans-serif' fill="#e6ecf3" font-size="11px">Hash NTLM</text>
    <text x="225.0" y="118.5" text-anchor="middle" font-family='system-ui,-apple-system,Inter,sans-serif' fill="#e6ecf3" font-size="11px">(RC4)</text>
    <rect x="203.0" y="138.0" width="44" height="18" rx="4" fill="#131820" stroke="#e63946" stroke-width="0.8"/>
    <text x="225.0" y="151.0" text-anchor="middle" font-family='monospace' fill="#e63946" font-size="9px">NTLM</text>
    <rect x="325.0" y="52.0" width="140" height="78" rx="6" fill="#54a0ff" fill-opacity="0.12" stroke="#54a0ff" stroke-width="1.5" filter="url(#sd)"/>
    <g transform="translate(381.8,56.8) scale(0.55)"><rect x="4" y="6" width="40" height="32" rx="4" fill="none" stroke="#54a0ff" stroke-width="1.2"/><path d="M6 8 L24 24 L42 8" fill="none" stroke="#54a0ff" stroke-width="1.2"/></g>
    <text x="395.0" y="102.0" text-anchor="middle" font-family='system-ui,-apple-system,Inter,sans-serif' fill="#e6ecf3" font-size="11px">AS-REQ</text>
    <text x="395.0" y="118.5" text-anchor="middle" font-family='system-ui,-apple-system,Inter,sans-serif' fill="#e6ecf3" font-size="11px">(RC4_HMAC)</text>
    <rect x="373.0" y="138.0" width="44" height="18" rx="4" fill="#131820" stroke="#54a0ff" stroke-width="0.8"/>
    <text x="395.0" y="151.0" text-anchor="middle" font-family='monospace' fill="#54a0ff" font-size="9px">KDC</text>
    <rect x="495.0" y="52.0" width="140" height="78" rx="6" fill="#a55eea" fill-opacity="0.12" stroke="#a55eea" stroke-width="1.5" filter="url(#sd)"/>
    <g transform="translate(551.8,56.8) scale(0.55)"><rect x="4" y="4" width="40" height="10" rx="1.5" fill="none" stroke="#a55eea" stroke-width="1.2"/><rect x="4" y="18" width="40" height="10" rx="1.5" fill="none" stroke="#a55eea" stroke-width="1.2"/><rect x="4" y="32" width="40" height="10" rx="1.5" fill="none" stroke="#a55eea" stroke-width="1.2"/><circle cx="14" cy="9" r="2" fill="#44d7b6"/><circle cx="14" cy="23" r="2" fill="#44d7b6"/><circle cx="14" cy="37" r="2" fill="#44d7b6"/></g>
    <text x="565.0" y="102.0" text-anchor="middle" font-family='system-ui,-apple-system,Inter,sans-serif' fill="#e6ecf3" font-size="11px">KDC</text>
    <text x="565.0" y="118.5" text-anchor="middle" font-family='system-ui,-apple-system,Inter,sans-serif' fill="#e6ecf3" font-size="11px">(DC)</text>
    <rect x="543.0" y="138.0" width="44" height="18" rx="4" fill="#131820" stroke="#a55eea" stroke-width="0.8"/>
    <text x="565.0" y="151.0" text-anchor="middle" font-family='monospace' fill="#a55eea" font-size="9px">TGS</text>
    <rect x="665.0" y="52.0" width="140" height="78" rx="6" fill="#44d7b6" fill-opacity="0.12" stroke="#44d7b6" stroke-width="1.5" filter="url(#sd)"/>
    <g transform="translate(721.8,56.8) scale(0.55)"><path d="M16 16 L16 10 Q16 4 24 4 Q32 4 32 10 L32 16" fill="none" stroke="#44d7b6" stroke-width="1.2"/><rect x="10" y="16" width="28" height="26" rx="3" fill="none" stroke="#44d7b6" stroke-width="1.2"/></g>
    <text x="735.0" y="102.0" text-anchor="middle" font-family='system-ui,-apple-system,Inter,sans-serif' fill="#e6ecf3" font-size="11px">TGT</text>
    <text x="735.0" y="118.5" text-anchor="middle" font-family='system-ui,-apple-system,Inter,sans-serif' fill="#e6ecf3" font-size="11px">Ticket</text>
    <rect x="699.5" y="138.0" width="71" height="18" rx="4" fill="#131820" stroke="#44d7b6" stroke-width="0.8"/>
    <text x="735.0" y="151.0" text-anchor="middle" font-family='monospace' fill="#44d7b6" font-size="9px">T1550.002</text>
</svg>