<svg xmlns='http://www.w3.org/2000/svg' viewBox='0 0 960 280' width='960' height='280'>
  <defs>
    <filter id="sd"><feDropShadow dx="0" dy="2" stdDeviation="3" flood-color="#000" flood-opacity="0.3"/></filter>
    <marker id="aR" viewBox="0 0 10 7" refX="9" refY="3.5" markerWidth="8" markerHeight="6" orient="auto"><polygon points="0 0,10 3.5,0 7" fill="#e63946"/></marker>
    <marker id="aB" viewBox="0 0 10 7" refX="9" refY="3.5" markerWidth="8" markerHeight="6" orient="auto"><polygon points="0 0,10 3.5,0 7" fill="#54a0ff"/></marker>
    <marker id="aO" viewBox="0 0 10 7" refX="9" refY="3.5" markerWidth="8" markerHeight="6" orient="auto"><polygon points="0 0,10 3.5,0 7" fill="#ff9f43"/></marker>
    <marker id="aG" viewBox="0 0 10 7" refX="9" refY="3.5" markerWidth="8" markerHeight="6" orient="auto"><polygon points="0 0,10 3.5,0 7" fill="#44d7b6"/></marker>
    <marker id="aP" viewBox="0 0 10 7" refX="9" refY="3.5" markerWidth="8" markerHeight="6" orient="auto"><polygon points="0 0,10 3.5,0 7" fill="#a55eea"/></marker>
    
  </defs>
  <rect width='960' height='280' fill='#0a0e14' rx='10'/>
  <text x="40" y="36" text-anchor="start" font-family='system-ui,-apple-system,Inter,sans-serif' font-weight="600" fill="#e6ecf3" font-size="20px">Chaîne de compromission complète</text>
    <line x1="40" y1="48" x2="280" y2="48" stroke="#e63946" stroke-width="2"/>
    <line x1="168.57142857142856" y1="122.0" x2="198.57142857142856" y2="122.0" stroke="#e63946" stroke-width="1.8" marker-end="url(#aR)" />
    <line x1="287.1428571428571" y1="122.0" x2="317.1428571428571" y2="122.0" stroke="#e63946" stroke-width="1.8" marker-end="url(#aB)" />
    <line x1="405.71428571428567" y1="122.0" x2="435.7142857142857" y2="122.0" stroke="#e63946" stroke-width="1.8" marker-end="url(#aO)" />
    <line x1="524.2857142857143" y1="122.0" x2="554.2857142857142" y2="122.0" stroke="#e63946" stroke-width="1.8" marker-end="url(#aG)" />
    <line x1="642.8571428571428" y1="122.0" x2="672.8571428571429" y2="122.0" stroke="#e63946" stroke-width="1.8" marker-end="url(#aP)" />
    <line x1="761.4285714285714" y1="122.0" x2="791.4285714285714" y2="122.0" stroke="#e63946" stroke-width="1.8" marker-end="url(#aR)" />
    <rect x="80.0" y="82.0" width="88.57142857142857" height="78" rx="6" fill="#e63946" fill-opacity="0.12" stroke="#e63946" stroke-width="1.5" filter="url(#sd)"/>
    <g transform="translate(111.08571428571427,86.8) scale(0.55)"><circle cx="24" cy="12" r="8" fill="none" stroke="#e63946" stroke-width="1.2"/><path d="M8 38 Q8 22 24 22 Q40 22 40 38" fill="none" stroke="#e63946" stroke-width="1.2"/></g>
    <text x="124.28571428571428" y="132.0" text-anchor="middle" font-family='system-ui,-apple-system,Inter,sans-serif' fill="#e6ecf3" font-size="11px">User</text>
    <text x="124.28571428571428" y="148.5" text-anchor="middle" font-family='system-ui,-apple-system,Inter,sans-serif' fill="#e6ecf3" font-size="11px">Compromise</text>
    <rect x="102.28571428571428" y="168.0" width="44" height="18" rx="4" fill="#131820" stroke="#e63946" stroke-width="0.8"/>
    <text x="124.28571428571428" y="181.0" text-anchor="middle" font-family='monospace' fill="#e63946" font-size="9px">T1566</text>
    <rect x="198.57142857142856" y="82.0" width="88.57142857142857" height="78" rx="6" fill="#54a0ff" fill-opacity="0.12" stroke="#54a0ff" stroke-width="1.5" filter="url(#sd)"/>
    <g transform="translate(229.65714285714284,86.8) scale(0.55)"><rect x="4" y="4" width="40" height="28" rx="2" fill="none" stroke="#54a0ff" stroke-width="1.2"/><line x1="24" y1="32" x2="24" y2="40" stroke="#54a0ff" stroke-width="1.2"/><line x1="10" y1="40" x2="38" y2="40" stroke="#54a0ff" stroke-width="1.2"/></g>
    <text x="242.85714285714283" y="132.0" text-anchor="middle" font-family='system-ui,-apple-system,Inter,sans-serif' fill="#e6ecf3" font-size="11px">Admin</text>
    <text x="242.85714285714283" y="148.5" text-anchor="middle" font-family='system-ui,-apple-system,Inter,sans-serif' fill="#e6ecf3" font-size="11px">Local</text>
    <rect x="220.85714285714283" y="168.0" width="44" height="18" rx="4" fill="#131820" stroke="#54a0ff" stroke-width="0.8"/>
    <text x="242.85714285714283" y="181.0" text-anchor="middle" font-family='monospace' fill="#54a0ff" font-size="9px">T1068</text>
    <rect x="317.1428571428571" y="82.0" width="88.57142857142857" height="78" rx="6" fill="#a55eea" fill-opacity="0.12" stroke="#a55eea" stroke-width="1.5" filter="url(#sd)"/>
    <g transform="translate(348.2285714285714,86.8) scale(0.55)"><circle cx="12" cy="24" r="8" fill="none" stroke="#a55eea" stroke-width="1.2"/><line x1="20" y1="24" x2="44" y2="24" stroke="#a55eea" stroke-width="1.2"/><line x1="28" y1="20" x2="28" y2="28" stroke="#a55eea" stroke-width="1.2"/></g>
    <text x="361.4285714285714" y="132.0" text-anchor="middle" font-family='system-ui,-apple-system,Inter,sans-serif' fill="#e6ecf3" font-size="11px">Credential</text>
    <text x="361.4285714285714" y="148.5" text-anchor="middle" font-family='system-ui,-apple-system,Inter,sans-serif' fill="#e6ecf3" font-size="11px">Dump</text>
    <rect x="339.4285714285714" y="168.0" width="44" height="18" rx="4" fill="#131820" stroke="#a55eea" stroke-width="0.8"/>
    <text x="361.4285714285714" y="181.0" text-anchor="middle" font-family='monospace' fill="#a55eea" font-size="9px">T1003</text>
    <rect x="435.7142857142857" y="82.0" width="88.57142857142857" height="78" rx="6" fill="#44d7b6" fill-opacity="0.12" stroke="#44d7b6" stroke-width="1.5" filter="url(#sd)"/>
    <g transform="translate(466.8,86.8) scale(0.55)"><path d="M24 4 L28 16 L38 14 L32 22 L42 28 L30 32 L26 44 L22 32 L12 34 L18 24 L8 20 L20 18 Z" fill="none" stroke="#44d7b6" stroke-width="1.2"/></g>
    <text x="480.0" y="132.0" text-anchor="middle" font-family='system-ui,-apple-system,Inter,sans-serif' fill="#e6ecf3" font-size="11px">Pass-the</text>
    <text x="480.0" y="148.5" text-anchor="middle" font-family='system-ui,-apple-system,Inter,sans-serif' fill="#e6ecf3" font-size="11px">-Hash</text>
    <rect x="444.5" y="168.0" width="71" height="18" rx="4" fill="#131820" stroke="#44d7b6" stroke-width="0.8"/>
    <text x="480.0" y="181.0" text-anchor="middle" font-family='monospace' fill="#44d7b6" font-size="9px">T1550.002</text>
    <rect x="554.2857142857142" y="82.0" width="88.57142857142857" height="78" rx="6" fill="#ff9f43" fill-opacity="0.12" stroke="#ff9f43" stroke-width="1.5" filter="url(#sd)"/>
    <g transform="translate(585.3714285714285,86.8) scale(0.55)"><rect x="4" y="4" width="40" height="10" rx="1.5" fill="none" stroke="#ff9f43" stroke-width="1.2"/><rect x="4" y="18" width="40" height="10" rx="1.5" fill="none" stroke="#ff9f43" stroke-width="1.2"/><rect x="4" y="32" width="40" height="10" rx="1.5" fill="none" stroke="#ff9f43" stroke-width="1.2"/><circle cx="14" cy="9" r="2" fill="#44d7b6"/><circle cx="14" cy="23" r="2" fill="#44d7b6"/><circle cx="14" cy="37" r="2" fill="#44d7b6"/></g>
    <text x="598.5714285714286" y="132.0" text-anchor="middle" font-family='system-ui,-apple-system,Inter,sans-serif' fill="#e6ecf3" font-size="11px">Serveur</text>
    <text x="598.5714285714286" y="148.5" text-anchor="middle" font-family='system-ui,-apple-system,Inter,sans-serif' fill="#e6ecf3" font-size="11px">Fichier</text>
    <rect x="576.5714285714286" y="168.0" width="44" height="18" rx="4" fill="#131820" stroke="#ff9f43" stroke-width="0.8"/>
    <text x="598.5714285714286" y="181.0" text-anchor="middle" font-family='monospace' fill="#ff9f43" font-size="9px">T1021</text>
    <rect x="672.8571428571429" y="82.0" width="88.57142857142857" height="78" rx="6" fill="#ff6b6b" fill-opacity="0.12" stroke="#ff6b6b" stroke-width="1.5" filter="url(#sd)"/>
    <g transform="translate(703.9428571428572,86.8) scale(0.55)"><path d="M16 16 L16 10 Q16 4 24 4 Q32 4 32 10 L32 16" fill="none" stroke="#ff6b6b" stroke-width="1.2"/><rect x="10" y="16" width="28" height="26" rx="3" fill="none" stroke="#ff6b6b" stroke-width="1.2"/></g>
    <text x="717.1428571428572" y="132.0" text-anchor="middle" font-family='system-ui,-apple-system,Inter,sans-serif' fill="#e6ecf3" font-size="11px">Pass-the</text>
    <text x="717.1428571428572" y="148.5" text-anchor="middle" font-family='system-ui,-apple-system,Inter,sans-serif' fill="#e6ecf3" font-size="11px">-Ticket</text>
    <rect x="681.6428571428572" y="168.0" width="71" height="18" rx="4" fill="#131820" stroke="#ff6b6b" stroke-width="0.8"/>
    <text x="717.1428571428572" y="181.0" text-anchor="middle" font-family='monospace' fill="#ff6b6b" font-size="9px">T1550.003</text>
    <rect x="791.4285714285714" y="82.0" width="88.57142857142857" height="78" rx="6" fill="#54a0ff" fill-opacity="0.12" stroke="#54a0ff" stroke-width="1.5" filter="url(#sd)"/>
    <g transform="translate(822.5142857142857,86.8) scale(0.55)"><ellipse cx="24" cy="8" rx="20" ry="6" fill="none" stroke="#54a0ff" stroke-width="1.2"/><path d="M4 8 L4 36" stroke="#54a0ff" stroke-width="1.2"/><path d="M44 8 L44 36" stroke="#54a0ff" stroke-width="1.2"/><ellipse cx="24" cy="36" rx="20" ry="6" fill="none" stroke="#54a0ff" stroke-width="1.2"/><ellipse cx="24" cy="22" rx="20" ry="6" fill="none" stroke="#54a0ff" stroke-width="1.2" stroke-dasharray="2 2"/></g>
    <text x="835.7142857142858" y="132.0" text-anchor="middle" font-family='system-ui,-apple-system,Inter,sans-serif' fill="#e6ecf3" font-size="11px">DCSync</text>
    <text x="835.7142857142858" y="148.5" text-anchor="middle" font-family='system-ui,-apple-system,Inter,sans-serif' fill="#e6ecf3" font-size="11px">Domain Admin</text>
    <rect x="800.2142857142858" y="168.0" width="71" height="18" rx="4" fill="#131820" stroke="#54a0ff" stroke-width="0.8"/>
    <text x="835.7142857142858" y="181.0" text-anchor="middle" font-family='monospace' fill="#54a0ff" font-size="9px">T1003.006</text>
</svg>