<svg xmlns='http://www.w3.org/2000/svg' viewBox='0 0 880 500' width='880' height='500'>
  <defs>
    <filter id="sd"><feDropShadow dx="0" dy="2" stdDeviation="3" flood-color="#000" flood-opacity="0.3"/></filter>
    <marker id="aR" viewBox="0 0 10 7" refX="9" refY="3.5" markerWidth="8" markerHeight="6" orient="auto"><polygon points="0 0,10 3.5,0 7" fill="#e63946"/></marker>
    <marker id="aB" viewBox="0 0 10 7" refX="9" refY="3.5" markerWidth="8" markerHeight="6" orient="auto"><polygon points="0 0,10 3.5,0 7" fill="#54a0ff"/></marker>
    <marker id="aO" viewBox="0 0 10 7" refX="9" refY="3.5" markerWidth="8" markerHeight="6" orient="auto"><polygon points="0 0,10 3.5,0 7" fill="#ff9f43"/></marker>
    <marker id="aG" viewBox="0 0 10 7" refX="9" refY="3.5" markerWidth="8" markerHeight="6" orient="auto"><polygon points="0 0,10 3.5,0 7" fill="#44d7b6"/></marker>
    <marker id="aP" viewBox="0 0 10 7" refX="9" refY="3.5" markerWidth="8" markerHeight="6" orient="auto"><polygon points="0 0,10 3.5,0 7" fill="#a55eea"/></marker>
    
  </defs>
  <rect width='880' height='500' fill='#0a0e14' rx='10'/>
  <text x="40" y="36" text-anchor="start" font-family='system-ui,-apple-system,Inter,sans-serif' font-weight="600" fill="#e6ecf3" font-size="20px">Skeleton Key — Injection dans LSASS</text>
    <line x1="40" y1="48" x2="280" y2="48" stroke="#e63946" stroke-width="2"/>
    <rect x="31" y="77" width="460" height="450" rx="10" fill="#131820" fill-opacity="0.5" stroke="#1e2d3d" stroke-width="1.2"/>
    <rect x="31" y="77" width="460" height="24" rx="10" fill="#131820"/>
    <rect x="31" y="77+24" width="460" height="450-24" rx="0" fill="none"/>
    <text x="41" y="94" text-anchor="start" font-family='system-ui,-apple-system,Inter,sans-serif' fill="#6b7a8d" font-size="11px">Domain Controller   </text>
    <rect x="530" y="77" width="320" height="450" rx="10" fill="#131820" fill-opacity="0.5" stroke="#1e2d3d" stroke-width="1.2"/>
    <rect x="530" y="77" width="320" height="24" rx="10" fill="#131820"/>
    <rect x="530" y="77+24" width="320" height="450-24" rx="0" fill="none"/>
    <text x="540" y="94" text-anchor="start" font-family='system-ui,-apple-system,Inter,sans-serif' fill="#6b7a8d" font-size="11px">Clients du domaine   </text>
    <rect x="189" y="137" width="84" height="60" rx="6" fill="#e63946" fill-opacity="0.12" stroke="#e63946" stroke-width="1.5" filter="url(#sd)"/>
    <g transform="translate(215.4,137.4) scale(0.65)"><rect x="4" y="4" width="40" height="10" rx="1.5" fill="none" stroke="#e63946" stroke-width="1.2"/><rect x="4" y="18" width="40" height="10" rx="1.5" fill="none" stroke="#e63946" stroke-width="1.2"/><rect x="4" y="32" width="40" height="10" rx="1.5" fill="none" stroke="#e63946" stroke-width="1.2"/><circle cx="14" cy="9" r="2" fill="#44d7b6"/><circle cx="14" cy="23" r="2" fill="#44d7b6"/><circle cx="14" cy="37" r="2" fill="#44d7b6"/></g>
    <text x="231" y="190.5" text-anchor="middle" font-family='system-ui,-apple-system,Inter,sans-serif' fill="#e6ecf3" font-size="10px">LSASS</text>
    <rect x="89" y="247" width="84" height="60" rx="6" fill="#a55eea" fill-opacity="0.12" stroke="#a55eea" stroke-width="1.5" filter="url(#sd)"/>
    <g transform="translate(115.4,247.4) scale(0.65)"><circle cx="12" cy="24" r="8" fill="none" stroke="#a55eea" stroke-width="1.2"/><line x1="20" y1="24" x2="44" y2="24" stroke="#a55eea" stroke-width="1.2"/><line x1="28" y1="20" x2="28" y2="28" stroke="#a55eea" stroke-width="1.2"/></g>
    <text x="131" y="293.0" text-anchor="middle" font-family='system-ui,-apple-system,Inter,sans-serif' fill="#e6ecf3" font-size="10px">NTLM Provider</text>
    <text x="131" y="308.0" text-anchor="middle" font-family='system-ui,-apple-system,Inter,sans-serif' fill="#e6ecf3" font-size="10px">Password: mimikatz</text>
    <rect x="289" y="247" width="84" height="60" rx="6" fill="#54a0ff" fill-opacity="0.12" stroke="#54a0ff" stroke-width="1.5" filter="url(#sd)"/>
    <g transform="translate(315.4,247.4) scale(0.65)"><circle cx="12" cy="24" r="8" fill="none" stroke="#54a0ff" stroke-width="1.2"/><line x1="20" y1="24" x2="44" y2="24" stroke="#54a0ff" stroke-width="1.2"/><line x1="28" y1="20" x2="28" y2="28" stroke="#54a0ff" stroke-width="1.2"/></g>
    <text x="331" y="293.0" text-anchor="middle" font-family='system-ui,-apple-system,Inter,sans-serif' fill="#e6ecf3" font-size="10px">Kerberos</text>
    <text x="331" y="308.0" text-anchor="middle" font-family='system-ui,-apple-system,Inter,sans-serif' fill="#e6ecf3" font-size="10px">Provider</text>
    <rect x="588" y="157" width="84" height="60" rx="6" fill="#44d7b6" fill-opacity="0.12" stroke="#44d7b6" stroke-width="1.5" filter="url(#sd)"/>
    <g transform="translate(614.4,157.4) scale(0.65)"><circle cx="24" cy="12" r="8" fill="none" stroke="#44d7b6" stroke-width="1.2"/><path d="M8 38 Q8 22 24 22 Q40 22 40 38" fill="none" stroke="#44d7b6" stroke-width="1.2"/></g>
    <text x="630" y="203.0" text-anchor="middle" font-family='system-ui,-apple-system,Inter,sans-serif' fill="#e6ecf3" font-size="10px">alice:mimikatz</text>
    <text x="630" y="218.0" text-anchor="middle" font-family='system-ui,-apple-system,Inter,sans-serif' fill="#e6ecf3" font-size="10px">valide ✓</text>
    <rect x="588" y="317" width="84" height="60" rx="6" fill="#44d7b6" fill-opacity="0.12" stroke="#44d7b6" stroke-width="1.5" filter="url(#sd)"/>
    <g transform="translate(614.4,317.4) scale(0.65)"><circle cx="24" cy="12" r="8" fill="none" stroke="#44d7b6" stroke-width="1.2"/><path d="M8 38 Q8 22 24 22 Q40 22 40 38" fill="none" stroke="#44d7b6" stroke-width="1.2"/></g>
    <text x="630" y="363.0" text-anchor="middle" font-family='system-ui,-apple-system,Inter,sans-serif' fill="#e6ecf3" font-size="10px">bob:P@ssword</text>
    <text x="630" y="378.0" text-anchor="middle" font-family='system-ui,-apple-system,Inter,sans-serif' fill="#e6ecf3" font-size="10px">valide ✓</text>
    <path d="M630,187 Q630,212.0 131,277" fill="none" stroke="#e63946" stroke-width="1.8" marker-end="url(#aR)"/>
    <rect x="319.5" y="202.0" width="122" height="18" rx="4" fill="#0a0e14" stroke="#1e2d3d" stroke-width="0.8"/>
    <text x="380.5" y="215.0" text-anchor="middle" font-family='monospace' fill="#6b7a8d" font-size="9px">Authentification</text>
    <path d="M630,347 Q630,292.0 131,277" fill="none" stroke="#e63946" stroke-width="1.8" marker-end="url(#aR)"/>
    <rect x="319.5" y="282.0" width="122" height="18" rx="4" fill="#0a0e14" stroke="#1e2d3d" stroke-width="0.8"/>
    <text x="380.5" y="295.0" text-anchor="middle" font-family='monospace' fill="#6b7a8d" font-size="9px">Authentification</text>
    <path d="M231,167 Q231,202.0 131,277" fill="none" stroke="#ff9f43" stroke-width="1.8" marker-end="url(#aO)"/>
    <rect x="148.0" y="192.0" width="66" height="18" rx="4" fill="#0a0e14" stroke="#1e2d3d" stroke-width="0.8"/>
    <text x="181.0" y="205.0" text-anchor="middle" font-family='monospace' fill="#6b7a8d" font-size="9px">Contient</text>
    <path d="M231,167 Q231,202.0 331,277" fill="none" stroke="#ff9f43" stroke-width="1.8" marker-end="url(#aO)"/>
    <rect x="248.0" y="192.0" width="66" height="18" rx="4" fill="#0a0e14" stroke="#1e2d3d" stroke-width="0.8"/>
    <text x="281.0" y="205.0" text-anchor="middle" font-family='monospace' fill="#6b7a8d" font-size="9px">Contient</text>
</svg>