<svg xmlns='http://www.w3.org/2000/svg' viewBox='0 0 940 520' width='940' height='520'>
  <defs>
    <filter id="sd"><feDropShadow dx="0" dy="2" stdDeviation="3" flood-color="#000" flood-opacity="0.3"/></filter>
    <marker id="aR" viewBox="0 0 10 7" refX="9" refY="3.5" markerWidth="8" markerHeight="6" orient="auto"><polygon points="0 0,10 3.5,0 7" fill="#e63946"/></marker>
    <marker id="aB" viewBox="0 0 10 7" refX="9" refY="3.5" markerWidth="8" markerHeight="6" orient="auto"><polygon points="0 0,10 3.5,0 7" fill="#54a0ff"/></marker>
    <marker id="aO" viewBox="0 0 10 7" refX="9" refY="3.5" markerWidth="8" markerHeight="6" orient="auto"><polygon points="0 0,10 3.5,0 7" fill="#ff9f43"/></marker>
    <marker id="aG" viewBox="0 0 10 7" refX="9" refY="3.5" markerWidth="8" markerHeight="6" orient="auto"><polygon points="0 0,10 3.5,0 7" fill="#44d7b6"/></marker>
    <marker id="aP" viewBox="0 0 10 7" refX="9" refY="3.5" markerWidth="8" markerHeight="6" orient="auto"><polygon points="0 0,10 3.5,0 7" fill="#a55eea"/></marker>
    
  </defs>
  <rect width='940' height='520' fill='#0a0e14' rx='10'/>
  <text x="40" y="36" text-anchor="start" font-family='system-ui,-apple-system,Inter,sans-serif' font-weight="600" fill="#e6ecf3" font-size="20px">ADCS Attack Surface — Vecteurs d'attaque</text>
    <line x1="40" y1="48" x2="280" y2="48" stroke="#e63946" stroke-width="2"/>
    <rect x="370.0" y="45" width="200" height="44" rx="6" fill="#e63946" fill-opacity="0.12" stroke="#e63946" stroke-width="1.5" filter="url(#sd)"/>
    <text x="470.0" y="72" text-anchor="middle" font-family='system-ui,-apple-system,Inter,sans-serif' font-weight='600' fill="#e6ecf3" font-size="14px">ADCS Attack Surface</text>
    <line x1="470.0" y1="89" x2="155.0" y2="138" stroke="#1e2d3d" stroke-width="1.2" />
    <rect x="65.0" y="140" width="180" height="40" rx="6" fill="#54a0ff" fill-opacity="0.12" stroke="#54a0ff" stroke-width="1.5" filter="url(#sd)"/>
    <text x="155.0" y="165" text-anchor="middle" font-family='system-ui,-apple-system,Inter,sans-serif' fill="#e6ecf3" font-size="12px">Templates vulnérables</text>
    <rect x="205.0" y="142" width="55" height="18" rx="4" fill="#131820" stroke="#54a0ff" stroke-width="0.8"/>
    <text x="232.5" y="155" text-anchor="middle" font-family='monospace' fill="#54a0ff" font-size="9px">ESC1-4</text>
    <line x1="155.0" y1="180" x2="91.25" y2="234" stroke="#1e2d3d" stroke-width="1" />
    <rect x="23.25" y="238" width="136" height="26" rx="6" fill="#54a0ff" fill-opacity="0.12" stroke="#54a0ff" stroke-width="1.5" filter="url(#sd)"/>
    <text x="91.25" y="256" text-anchor="middle" font-family='system-ui,-apple-system,Inter,sans-serif' fill="#6b7a8d" font-size="10px">ESC1: Template + EnrolleeSuppliesSubject</text>
    <line x1="155.0" y1="180" x2="133.75" y2="234" stroke="#1e2d3d" stroke-width="1" />
    <rect x="65.75" y="238" width="136" height="26" rx="6" fill="#44d7b6" fill-opacity="0.12" stroke="#44d7b6" stroke-width="1.5" filter="url(#sd)"/>
    <text x="133.75" y="256" text-anchor="middle" font-family='system-ui,-apple-system,Inter,sans-serif' fill="#6b7a8d" font-size="10px">ESC2: Template + Any Purpose EKU</text>
    <line x1="155.0" y1="180" x2="176.25" y2="234" stroke="#1e2d3d" stroke-width="1" />
    <rect x="108.25" y="238" width="136" height="26" rx="6" fill="#a55eea" fill-opacity="0.12" stroke="#a55eea" stroke-width="1.5" filter="url(#sd)"/>
    <text x="176.25" y="256" text-anchor="middle" font-family='system-ui,-apple-system,Inter,sans-serif' fill="#6b7a8d" font-size="10px">ESC3: Mauvaises permissions Manager CA</text>
    <line x1="155.0" y1="180" x2="218.75" y2="234" stroke="#1e2d3d" stroke-width="1" />
    <rect x="150.75" y="238" width="136" height="26" rx="6" fill="#ff9f43" fill-opacity="0.12" stroke="#ff9f43" stroke-width="1.5" filter="url(#sd)"/>
    <text x="218.75" y="256" text-anchor="middle" font-family='system-ui,-apple-system,Inter,sans-serif' fill="#6b7a8d" font-size="10px">ESC4: Accès ACL sur template (Write)</text>
    <line x1="470.0" y1="89" x2="365.0" y2="138" stroke="#1e2d3d" stroke-width="1.2" />
    <rect x="275.0" y="140" width="180" height="40" rx="6" fill="#44d7b6" fill-opacity="0.12" stroke="#44d7b6" stroke-width="1.5" filter="url(#sd)"/>
    <text x="365.0" y="165" text-anchor="middle" font-family='system-ui,-apple-system,Inter,sans-serif' fill="#e6ecf3" font-size="12px">Configurations CA</text>
    <rect x="415.0" y="142" width="55" height="18" rx="4" fill="#131820" stroke="#44d7b6" stroke-width="0.8"/>
    <text x="442.5" y="155" text-anchor="middle" font-family='monospace' fill="#44d7b6" font-size="9px">ESC5-7</text>
    <line x1="365.0" y1="180" x2="308.3333333333333" y2="234" stroke="#1e2d3d" stroke-width="1" />
    <rect x="240.33333333333331" y="238" width="136" height="26" rx="6" fill="#44d7b6" fill-opacity="0.12" stroke="#44d7b6" stroke-width="1.5" filter="url(#sd)"/>
    <text x="308.3333333333333" y="256" text-anchor="middle" font-family='system-ui,-apple-system,Inter,sans-serif' fill="#6b7a8d" font-size="10px">ESC5: WriteDACL sur CA</text>
    <line x1="365.0" y1="180" x2="365.0" y2="234" stroke="#1e2d3d" stroke-width="1" />
    <rect x="297.0" y="238" width="136" height="26" rx="6" fill="#a55eea" fill-opacity="0.12" stroke="#a55eea" stroke-width="1.5" filter="url(#sd)"/>
    <text x="365.0" y="256" text-anchor="middle" font-family='system-ui,-apple-system,Inter,sans-serif' fill="#6b7a8d" font-size="10px">ESC6: EDITF_ATTRIBUTESUBJECTALTNAME2</text>
    <line x1="365.0" y1="180" x2="421.66666666666663" y2="234" stroke="#1e2d3d" stroke-width="1" />
    <rect x="353.66666666666663" y="238" width="136" height="26" rx="6" fill="#ff9f43" fill-opacity="0.12" stroke="#ff9f43" stroke-width="1.5" filter="url(#sd)"/>
    <text x="421.66666666666663" y="256" text-anchor="middle" font-family='system-ui,-apple-system,Inter,sans-serif' fill="#6b7a8d" font-size="10px">ESC7: ManageCA + ManageCertificate</text>
    <line x1="470.0" y1="89" x2="575.0" y2="138" stroke="#1e2d3d" stroke-width="1.2" />
    <rect x="485.0" y="140" width="180" height="40" rx="6" fill="#a55eea" fill-opacity="0.12" stroke="#a55eea" stroke-width="1.5" filter="url(#sd)"/>
    <text x="575.0" y="165" text-anchor="middle" font-family='system-ui,-apple-system,Inter,sans-serif' fill="#e6ecf3" font-size="12px">Web Enrollment &amp; Relais</text>
    <rect x="625.0" y="142" width="55" height="18" rx="4" fill="#131820" stroke="#a55eea" stroke-width="0.8"/>
    <text x="652.5" y="155" text-anchor="middle" font-family='monospace' fill="#a55eea" font-size="9px">ESC8-11</text>
    <line x1="575.0" y1="180" x2="511.25" y2="234" stroke="#1e2d3d" stroke-width="1" />
    <rect x="443.25" y="238" width="136" height="26" rx="6" fill="#a55eea" fill-opacity="0.12" stroke="#a55eea" stroke-width="1.5" filter="url(#sd)"/>
    <text x="511.25" y="256" text-anchor="middle" font-family='system-ui,-apple-system,Inter,sans-serif' fill="#6b7a8d" font-size="10px">ESC8: NTLM Relay vers ADCS Web</text>
    <line x1="575.0" y1="180" x2="553.75" y2="234" stroke="#1e2d3d" stroke-width="1" />
    <rect x="485.75" y="238" width="136" height="26" rx="6" fill="#ff9f43" fill-opacity="0.12" stroke="#ff9f43" stroke-width="1.5" filter="url(#sd)"/>
    <text x="553.75" y="256" text-anchor="middle" font-family='system-ui,-apple-system,Inter,sans-serif' fill="#6b7a8d" font-size="10px">ESC9: NoSecurityExtension</text>
    <line x1="575.0" y1="180" x2="596.25" y2="234" stroke="#1e2d3d" stroke-width="1" />
    <rect x="528.25" y="238" width="136" height="26" rx="6" fill="#e63946" fill-opacity="0.12" stroke="#e63946" stroke-width="1.5" filter="url(#sd)"/>
    <text x="596.25" y="256" text-anchor="middle" font-family='system-ui,-apple-system,Inter,sans-serif' fill="#6b7a8d" font-size="10px">ESC10: WeakCertificateThumbprint</text>
    <line x1="575.0" y1="180" x2="638.75" y2="234" stroke="#1e2d3d" stroke-width="1" />
    <rect x="570.75" y="238" width="136" height="26" rx="6" fill="#54a0ff" fill-opacity="0.12" stroke="#54a0ff" stroke-width="1.5" filter="url(#sd)"/>
    <text x="638.75" y="256" text-anchor="middle" font-family='system-ui,-apple-system,Inter,sans-serif' fill="#6b7a8d" font-size="10px">ESC11: Relative path ICertRequest</text>
    <line x1="470.0" y1="89" x2="785.0" y2="138" stroke="#1e2d3d" stroke-width="1.2" />
    <rect x="695.0" y="140" width="180" height="40" rx="6" fill="#ff9f43" fill-opacity="0.12" stroke="#ff9f43" stroke-width="1.5" filter="url(#sd)"/>
    <text x="785.0" y="165" text-anchor="middle" font-family='system-ui,-apple-system,Inter,sans-serif' fill="#e6ecf3" font-size="12px">Avancé</text>
    <rect x="835.0" y="142" width="55" height="18" rx="4" fill="#131820" stroke="#ff9f43" stroke-width="0.8"/>
    <text x="862.5" y="155" text-anchor="middle" font-family='monospace' fill="#ff9f43" font-size="9px">ESC12-13</text>
    <line x1="785.0" y1="180" x2="742.5" y2="234" stroke="#1e2d3d" stroke-width="1" />
    <rect x="674.5" y="238" width="136" height="26" rx="6" fill="#ff9f43" fill-opacity="0.12" stroke="#ff9f43" stroke-width="1.5" filter="url(#sd)"/>
    <text x="742.5" y="256" text-anchor="middle" font-family='system-ui,-apple-system,Inter,sans-serif' fill="#6b7a8d" font-size="10px">ESC12: ClientAuth via EKU Mapping</text>
    <line x1="785.0" y1="180" x2="827.5" y2="234" stroke="#1e2d3d" stroke-width="1" />
    <rect x="759.5" y="238" width="136" height="26" rx="6" fill="#e63946" fill-opacity="0.12" stroke="#e63946" stroke-width="1.5" filter="url(#sd)"/>
    <text x="827.5" y="256" text-anchor="middle" font-family='system-ui,-apple-system,Inter,sans-serif' fill="#6b7a8d" font-size="10px">ESC13: Template avec approbation</text>
</svg>