<svg xmlns='http://www.w3.org/2000/svg' viewBox='0 0 900 460' width='900' height='460'>
  <defs>
    <filter id="sd"><feDropShadow dx="0" dy="2" stdDeviation="3" flood-color="#000" flood-opacity="0.3"/></filter>
    <marker id="aR" viewBox="0 0 10 7" refX="9" refY="3.5" markerWidth="8" markerHeight="6" orient="auto"><polygon points="0 0,10 3.5,0 7" fill="#e63946"/></marker>
    <marker id="aB" viewBox="0 0 10 7" refX="9" refY="3.5" markerWidth="8" markerHeight="6" orient="auto"><polygon points="0 0,10 3.5,0 7" fill="#54a0ff"/></marker>
    <marker id="aO" viewBox="0 0 10 7" refX="9" refY="3.5" markerWidth="8" markerHeight="6" orient="auto"><polygon points="0 0,10 3.5,0 7" fill="#ff9f43"/></marker>
    <marker id="aG" viewBox="0 0 10 7" refX="9" refY="3.5" markerWidth="8" markerHeight="6" orient="auto"><polygon points="0 0,10 3.5,0 7" fill="#44d7b6"/></marker>
    <marker id="aP" viewBox="0 0 10 7" refX="9" refY="3.5" markerWidth="8" markerHeight="6" orient="auto"><polygon points="0 0,10 3.5,0 7" fill="#a55eea"/></marker>
    
  </defs>
  <rect width='900' height='460' fill='#0a0e14' rx='10'/>
  <text x="40" y="36" text-anchor="start" font-family='system-ui,-apple-system,Inter,sans-serif' font-weight="600" fill="#e6ecf3" font-size="20px">TP Synthèse — Infrastructure cible</text>
    <line x1="40" y1="48" x2="280" y2="48" stroke="#e63946" stroke-width="2"/>
    <rect x="350.0" y="45" width="200" height="44" rx="6" fill="#e63946" fill-opacity="0.12" stroke="#e63946" stroke-width="1.5" filter="url(#sd)"/>
    <text x="450.0" y="72" text-anchor="middle" font-family='system-ui,-apple-system,Inter,sans-serif' font-weight='600' fill="#e6ecf3" font-size="14px">Infrastructure RedTeam Corp.</text>
    <line x1="450.0" y1="89" x2="230.0" y2="138" stroke="#1e2d3d" stroke-width="1.2" />
    <rect x="140.0" y="140" width="180" height="40" rx="6" fill="#54a0ff" fill-opacity="0.12" stroke="#54a0ff" stroke-width="1.5" filter="url(#sd)"/>
    <text x="230.0" y="165" text-anchor="middle" font-family='system-ui,-apple-system,Inter,sans-serif' fill="#e6ecf3" font-size="12px">Foret A: redteam.lab</text>
    <rect x="280.0" y="142" width="55" height="18" rx="4" fill="#131820" stroke="#54a0ff" stroke-width="0.8"/>
    <text x="307.5" y="155" text-anchor="middle" font-family='monospace' fill="#54a0ff" font-size="9px">Production</text>
    <line x1="230.0" y1="180" x2="170.0" y2="234" stroke="#1e2d3d" stroke-width="1" />
    <rect x="102.0" y="238" width="136" height="26" rx="6" fill="#54a0ff" fill-opacity="0.12" stroke="#54a0ff" stroke-width="1.5" filter="url(#sd)"/>
    <text x="170.0" y="256" text-anchor="middle" font-family='system-ui,-apple-system,Inter,sans-serif' fill="#6b7a8d" font-size="10px">DC01.redteam.lab (DC, CA)</text>
    <line x1="230.0" y1="180" x2="230.0" y2="234" stroke="#1e2d3d" stroke-width="1" />
    <rect x="162.0" y="238" width="136" height="26" rx="6" fill="#44d7b6" fill-opacity="0.12" stroke="#44d7b6" stroke-width="1.5" filter="url(#sd)"/>
    <text x="230.0" y="256" text-anchor="middle" font-family='system-ui,-apple-system,Inter,sans-serif' fill="#6b7a8d" font-size="10px">SRV01.redteam.lab (Web, Unconstrained)</text>
    <line x1="230.0" y1="180" x2="290.0" y2="234" stroke="#1e2d3d" stroke-width="1" />
    <rect x="222.0" y="238" width="136" height="26" rx="6" fill="#a55eea" fill-opacity="0.12" stroke="#a55eea" stroke-width="1.5" filter="url(#sd)"/>
    <text x="290.0" y="256" text-anchor="middle" font-family='system-ui,-apple-system,Inter,sans-serif' fill="#6b7a8d" font-size="10px">WS01.redteam.lab (Workstation)</text>
    <line x1="450.0" y1="89" x2="450.0" y2="138" stroke="#1e2d3d" stroke-width="1.2" />
    <rect x="360.0" y="140" width="180" height="40" rx="6" fill="#44d7b6" fill-opacity="0.12" stroke="#44d7b6" stroke-width="1.5" filter="url(#sd)"/>
    <text x="450.0" y="165" text-anchor="middle" font-family='system-ui,-apple-system,Inter,sans-serif' fill="#e6ecf3" font-size="12px">Foret B: corp.contoso.com</text>
    <rect x="500.0" y="142" width="55" height="18" rx="4" fill="#131820" stroke="#44d7b6" stroke-width="0.8"/>
    <text x="527.5" y="155" text-anchor="middle" font-family='monospace' fill="#44d7b6" font-size="9px">Siege</text>
    <line x1="450.0" y1="180" x2="450.0" y2="234" stroke="#1e2d3d" stroke-width="1" />
    <rect x="382.0" y="238" width="136" height="26" rx="6" fill="#44d7b6" fill-opacity="0.12" stroke="#44d7b6" stroke-width="1.5" filter="url(#sd)"/>
    <text x="450.0" y="256" text-anchor="middle" font-family='system-ui,-apple-system,Inter,sans-serif' fill="#6b7a8d" font-size="10px">DC02.corp.contoso.com (DC)</text>
    <line x1="450.0" y1="89" x2="670.0" y2="138" stroke="#1e2d3d" stroke-width="1.2" />
    <rect x="580.0" y="140" width="180" height="40" rx="6" fill="#a55eea" fill-opacity="0.12" stroke="#a55eea" stroke-width="1.5" filter="url(#sd)"/>
    <text x="670.0" y="165" text-anchor="middle" font-family='system-ui,-apple-system,Inter,sans-serif' fill="#e6ecf3" font-size="12px">Point de depart</text>
    <rect x="720.0" y="142" width="55" height="18" rx="4" fill="#131820" stroke="#a55eea" stroke-width="0.8"/>
    <text x="747.5" y="155" text-anchor="middle" font-family='monospace' fill="#a55eea" font-size="9px">User</text>
    <line x1="670.0" y1="180" x2="625.0" y2="234" stroke="#1e2d3d" stroke-width="1" />
    <rect x="557.0" y="238" width="136" height="26" rx="6" fill="#a55eea" fill-opacity="0.12" stroke="#a55eea" stroke-width="1.5" filter="url(#sd)"/>
    <text x="625.0" y="256" text-anchor="middle" font-family='system-ui,-apple-system,Inter,sans-serif' fill="#6b7a8d" font-size="10px">alice@redteam.lab (Domain Users)</text>
    <line x1="670.0" y1="180" x2="715.0" y2="234" stroke="#1e2d3d" stroke-width="1" />
    <rect x="647.0" y="238" width="136" height="26" rx="6" fill="#ff9f43" fill-opacity="0.12" stroke="#ff9f43" stroke-width="1.5" filter="url(#sd)"/>
    <text x="715.0" y="256" text-anchor="middle" font-family='system-ui,-apple-system,Inter,sans-serif' fill="#6b7a8d" font-size="10px">Objectif: Enterprise Admin B</text>
</svg>