<svg xmlns='http://www.w3.org/2000/svg' viewBox='0 0 880 420' width='880' height='420'>
  <defs>
    <filter id="sd"><feDropShadow dx="0" dy="2" stdDeviation="3" flood-color="#000" flood-opacity="0.3"/></filter>
    <marker id="aR" viewBox="0 0 10 7" refX="9" refY="3.5" markerWidth="8" markerHeight="6" orient="auto"><polygon points="0 0,10 3.5,0 7" fill="#e63946"/></marker>
    <marker id="aB" viewBox="0 0 10 7" refX="9" refY="3.5" markerWidth="8" markerHeight="6" orient="auto"><polygon points="0 0,10 3.5,0 7" fill="#54a0ff"/></marker>
    <marker id="aO" viewBox="0 0 10 7" refX="9" refY="3.5" markerWidth="8" markerHeight="6" orient="auto"><polygon points="0 0,10 3.5,0 7" fill="#ff9f43"/></marker>
    <marker id="aG" viewBox="0 0 10 7" refX="9" refY="3.5" markerWidth="8" markerHeight="6" orient="auto"><polygon points="0 0,10 3.5,0 7" fill="#44d7b6"/></marker>
    <marker id="aP" viewBox="0 0 10 7" refX="9" refY="3.5" markerWidth="8" markerHeight="6" orient="auto"><polygon points="0 0,10 3.5,0 7" fill="#a55eea"/></marker>
    
  </defs>
  <rect width='880' height='420' fill='#0a0e14' rx='10'/>
  <text x="40" y="36" text-anchor="start" font-family='system-ui,-apple-system,Inter,sans-serif' font-weight="600" fill="#e6ecf3" font-size="20px">Types de Trusts Active Directory</text>
    <line x1="40" y1="48" x2="280" y2="48" stroke="#e63946" stroke-width="2"/>
    <rect x="340.0" y="45" width="200" height="44" rx="6" fill="#e63946" fill-opacity="0.12" stroke="#e63946" stroke-width="1.5" filter="url(#sd)"/>
    <text x="440.0" y="72" text-anchor="middle" font-family='system-ui,-apple-system,Inter,sans-serif' font-weight='600' fill="#e6ecf3" font-size="14px">Trusts Active Directory</text>
    <line x1="440.0" y1="89" x2="220.0" y2="138" stroke="#1e2d3d" stroke-width="1.2" />
    <rect x="130.0" y="140" width="180" height="40" rx="6" fill="#54a0ff" fill-opacity="0.12" stroke="#54a0ff" stroke-width="1.5" filter="url(#sd)"/>
    <text x="220.0" y="165" text-anchor="middle" font-family='system-ui,-apple-system,Inter,sans-serif' fill="#e6ecf3" font-size="12px">Intra-domain
(Forêt unique)</text>
    <rect x="270.0" y="142" width="55" height="18" rx="4" fill="#131820" stroke="#54a0ff" stroke-width="0.8"/>
    <text x="297.5" y="155" text-anchor="middle" font-family='monospace' fill="#54a0ff" font-size="9px">Transitif</text>
    <line x1="220.0" y1="180" x2="175.0" y2="234" stroke="#1e2d3d" stroke-width="1" />
    <rect x="107.0" y="238" width="136" height="26" rx="6" fill="#54a0ff" fill-opacity="0.12" stroke="#54a0ff" stroke-width="1.5" filter="url(#sd)"/>
    <text x="175.0" y="256" text-anchor="middle" font-family='system-ui,-apple-system,Inter,sans-serif' fill="#6b7a8d" font-size="10px">europe.redteam.lab</text>
    <line x1="220.0" y1="180" x2="265.0" y2="234" stroke="#1e2d3d" stroke-width="1" />
    <rect x="197.0" y="238" width="136" height="26" rx="6" fill="#44d7b6" fill-opacity="0.12" stroke="#44d7b6" stroke-width="1.5" filter="url(#sd)"/>
    <text x="265.0" y="256" text-anchor="middle" font-family='system-ui,-apple-system,Inter,sans-serif' fill="#6b7a8d" font-size="10px">americas.redteam.lab</text>
    <line x1="440.0" y1="89" x2="440.0" y2="138" stroke="#1e2d3d" stroke-width="1.2" />
    <rect x="350.0" y="140" width="180" height="40" rx="6" fill="#44d7b6" fill-opacity="0.12" stroke="#44d7b6" stroke-width="1.5" filter="url(#sd)"/>
    <text x="440.0" y="165" text-anchor="middle" font-family='system-ui,-apple-system,Inter,sans-serif' fill="#e6ecf3" font-size="12px">Inter-forest
(Forêts distinctes)</text>
    <rect x="490.0" y="142" width="55" height="18" rx="4" fill="#131820" stroke="#44d7b6" stroke-width="0.8"/>
    <text x="517.5" y="155" text-anchor="middle" font-family='monospace' fill="#44d7b6" font-size="9px">Non-transitif</text>
    <line x1="440.0" y1="180" x2="395.0" y2="234" stroke="#1e2d3d" stroke-width="1" />
    <rect x="327.0" y="238" width="136" height="26" rx="6" fill="#44d7b6" fill-opacity="0.12" stroke="#44d7b6" stroke-width="1.5" filter="url(#sd)"/>
    <text x="395.0" y="256" text-anchor="middle" font-family='system-ui,-apple-system,Inter,sans-serif' fill="#6b7a8d" font-size="10px">redteam.lab → corp.contoso.com
externe / forêt</text>
    <line x1="440.0" y1="180" x2="485.0" y2="234" stroke="#1e2d3d" stroke-width="1" />
    <rect x="417.0" y="238" width="136" height="26" rx="6" fill="#a55eea" fill-opacity="0.12" stroke="#a55eea" stroke-width="1.5" filter="url(#sd)"/>
    <text x="485.0" y="256" text-anchor="middle" font-family='system-ui,-apple-system,Inter,sans-serif' fill="#6b7a8d" font-size="10px">Unidirectionnel
+ SIDHistory possible</text>
    <line x1="440.0" y1="89" x2="660.0" y2="138" stroke="#1e2d3d" stroke-width="1.2" />
    <rect x="570.0" y="140" width="180" height="40" rx="6" fill="#a55eea" fill-opacity="0.12" stroke="#a55eea" stroke-width="1.5" filter="url(#sd)"/>
    <text x="660.0" y="165" text-anchor="middle" font-family='system-ui,-apple-system,Inter,sans-serif' fill="#e6ecf3" font-size="12px">Parent-Enfant</text>
    <rect x="710.0" y="142" width="55" height="18" rx="4" fill="#131820" stroke="#a55eea" stroke-width="0.8"/>
    <text x="737.5" y="155" text-anchor="middle" font-family='monospace' fill="#a55eea" font-size="9px">Transitif</text>
    <line x1="660.0" y1="180" x2="615.0" y2="234" stroke="#1e2d3d" stroke-width="1" />
    <rect x="547.0" y="238" width="136" height="26" rx="6" fill="#a55eea" fill-opacity="0.12" stroke="#a55eea" stroke-width="1.5" filter="url(#sd)"/>
    <text x="615.0" y="256" text-anchor="middle" font-family='system-ui,-apple-system,Inter,sans-serif' fill="#6b7a8d" font-size="10px">Bidirectionnel automatique</text>
    <line x1="660.0" y1="180" x2="705.0" y2="234" stroke="#1e2d3d" stroke-width="1" />
    <rect x="637.0" y="238" width="136" height="26" rx="6" fill="#ff9f43" fill-opacity="0.12" stroke="#ff9f43" stroke-width="1.5" filter="url(#sd)"/>
    <text x="705.0" y="256" text-anchor="middle" font-family='system-ui,-apple-system,Inter,sans-serif' fill="#6b7a8d" font-size="10px">SIDHistory non requis</text>
</svg>