<svg xmlns='http://www.w3.org/2000/svg' viewBox='0 0 900 440' width='900' height='440'>
  <defs>
    <filter id="sd"><feDropShadow dx="0" dy="2" stdDeviation="3" flood-color="#000" flood-opacity="0.3"/></filter>
    <marker id="aR" viewBox="0 0 10 7" refX="9" refY="3.5" markerWidth="8" markerHeight="6" orient="auto"><polygon points="0 0,10 3.5,0 7" fill="#e63946"/></marker>
    <marker id="aB" viewBox="0 0 10 7" refX="9" refY="3.5" markerWidth="8" markerHeight="6" orient="auto"><polygon points="0 0,10 3.5,0 7" fill="#54a0ff"/></marker>
    <marker id="aO" viewBox="0 0 10 7" refX="9" refY="3.5" markerWidth="8" markerHeight="6" orient="auto"><polygon points="0 0,10 3.5,0 7" fill="#ff9f43"/></marker>
    <marker id="aG" viewBox="0 0 10 7" refX="9" refY="3.5" markerWidth="8" markerHeight="6" orient="auto"><polygon points="0 0,10 3.5,0 7" fill="#44d7b6"/></marker>
    <marker id="aP" viewBox="0 0 10 7" refX="9" refY="3.5" markerWidth="8" markerHeight="6" orient="auto"><polygon points="0 0,10 3.5,0 7" fill="#a55eea"/></marker>
    
  </defs>
  <rect width='900' height='440' fill='#0a0e14' rx='10'/>
  <text x="40" y="36" text-anchor="start" font-family='system-ui,-apple-system,Inter,sans-serif' font-weight="600" fill="#e6ecf3" font-size="20px">SIDHistory Injection — Trust Crossing</text>
    <line x1="40" y1="48" x2="280" y2="48" stroke="#e63946" stroke-width="2"/>
    <rect x="30" y="77" width="400" height="390" rx="10" fill="#131820" fill-opacity="0.5" stroke="#1e2d3d" stroke-width="1.2"/>
    <rect x="30" y="77" width="400" height="24" rx="10" fill="#131820"/>
    <rect x="30" y="77+24" width="400" height="390-24" rx="0" fill="none"/>
    <text x="40" y="94" text-anchor="start" font-family='system-ui,-apple-system,Inter,sans-serif' fill="#6b7a8d" font-size="11px">redteam.lab (source)   </text>
    <rect x="470" y="77" width="400" height="390" rx="10" fill="#131820" fill-opacity="0.5" stroke="#1e2d3d" stroke-width="1.2"/>
    <rect x="470" y="77" width="400" height="24" rx="10" fill="#131820"/>
    <rect x="470" y="77+24" width="400" height="390-24" rx="0" fill="none"/>
    <text x="480" y="94" text-anchor="start" font-family='system-ui,-apple-system,Inter,sans-serif' fill="#6b7a8d" font-size="11px">corp.contoso.com (cible)   </text>
    <rect x="158" y="187" width="84" height="60" rx="6" fill="#a55eea" fill-opacity="0.12" stroke="#a55eea" stroke-width="1.5" filter="url(#sd)"/>
    <g transform="translate(184.4,187.4) scale(0.65)"><circle cx="24" cy="12" r="8" fill="none" stroke="#a55eea" stroke-width="1.2"/><path d="M8 38 Q8 22 24 22 Q40 22 40 38" fill="none" stroke="#a55eea" stroke-width="1.2"/></g>
    <text x="200" y="233.0" text-anchor="middle" font-family='system-ui,-apple-system,Inter,sans-serif' fill="#e6ecf3" font-size="10px">alice</text>
    <text x="200" y="248.0" text-anchor="middle" font-family='system-ui,-apple-system,Inter,sans-serif' fill="#e6ecf3" font-size="10px">SID: S-1-5-21-...-1111</text>
    <rect x="158" y="317" width="84" height="60" rx="6" fill="#e63946" fill-opacity="0.12" stroke="#e63946" stroke-width="1.5" filter="url(#sd)"/>
    <g transform="translate(184.4,317.4) scale(0.65)"><circle cx="12" cy="24" r="8" fill="none" stroke="#e63946" stroke-width="1.2"/><line x1="20" y1="24" x2="44" y2="24" stroke="#e63946" stroke-width="1.2"/><line x1="28" y1="20" x2="28" y2="28" stroke="#e63946" stroke-width="1.2"/></g>
    <text x="200" y="355.5" text-anchor="middle" font-family='system-ui,-apple-system,Inter,sans-serif' fill="#e6ecf3" font-size="10px">SIDHistory:</text>
    <text x="200" y="370.5" text-anchor="middle" font-family='system-ui,-apple-system,Inter,sans-serif' fill="#e6ecf3" font-size="10px">S-1-5-21-...-519</text>
    <text x="200" y="385.5" text-anchor="middle" font-family='system-ui,-apple-system,Inter,sans-serif' fill="#e6ecf3" font-size="10px">(Enterprise Admins)</text>
    <rect x="598" y="237" width="84" height="60" rx="6" fill="#ff9f43" fill-opacity="0.12" stroke="#ff9f43" stroke-width="1.5" filter="url(#sd)"/>
    <g transform="translate(624.4,237.4) scale(0.65)"><path d="M6 10 L18 10 L22 16 L42 16 L42 38 L6 38 Z" fill="none" stroke="#ff9f43" stroke-width="1.2"/></g>
    <text x="640" y="283.0" text-anchor="middle" font-family='system-ui,-apple-system,Inter,sans-serif' fill="#e6ecf3" font-size="10px">\\fs01\secret</text>
    <text x="640" y="298.0" text-anchor="middle" font-family='system-ui,-apple-system,Inter,sans-serif' fill="#e6ecf3" font-size="10px">ACL: EA (S-1-5-21-...-519)</text>
    <path d="M200,217 Q200,222.0 640,267" fill="none" stroke="#e63946" stroke-width="1.8" marker-end="url(#aR)"/>
    <rect x="299.5" y="212.0" width="241" height="18" rx="4" fill="#0a0e14" stroke="#1e2d3d" stroke-width="0.8"/>
    <text x="420.0" y="225.0" text-anchor="middle" font-family='monospace' fill="#6b7a8d" font-size="9px">Trust → SIDHistory donne accès EA</text>
    <path d="M200,347 Q200,262.0 200,217" fill="none" stroke="#ff9f43" stroke-width="1.8" marker-end="url(#aO)"/>
    <rect x="170.5" y="252.0" width="59" height="18" rx="4" fill="#0a0e14" stroke="#1e2d3d" stroke-width="0.8"/>
    <text x="200.0" y="265.0" text-anchor="middle" font-family='monospace' fill="#6b7a8d" font-size="9px">Injecte</text>
</svg>