<svg xmlns='http://www.w3.org/2000/svg' viewBox='0 0 860 460' width='860' height='460'>
  <defs>
    <filter id="sd"><feDropShadow dx="0" dy="2" stdDeviation="3" flood-color="#000" flood-opacity="0.3"/></filter>
    <marker id="aR" viewBox="0 0 10 7" refX="9" refY="3.5" markerWidth="8" markerHeight="6" orient="auto"><polygon points="0 0,10 3.5,0 7" fill="#e63946"/></marker>
    <marker id="aB" viewBox="0 0 10 7" refX="9" refY="3.5" markerWidth="8" markerHeight="6" orient="auto"><polygon points="0 0,10 3.5,0 7" fill="#54a0ff"/></marker>
    <marker id="aO" viewBox="0 0 10 7" refX="9" refY="3.5" markerWidth="8" markerHeight="6" orient="auto"><polygon points="0 0,10 3.5,0 7" fill="#ff9f43"/></marker>
    <marker id="aG" viewBox="0 0 10 7" refX="9" refY="3.5" markerWidth="8" markerHeight="6" orient="auto"><polygon points="0 0,10 3.5,0 7" fill="#44d7b6"/></marker>
    <marker id="aP" viewBox="0 0 10 7" refX="9" refY="3.5" markerWidth="8" markerHeight="6" orient="auto"><polygon points="0 0,10 3.5,0 7" fill="#a55eea"/></marker>
    
  </defs>
  <rect width='860' height='460' fill='#0a0e14' rx='10'/>
  <text x="40" y="36" text-anchor="start" font-family='system-ui,-apple-system,Inter,sans-serif' font-weight="600" fill="#e6ecf3" font-size="20px">Mécanisme d'authentification PKINIT (ESC1)</text>
    <line x1="40" y1="48" x2="280" y2="48" stroke="#e63946" stroke-width="2"/>
    <rect x="180.0" y="55" width="110" height="34" rx="6" fill="#e63946" fill-opacity="0.12" stroke="#e63946" stroke-width="1.5" filter="url(#sd)"/>
    <text x="235.0" y="77" text-anchor="middle" font-family='system-ui,-apple-system,Inter,sans-serif' fill="#e6ecf3" font-size="11px">Attaquant
alice@lab</text>
    <line x1="235.0" y1="89" x2="235.0" y2="430" stroke="#e63946" stroke-width="0.8" stroke-dasharray="4 4" />
    <rect x="375.0" y="55" width="110" height="34" rx="6" fill="#54a0ff" fill-opacity="0.12" stroke="#54a0ff" stroke-width="1.5" filter="url(#sd)"/>
    <text x="430.0" y="77" text-anchor="middle" font-family='system-ui,-apple-system,Inter,sans-serif' fill="#e6ecf3" font-size="11px">KDC</text>
    <line x1="430.0" y1="89" x2="430.0" y2="430" stroke="#54a0ff" stroke-width="0.8" stroke-dasharray="4 4" />
    <rect x="570.0" y="55" width="110" height="34" rx="6" fill="#44d7b6" fill-opacity="0.12" stroke="#44d7b6" stroke-width="1.5" filter="url(#sd)"/>
    <text x="625.0" y="77" text-anchor="middle" font-family='system-ui,-apple-system,Inter,sans-serif' fill="#e6ecf3" font-size="11px">CA</text>
    <line x1="625.0" y1="89" x2="625.0" y2="430" stroke="#44d7b6" stroke-width="0.8" stroke-dasharray="4 4" />
    <line x1="235.0" y1="110" x2="430.0" y2="110" stroke="#e63946" stroke-width="1.5" marker-end="url(#aR)" />
    <rect x="254.0" y="86" width="157" height="18" rx="4" fill="#0a0e14" stroke="#1e2d3d" stroke-width="0.8"/>
    <text x="332.5" y="99" text-anchor="middle" font-family='monospace' fill="#6b7a8d" font-size="9px">1. Demande TGT PKINIT</text>
    <line x1="430.0" y1="155" x2="625.0" y2="155" stroke="#e63946" stroke-width="1.5" marker-end="url(#aR)" />
    <rect x="449.0" y="131" width="157" height="18" rx="4" fill="#0a0e14" stroke="#1e2d3d" stroke-width="0.8"/>
    <text x="527.5" y="144" text-anchor="middle" font-family='monospace' fill="#6b7a8d" font-size="9px">2. Vérifie certificat</text>
    <line x1="625.0" y1="200" x2="430.0" y2="200" stroke="#44d7b6" stroke-width="1.5" marker-end="url(#aG)" />
    <rect x="452.5" y="176" width="150" height="18" rx="4" fill="#0a0e14" stroke="#1e2d3d" stroke-width="0.8"/>
    <text x="527.5" y="189" text-anchor="middle" font-family='monospace' fill="#6b7a8d" font-size="9px">3. Certificat valide</text>
    <line x1="430.0" y1="245" x2="235.0" y2="245" stroke="#44d7b6" stroke-width="1.5" marker-end="url(#aG)" />
    <rect x="226.0" y="221" width="213" height="18" rx="4" fill="#0a0e14" stroke="#1e2d3d" stroke-width="0.8"/>
    <text x="332.5" y="234" text-anchor="middle" font-family='monospace' fill="#6b7a8d" font-size="9px">4. TGT avec SID Administrator</text>
    <line x1="235.0" y1="290" x2="430.0" y2="290" stroke="#e63946" stroke-width="1.5" marker-end="url(#aR)" />
    <rect x="250.5" y="266" width="164" height="18" rx="4" fill="#0a0e14" stroke="#1e2d3d" stroke-width="0.8"/>
    <text x="332.5" y="279" text-anchor="middle" font-family='monospace' fill="#6b7a8d" font-size="9px">5. TGS-REQ (cifs/dc01)</text>
    <line x1="430.0" y1="335" x2="235.0" y2="335" stroke="#44d7b6" stroke-width="1.5" marker-end="url(#aG)" />
    <rect x="250.5" y="311" width="164" height="18" rx="4" fill="#0a0e14" stroke="#1e2d3d" stroke-width="0.8"/>
    <text x="332.5" y="324" text-anchor="middle" font-family='monospace' fill="#6b7a8d" font-size="9px">6. TGS — Accès accordé</text>
</svg>