<svg xmlns='http://www.w3.org/2000/svg' viewBox='0 0 880 440' width='880' height='440'>
  <defs>
    <filter id="sd"><feDropShadow dx="0" dy="2" stdDeviation="3" flood-color="#000" flood-opacity="0.3"/></filter>
    <marker id="aR" viewBox="0 0 10 7" refX="9" refY="3.5" markerWidth="8" markerHeight="6" orient="auto"><polygon points="0 0,10 3.5,0 7" fill="#e63946"/></marker>
    <marker id="aB" viewBox="0 0 10 7" refX="9" refY="3.5" markerWidth="8" markerHeight="6" orient="auto"><polygon points="0 0,10 3.5,0 7" fill="#54a0ff"/></marker>
    <marker id="aO" viewBox="0 0 10 7" refX="9" refY="3.5" markerWidth="8" markerHeight="6" orient="auto"><polygon points="0 0,10 3.5,0 7" fill="#ff9f43"/></marker>
    <marker id="aG" viewBox="0 0 10 7" refX="9" refY="3.5" markerWidth="8" markerHeight="6" orient="auto"><polygon points="0 0,10 3.5,0 7" fill="#44d7b6"/></marker>
    <marker id="aP" viewBox="0 0 10 7" refX="9" refY="3.5" markerWidth="8" markerHeight="6" orient="auto"><polygon points="0 0,10 3.5,0 7" fill="#a55eea"/></marker>
    
  </defs>
  <rect width='880' height='440' fill='#0a0e14' rx='10'/>
  <text x="40" y="36" text-anchor="start" font-family='system-ui,-apple-system,Inter,sans-serif' font-weight="600" fill="#e6ecf3" font-size="20px">DCShadow — Usurper l'identité d'un DC</text>
    <line x1="40" y1="48" x2="280" y2="48" stroke="#e63946" stroke-width="2"/>
    <rect x="30" y="77" width="380" height="390" rx="10" fill="#131820" fill-opacity="0.5" stroke="#1e2d3d" stroke-width="1.2"/>
    <rect x="30" y="77" width="380" height="24" rx="10" fill="#131820"/>
    <rect x="30" y="77+24" width="380" height="390-24" rx="0" fill="none"/>
    <text x="40" y="94" text-anchor="start" font-family='system-ui,-apple-system,Inter,sans-serif' fill="#6b7a8d" font-size="11px">DC01 (vrai DC)   </text>
    <rect x="460" y="77" width="390" height="390" rx="10" fill="#131820" fill-opacity="0.5" stroke="#1e2d3d" stroke-width="1.2"/>
    <rect x="460" y="77" width="390" height="24" rx="10" fill="#131820"/>
    <rect x="460" y="77+24" width="390" height="390-24" rx="0" fill="none"/>
    <text x="470" y="94" text-anchor="start" font-family='system-ui,-apple-system,Inter,sans-serif' fill="#6b7a8d" font-size="11px">WS01 (attaquant)   </text>
    <rect x="148" y="157" width="84" height="60" rx="6" fill="#54a0ff" fill-opacity="0.12" stroke="#54a0ff" stroke-width="1.5" filter="url(#sd)"/>
    <g transform="translate(174.4,157.4) scale(0.65)"><ellipse cx="24" cy="8" rx="20" ry="6" fill="none" stroke="#54a0ff" stroke-width="1.2"/><path d="M4 8 L4 36" stroke="#54a0ff" stroke-width="1.2"/><path d="M44 8 L44 36" stroke="#54a0ff" stroke-width="1.2"/><ellipse cx="24" cy="36" rx="20" ry="6" fill="none" stroke="#54a0ff" stroke-width="1.2"/><ellipse cx="24" cy="22" rx="20" ry="6" fill="none" stroke="#54a0ff" stroke-width="1.2" stroke-dasharray="2 2"/></g>
    <text x="190" y="203.0" text-anchor="middle" font-family='system-ui,-apple-system,Inter,sans-serif' fill="#e6ecf3" font-size="10px">Base AD</text>
    <text x="190" y="218.0" text-anchor="middle" font-family='system-ui,-apple-system,Inter,sans-serif' fill="#e6ecf3" font-size="10px">(NTDS.DIT)</text>
    <rect x="148" y="307" width="84" height="60" rx="6" fill="#44d7b6" fill-opacity="0.12" stroke="#44d7b6" stroke-width="1.5" filter="url(#sd)"/>
    <g transform="translate(174.4,307.4) scale(0.65)"><rect x="4" y="4" width="40" height="10" rx="1.5" fill="none" stroke="#44d7b6" stroke-width="1.2"/><rect x="4" y="18" width="40" height="10" rx="1.5" fill="none" stroke="#44d7b6" stroke-width="1.2"/><rect x="4" y="32" width="40" height="10" rx="1.5" fill="none" stroke="#44d7b6" stroke-width="1.2"/><circle cx="14" cy="9" r="2" fill="#44d7b6"/><circle cx="14" cy="23" r="2" fill="#44d7b6"/><circle cx="14" cy="37" r="2" fill="#44d7b6"/></g>
    <text x="190" y="353.0" text-anchor="middle" font-family='system-ui,-apple-system,Inter,sans-serif' fill="#e6ecf3" font-size="10px">Réplication</text>
    <text x="190" y="368.0" text-anchor="middle" font-family='system-ui,-apple-system,Inter,sans-serif' fill="#e6ecf3" font-size="10px">Notification</text>
    <rect x="578" y="157" width="84" height="60" rx="6" fill="#e63946" fill-opacity="0.12" stroke="#e63946" stroke-width="1.5" filter="url(#sd)"/>
    <g transform="translate(604.4,157.4) scale(0.65)"><path d="M24 4 L28 16 L38 14 L32 22 L42 28 L30 32 L26 44 L22 32 L12 34 L18 24 L8 20 L20 18 Z" fill="none" stroke="#e63946" stroke-width="1.2"/></g>
    <text x="620" y="195.5" text-anchor="middle" font-family='system-ui,-apple-system,Inter,sans-serif' fill="#e6ecf3" font-size="10px">DCShadow push</text>
    <text x="620" y="210.5" text-anchor="middle" font-family='system-ui,-apple-system,Inter,sans-serif' fill="#e6ecf3" font-size="10px">→ Attributs</text>
    <text x="620" y="225.5" text-anchor="middle" font-family='system-ui,-apple-system,Inter,sans-serif' fill="#e6ecf3" font-size="10px">  modifiés</text>
    <rect x="578" y="307" width="84" height="60" rx="6" fill="#ff9f43" fill-opacity="0.12" stroke="#ff9f43" stroke-width="1.5" filter="url(#sd)"/>
    <g transform="translate(604.4,307.4) scale(0.65)"><rect x="4" y="4" width="40" height="10" rx="1.5" fill="none" stroke="#ff9f43" stroke-width="1.2"/><rect x="4" y="18" width="40" height="10" rx="1.5" fill="none" stroke="#ff9f43" stroke-width="1.2"/><rect x="4" y="32" width="40" height="10" rx="1.5" fill="none" stroke="#ff9f43" stroke-width="1.2"/><circle cx="14" cy="9" r="2" fill="#44d7b6"/><circle cx="14" cy="23" r="2" fill="#44d7b6"/><circle cx="14" cy="37" r="2" fill="#44d7b6"/></g>
    <text x="620" y="345.5" text-anchor="middle" font-family='system-ui,-apple-system,Inter,sans-serif' fill="#e6ecf3" font-size="10px">Registration</text>
    <text x="620" y="360.5" text-anchor="middle" font-family='system-ui,-apple-system,Inter,sans-serif' fill="#e6ecf3" font-size="10px">en tant que DC</text>
    <text x="620" y="375.5" text-anchor="middle" font-family='system-ui,-apple-system,Inter,sans-serif' fill="#e6ecf3" font-size="10px">(via DRSUAPI)</text>
    <path d="M620,187 Q620,167.0 190,187" fill="none" stroke="#e63946" stroke-width="1.8" marker-end="url(#aR)"/>
    <rect x="295.0" y="157.0" width="220" height="18" rx="4" fill="#0a0e14" stroke="#1e2d3d" stroke-width="0.8"/>
    <text x="405.0" y="170.0" text-anchor="middle" font-family='monospace' fill="#6b7a8d" font-size="9px">Pousse attributs (réplique AD)</text>
    <path d="M620,337 Q620,317.0 190,337" fill="none" stroke="#e63946" stroke-width="1.8" marker-end="url(#aR)"/>
    <rect x="305.5" y="307.0" width="199" height="18" rx="4" fill="#0a0e14" stroke="#1e2d3d" stroke-width="0.8"/>
    <text x="405.0" y="320.0" text-anchor="middle" font-family='monospace' fill="#6b7a8d" font-size="9px">Enregistre comme DC factice</text>
</svg>