<svg xmlns='http://www.w3.org/2000/svg' viewBox='0 0 900 400' width='900' height='400'>
  <defs>
    <filter id="sd"><feDropShadow dx="0" dy="2" stdDeviation="3" flood-color="#000" flood-opacity="0.3"/></filter>
    <marker id="aR" viewBox="0 0 10 7" refX="9" refY="3.5" markerWidth="8" markerHeight="6" orient="auto"><polygon points="0 0,10 3.5,0 7" fill="#e63946"/></marker>
    <marker id="aB" viewBox="0 0 10 7" refX="9" refY="3.5" markerWidth="8" markerHeight="6" orient="auto"><polygon points="0 0,10 3.5,0 7" fill="#54a0ff"/></marker>
    <marker id="aO" viewBox="0 0 10 7" refX="9" refY="3.5" markerWidth="8" markerHeight="6" orient="auto"><polygon points="0 0,10 3.5,0 7" fill="#ff9f43"/></marker>
    <marker id="aG" viewBox="0 0 10 7" refX="9" refY="3.5" markerWidth="8" markerHeight="6" orient="auto"><polygon points="0 0,10 3.5,0 7" fill="#44d7b6"/></marker>
    <marker id="aP" viewBox="0 0 10 7" refX="9" refY="3.5" markerWidth="8" markerHeight="6" orient="auto"><polygon points="0 0,10 3.5,0 7" fill="#a55eea"/></marker>
    
  </defs>
  <rect width='900' height='400' fill='#0a0e14' rx='10'/>
  <text x="40" y="36" text-anchor="start" font-family='system-ui,-apple-system,Inter,sans-serif' font-weight="600" fill="#e6ecf3" font-size="20px">Golden Ticket — Forger un TGT avec le hash KRBTGT</text>
    <line x1="40" y1="48" x2="280" y2="48" stroke="#e63946" stroke-width="2"/>
    <line x1="265.0" y1="182.0" x2="295.0" y2="182.0" stroke="#e63946" stroke-width="1.8" marker-end="url(#aR)" />
    <line x1="435.0" y1="182.0" x2="465.0" y2="182.0" stroke="#e63946" stroke-width="1.8" marker-end="url(#aB)" />
    <line x1="605.0" y1="182.0" x2="635.0" y2="182.0" stroke="#e63946" stroke-width="1.8" marker-end="url(#aO)" />
    <rect x="125.0" y="142.0" width="140" height="78" rx="6" fill="#e63946" fill-opacity="0.12" stroke="#e63946" stroke-width="1.5" filter="url(#sd)"/>
    <g transform="translate(181.8,146.8) scale(0.55)"><circle cx="12" cy="24" r="8" fill="none" stroke="#e63946" stroke-width="1.2"/><line x1="20" y1="24" x2="44" y2="24" stroke="#e63946" stroke-width="1.2"/><line x1="28" y1="20" x2="28" y2="28" stroke="#e63946" stroke-width="1.2"/></g>
    <text x="195.0" y="183.75" text-anchor="middle" font-family='system-ui,-apple-system,Inter,sans-serif' fill="#e6ecf3" font-size="11px">DCSync</text>
    <text x="195.0" y="200.25" text-anchor="middle" font-family='system-ui,-apple-system,Inter,sans-serif' fill="#e6ecf3" font-size="11px">Récupérer hash</text>
    <text x="195.0" y="216.75" text-anchor="middle" font-family='system-ui,-apple-system,Inter,sans-serif' fill="#e6ecf3" font-size="11px">KRBTGT</text>
    <rect x="159.5" y="228.0" width="71" height="18" rx="4" fill="#131820" stroke="#e63946" stroke-width="0.8"/>
    <text x="195.0" y="241.0" text-anchor="middle" font-family='monospace' fill="#e63946" font-size="9px">T1003.006</text>
    <rect x="295.0" y="142.0" width="140" height="78" rx="6" fill="#54a0ff" fill-opacity="0.12" stroke="#54a0ff" stroke-width="1.5" filter="url(#sd)"/>
    <g transform="translate(351.8,146.8) scale(0.55)"><path d="M24 4 L28 16 L38 14 L32 22 L42 28 L30 32 L26 44 L22 32 L12 34 L18 24 L8 20 L20 18 Z" fill="none" stroke="#54a0ff" stroke-width="1.2"/></g>
    <text x="365.0" y="183.75" text-anchor="middle" font-family='system-ui,-apple-system,Inter,sans-serif' fill="#e6ecf3" font-size="11px">Forger TGT</text>
    <text x="365.0" y="200.25" text-anchor="middle" font-family='system-ui,-apple-system,Inter,sans-serif' fill="#e6ecf3" font-size="11px">User: Administrator</text>
    <text x="365.0" y="216.75" text-anchor="middle" font-family='system-ui,-apple-system,Inter,sans-serif' fill="#e6ecf3" font-size="11px">Domain Admin SID</text>
    <rect x="329.5" y="228.0" width="71" height="18" rx="4" fill="#131820" stroke="#54a0ff" stroke-width="0.8"/>
    <text x="365.0" y="241.0" text-anchor="middle" font-family='monospace' fill="#54a0ff" font-size="9px">T1558.001</text>
    <rect x="465.0" y="142.0" width="140" height="78" rx="6" fill="#a55eea" fill-opacity="0.12" stroke="#a55eea" stroke-width="1.5" filter="url(#sd)"/>
    <g transform="translate(521.8,146.8) scale(0.55)"><circle cx="24" cy="12" r="8" fill="none" stroke="#a55eea" stroke-width="1.2"/><path d="M8 38 Q8 22 24 22 Q40 22 40 38" fill="none" stroke="#a55eea" stroke-width="1.2"/></g>
    <text x="535.0" y="183.75" text-anchor="middle" font-family='system-ui,-apple-system,Inter,sans-serif' fill="#e6ecf3" font-size="11px">Injecter TGT</text>
    <text x="535.0" y="200.25" text-anchor="middle" font-family='system-ui,-apple-system,Inter,sans-serif' fill="#e6ecf3" font-size="11px">(Pass-the-Ticket)</text>
    <text x="535.0" y="216.75" text-anchor="middle" font-family='system-ui,-apple-system,Inter,sans-serif' fill="#e6ecf3" font-size="11px">Valide 10 ans</text>
    <rect x="492.5" y="228.0" width="85" height="18" rx="4" fill="#131820" stroke="#a55eea" stroke-width="0.8"/>
    <text x="535.0" y="241.0" text-anchor="middle" font-family='monospace' fill="#a55eea" font-size="9px">Persistence</text>
    <rect x="635.0" y="142.0" width="140" height="78" rx="6" fill="#44d7b6" fill-opacity="0.12" stroke="#44d7b6" stroke-width="1.5" filter="url(#sd)"/>
    <g transform="translate(691.8,146.8) scale(0.55)"><rect x="4" y="4" width="40" height="10" rx="1.5" fill="none" stroke="#44d7b6" stroke-width="1.2"/><rect x="4" y="18" width="40" height="10" rx="1.5" fill="none" stroke="#44d7b6" stroke-width="1.2"/><rect x="4" y="32" width="40" height="10" rx="1.5" fill="none" stroke="#44d7b6" stroke-width="1.2"/><circle cx="14" cy="9" r="2" fill="#44d7b6"/><circle cx="14" cy="23" r="2" fill="#44d7b6"/><circle cx="14" cy="37" r="2" fill="#44d7b6"/></g>
    <text x="705.0" y="183.75" text-anchor="middle" font-family='system-ui,-apple-system,Inter,sans-serif' fill="#e6ecf3" font-size="11px">Accès total</text>
    <text x="705.0" y="200.25" text-anchor="middle" font-family='system-ui,-apple-system,Inter,sans-serif' fill="#e6ecf3" font-size="11px">Domaine</text>
    <text x="705.0" y="216.75" text-anchor="middle" font-family='system-ui,-apple-system,Inter,sans-serif' fill="#e6ecf3" font-size="11px">DCSync / Admin</text>
    <rect x="659.0" y="228.0" width="92" height="18" rx="4" fill="#131820" stroke="#44d7b6" stroke-width="0.8"/>
    <text x="705.0" y="241.0" text-anchor="middle" font-family='monospace' fill="#44d7b6" font-size="9px">Domain Admin</text>
</svg>