<svg xmlns='http://www.w3.org/2000/svg' viewBox='0 0 920 360' width='920' height='360'>
  <defs>
    <filter id="sd"><feDropShadow dx="0" dy="2" stdDeviation="3" flood-color="#000" flood-opacity="0.3"/></filter>
    <marker id="aR" viewBox="0 0 10 7" refX="9" refY="3.5" markerWidth="8" markerHeight="6" orient="auto"><polygon points="0 0,10 3.5,0 7" fill="#e63946"/></marker>
    <marker id="aB" viewBox="0 0 10 7" refX="9" refY="3.5" markerWidth="8" markerHeight="6" orient="auto"><polygon points="0 0,10 3.5,0 7" fill="#54a0ff"/></marker>
    <marker id="aO" viewBox="0 0 10 7" refX="9" refY="3.5" markerWidth="8" markerHeight="6" orient="auto"><polygon points="0 0,10 3.5,0 7" fill="#ff9f43"/></marker>
    <marker id="aG" viewBox="0 0 10 7" refX="9" refY="3.5" markerWidth="8" markerHeight="6" orient="auto"><polygon points="0 0,10 3.5,0 7" fill="#44d7b6"/></marker>
    <marker id="aP" viewBox="0 0 10 7" refX="9" refY="3.5" markerWidth="8" markerHeight="6" orient="auto"><polygon points="0 0,10 3.5,0 7" fill="#a55eea"/></marker>
    
  </defs>
  <rect width='920' height='360' fill='#0a0e14' rx='10'/>
  <text x="40" y="36" text-anchor="start" font-family='system-ui,-apple-system,Inter,sans-serif' font-weight="600" fill="#e6ecf3" font-size="20px">S4U2Self + S4U2Proxy — Constrained Delegation Abuse</text>
    <line x1="40" y1="48" x2="280" y2="48" stroke="#e63946" stroke-width="2"/>
    <line x1="275.0" y1="162.0" x2="305.0" y2="162.0" stroke="#e63946" stroke-width="1.8" marker-end="url(#aR)" />
    <line x1="445.0" y1="162.0" x2="475.0" y2="162.0" stroke="#e63946" stroke-width="1.8" marker-end="url(#aB)" />
    <line x1="615.0" y1="162.0" x2="645.0" y2="162.0" stroke="#e63946" stroke-width="1.8" marker-end="url(#aO)" />
    <rect x="135.0" y="122.0" width="140" height="78" rx="6" fill="#e63946" fill-opacity="0.12" stroke="#e63946" stroke-width="1.5" filter="url(#sd)"/>
    <g transform="translate(191.8,126.8) scale(0.55)"><circle cx="24" cy="12" r="8" fill="none" stroke="#e63946" stroke-width="1.2"/><path d="M8 38 Q8 22 24 22 Q40 22 40 38" fill="none" stroke="#e63946" stroke-width="1.2"/></g>
    <text x="205.0" y="155.5" text-anchor="middle" font-family='system-ui,-apple-system,Inter,sans-serif' fill="#e6ecf3" font-size="11px">S4U2Self</text>
    <text x="205.0" y="172.0" text-anchor="middle" font-family='system-ui,-apple-system,Inter,sans-serif' fill="#e6ecf3" font-size="11px">Demander TGS pour</text>
    <text x="205.0" y="188.5" text-anchor="middle" font-family='system-ui,-apple-system,Inter,sans-serif' fill="#e6ecf3" font-size="11px">l'utilisateur cible</text>
    <text x="205.0" y="205.0" text-anchor="middle" font-family='system-ui,-apple-system,Inter,sans-serif' fill="#e6ecf3" font-size="11px">(sans TGT de sa part)</text>
    <rect x="176.5" y="208.0" width="57" height="18" rx="4" fill="#131820" stroke="#e63946" stroke-width="0.8"/>
    <text x="205.0" y="221.0" text-anchor="middle" font-family='monospace' fill="#e63946" font-size="9px">Étape 1</text>
    <rect x="305.0" y="122.0" width="140" height="78" rx="6" fill="#54a0ff" fill-opacity="0.12" stroke="#54a0ff" stroke-width="1.5" filter="url(#sd)"/>
    <g transform="translate(361.8,126.8) scale(0.55)"><circle cx="12" cy="24" r="8" fill="none" stroke="#54a0ff" stroke-width="1.2"/><line x1="20" y1="24" x2="44" y2="24" stroke="#54a0ff" stroke-width="1.2"/><line x1="28" y1="20" x2="28" y2="28" stroke="#54a0ff" stroke-width="1.2"/></g>
    <text x="375.0" y="163.75" text-anchor="middle" font-family='system-ui,-apple-system,Inter,sans-serif' fill="#e6ecf3" font-size="11px">Obtention TGS</text>
    <text x="375.0" y="180.25" text-anchor="middle" font-family='system-ui,-apple-system,Inter,sans-serif' fill="#e6ecf3" font-size="11px">forwardable</text>
    <text x="375.0" y="196.75" text-anchor="middle" font-family='system-ui,-apple-system,Inter,sans-serif' fill="#e6ecf3" font-size="11px">pour utilisateur cible</text>
    <rect x="475.0" y="122.0" width="140" height="78" rx="6" fill="#a55eea" fill-opacity="0.12" stroke="#a55eea" stroke-width="1.5" filter="url(#sd)"/>
    <g transform="translate(531.8,126.8) scale(0.55)"><path d="M24 4 L28 16 L38 14 L32 22 L42 28 L30 32 L26 44 L22 32 L12 34 L18 24 L8 20 L20 18 Z" fill="none" stroke="#a55eea" stroke-width="1.2"/></g>
    <text x="545.0" y="155.5" text-anchor="middle" font-family='system-ui,-apple-system,Inter,sans-serif' fill="#e6ecf3" font-size="11px">S4U2Proxy</text>
    <text x="545.0" y="172.0" text-anchor="middle" font-family='system-ui,-apple-system,Inter,sans-serif' fill="#e6ecf3" font-size="11px">Utiliser le TGS</text>
    <text x="545.0" y="188.5" text-anchor="middle" font-family='system-ui,-apple-system,Inter,sans-serif' fill="#e6ecf3" font-size="11px">pour demander TGS</text>
    <text x="545.0" y="205.0" text-anchor="middle" font-family='system-ui,-apple-system,Inter,sans-serif' fill="#e6ecf3" font-size="11px">vers service autorisé</text>
    <rect x="516.5" y="208.0" width="57" height="18" rx="4" fill="#131820" stroke="#a55eea" stroke-width="0.8"/>
    <text x="545.0" y="221.0" text-anchor="middle" font-family='monospace' fill="#a55eea" font-size="9px">Étape 2</text>
    <rect x="645.0" y="122.0" width="140" height="78" rx="6" fill="#44d7b6" fill-opacity="0.12" stroke="#44d7b6" stroke-width="1.5" filter="url(#sd)"/>
    <g transform="translate(701.8,126.8) scale(0.55)"><rect x="4" y="4" width="40" height="10" rx="1.5" fill="none" stroke="#44d7b6" stroke-width="1.2"/><rect x="4" y="18" width="40" height="10" rx="1.5" fill="none" stroke="#44d7b6" stroke-width="1.2"/><rect x="4" y="32" width="40" height="10" rx="1.5" fill="none" stroke="#44d7b6" stroke-width="1.2"/><circle cx="14" cy="9" r="2" fill="#44d7b6"/><circle cx="14" cy="23" r="2" fill="#44d7b6"/><circle cx="14" cy="37" r="2" fill="#44d7b6"/></g>
    <text x="715.0" y="163.75" text-anchor="middle" font-family='system-ui,-apple-system,Inter,sans-serif' fill="#e6ecf3" font-size="11px">Réception TGS</text>
    <text x="715.0" y="180.25" text-anchor="middle" font-family='system-ui,-apple-system,Inter,sans-serif' fill="#e6ecf3" font-size="11px">pour le service cible</text>
    <text x="715.0" y="196.75" text-anchor="middle" font-family='system-ui,-apple-system,Inter,sans-serif' fill="#e6ecf3" font-size="11px">→ Accès obtenu</text>
</svg>